<svg xmlns="http://www.w3.org/2000/svg" viewBox="0 0 200 100"><defs><style>.cls-1,.cls-6{fill:#34473d;}.cls-1{opacity:0.9;}.cls-2{fill:#5d6c64;}.cls-3{fill:#85918b;}.cls-4{fill:#aeb5b1;}.cls-5{fill:#bec4c1;}</style></defs><g id="DIANA"><path class="cls-1" d="M90.07,20S75.28,50.22,75.28,65.65a13.28,13.28,0,0,0,6,11.69,15.79,15.79,0,0,0,17.55,0,13.31,13.31,0,0,0,6-11.69C104.87,50.22,90.07,20,90.07,20Z"/><path class="cls-2" d="M90.07,24.09S77,52.22,77,65.82a11.74,11.74,0,0,0,5.3,10.31,13.93,13.93,0,0,0,15.48,0,11.72,11.72,0,0,0,5.31-10.31C103.12,52.22,90.07,24.09,90.07,24.09Z"/><path class="cls-3" d="M90.07,27.78S78.8,51.82,78.8,63.44a10,10,0,0,0,4.59,8.81,12.16,12.16,0,0,0,13.37,0,10,10,0,0,0,4.59-8.81C101.35,51.82,90.07,27.78,90.07,27.78Z"/><path class="cls-4" d="M90.07,24.09s.38,2.25.83,5.62c2.38,6.55,8,27.18,5.33,35.79-3,9.91-11.67,7.42-11.72,7.41a4.51,4.51,0,0,0,.88,2.66c2.78,3.75,7.73,3.27,12.42.56,4.25-2.46,5.31-7.48,5.31-10.31C103.12,57.71,96,36.59,90.07,24.09Z"/><path class="cls-5" d="M96.23,65.5c2.65-8.61-3-29.24-5.33-35.79.81,6,1.83,15.66,1.3,22.31-.84,10.35-4.87,14.1-4.87,14.1a14.76,14.76,0,0,0-2.6,5l-.22,1.77h0S93.18,75.41,96.23,65.5Z"/><path class="cls-6" d="M100.89,28.92H98l-.34.8a1.79,1.79,0,0,0-.17.65.54.54,0,0,0,.28.51,2.4,2.4,0,0,0,.8.14v.22H95.87V31a1.24,1.24,0,0,0,.72-.36,4.94,4.94,0,0,0,.7-1.23l2.91-6.5h.11l2.94,6.68a4,4,0,0,0,.69,1.19.93.93,0,0,0,.58.22v.22h-3.94V31h.16a1.23,1.23,0,0,0,.67-.13.33.33,0,0,0,.13-.28.57.57,0,0,0,0-.22,2.25,2.25,0,0,0-.18-.45Zm-.2-.44-1.22-2.81-1.25,2.81Z"/><path class="cls-6" d="M109.46,29.79l.19.15a3,3,0,0,1-1,1.11,2.41,2.41,0,0,1-1.26.36,2.17,2.17,0,0,1-1.8-.85,3.14,3.14,0,0,1-.67-2,3.4,3.4,0,0,1,.61-2,2.36,2.36,0,0,1,2-1.05,2.05,2.05,0,0,1,1.38.43,1.27,1.27,0,0,1,.52,1,.74.74,0,0,1-.21.55.73.73,0,0,1-.54.21.78.78,0,0,1-.59-.24,1.35,1.35,0,0,1-.28-.83,1,1,0,0,0-.18-.53.42.42,0,0,0-.32-.15.6.6,0,0,0-.5.3,2.65,2.65,0,0,0-.31,1.42,4.8,4.8,0,0,0,.25,1.52,2.41,2.41,0,0,0,.69,1.08,1.28,1.28,0,0,0,.79.25,1.17,1.17,0,0,0,.55-.13A2.66,2.66,0,0,0,109.46,29.79Z"/><path class="cls-6" d="M114.9,28.23h-3.08a2.86,2.86,0,0,0,.59,1.77,1.27,1.27,0,0,0,1,.5,1.14,1.14,0,0,0,.65-.2,2.52,2.52,0,0,0,.63-.73l.21.13a3.46,3.46,0,0,1-1,1.32,2.18,2.18,0,0,1-1.28.39,2.12,2.12,0,0,1-1.89-1,3.36,3.36,0,0,1-.52-1.92,3.17,3.17,0,0,1,.76-2.24,2.33,2.33,0,0,1,1.78-.83,1.92,1.92,0,0,1,1.48.7A3.14,3.14,0,0,1,114.9,28.23Zm-1.48-.4a5.46,5.46,0,0,0-.11-1.33A1,1,0,0,0,113,26a.48.48,0,0,0-.34-.11.59.59,0,0,0-.51.3,2.62,2.62,0,0,0-.35,1.47v.21Z"/><path class="cls-6" d="M117.6,25.62v4.46a1.39,1.39,0,0,0,.13.76.81.81,0,0,0,.55.19v.21h-3V31a.72.72,0,0,0,.55-.22,1.34,1.34,0,0,0,.12-.73V26.8a1.37,1.37,0,0,0-.13-.76.73.73,0,0,0-.54-.19v-.23Zm-.84-2.72a.87.87,0,0,1,.66.28.89.89,0,0,1,.27.65.87.87,0,0,1-.28.66.93.93,0,0,1-1.31-1.31A.87.87,0,0,1,116.76,22.9Z"/><path class="cls-6" d="M120.85,23.57v2.05h1.34v.6h-1.34v3.47a2.48,2.48,0,0,0,.05.62.42.42,0,0,0,.16.23.32.32,0,0,0,.21.09c.26,0,.51-.2.74-.6l.18.14a1.64,1.64,0,0,1-1.58,1.15,1.4,1.4,0,0,1-.91-.3,1.38,1.38,0,0,1-.47-.66,5.77,5.77,0,0,1-.06-1.11v-3h-.73V26a8.51,8.51,0,0,0,1.29-1.12,7.82,7.82,0,0,0,.93-1.32Z"/><path class="cls-6" d="M127.28,28.23H124.2a2.93,2.93,0,0,0,.6,1.77,1.25,1.25,0,0,0,1,.5,1.19,1.19,0,0,0,.66-.2,2.68,2.68,0,0,0,.63-.73l.2.13a3.37,3.37,0,0,1-1,1.32,2.32,2.32,0,0,1-3.17-.57,3.43,3.43,0,0,1-.51-1.92,3.17,3.17,0,0,1,.76-2.24,2.31,2.31,0,0,1,1.78-.83,1.92,1.92,0,0,1,1.48.7A3.14,3.14,0,0,1,127.28,28.23Zm-1.47-.4a5.46,5.46,0,0,0-.11-1.33,1,1,0,0,0-.33-.54.44.44,0,0,0-.33-.11.59.59,0,0,0-.51.3,2.62,2.62,0,0,0-.36,1.47v.21Z"/><path class="cls-6" d="M130.12,25.62V26.9a4.11,4.11,0,0,1,1-1.16,1.44,1.44,0,0,1,.81-.28.75.75,0,0,1,.54.2.84.84,0,0,1,.2.59.89.89,0,0,1-.2.62.6.6,0,0,1-.47.23.81.81,0,0,1-.55-.21l-.28-.23a.28.28,0,0,0-.13,0,.48.48,0,0,0-.33.13,1.28,1.28,0,0,0-.38.58,4.06,4.06,0,0,0-.19,1.29v1.63a1.41,1.41,0,0,0,0,.44.52.52,0,0,0,.21.23,1.46,1.46,0,0,0,.48.1v.21h-3V31a.63.63,0,0,0,.49-.21,1.78,1.78,0,0,0,.13-.9V26.81a2.38,2.38,0,0,0,0-.61.5.5,0,0,0-.17-.24.84.84,0,0,0-.4-.11v-.23Z"/><path class="cls-6" d="M136.15,30.41a2.93,2.93,0,0,1-1.84.91,1.09,1.09,0,0,1-.8-.32,1.07,1.07,0,0,1-.32-.79,1.57,1.57,0,0,1,.55-1.15,10.81,10.81,0,0,1,2.41-1.37v-.56a2.63,2.63,0,0,0-.07-.81.58.58,0,0,0-.26-.28.71.71,0,0,0-.43-.13,1.08,1.08,0,0,0-.64.18.29.29,0,0,0-.16.25.54.54,0,0,0,.17.31.78.78,0,0,1,.23.5.65.65,0,0,1-.22.5.8.8,0,0,1-.57.21.93.93,0,0,1-.64-.23.69.69,0,0,1-.25-.53,1.24,1.24,0,0,1,.34-.83,2.22,2.22,0,0,1,.95-.6,4,4,0,0,1,1.28-.21,2.07,2.07,0,0,1,1.26.34,1.64,1.64,0,0,1,.61.73,5.26,5.26,0,0,1,.08,1.16v2.18a2.34,2.34,0,0,0,0,.49.28.28,0,0,0,.09.14.24.24,0,0,0,.14.05.44.44,0,0,0,.32-.22l.18.14a2.29,2.29,0,0,1-.62.65,1.4,1.4,0,0,1-.73.2,1.15,1.15,0,0,1-.76-.23A1,1,0,0,1,136.15,30.41Zm0-.44V28.09a3.62,3.62,0,0,0-1.08.92,1.12,1.12,0,0,0-.23.65.66.66,0,0,0,.2.49.54.54,0,0,0,.42.16A1.11,1.11,0,0,0,136.15,30Z"/><path class="cls-6" d="M65.7,37.91v4.58h.22a1.78,1.78,0,0,0,1.55-.67,4.17,4.17,0,0,0,.62-2h.31v5.89h-.31a4.46,4.46,0,0,0-.42-1.57,1.8,1.8,0,0,0-.74-.83,2.87,2.87,0,0,0-1.23-.21v3.17a4.68,4.68,0,0,0,.08,1.13.68.68,0,0,0,.29.34,1.4,1.4,0,0,0,.7.13h.67a3.64,3.64,0,0,0,3.89-3h.31l-.51,3.58H61.41V48.2h.38a1.61,1.61,0,0,0,.78-.17.76.76,0,0,0,.34-.4A3.51,3.51,0,0,0,63,46.58V39.19a7.3,7.3,0,0,0,0-.94.85.85,0,0,0-.31-.45,1.46,1.46,0,0,0-.86-.23h-.38v-.31h9.41v3.33h-.31a4,4,0,0,0-.68-1.75,2.57,2.57,0,0,0-1.23-.78,6.63,6.63,0,0,0-1.74-.15Z"/><path class="cls-6" d="M75.73,37.26V46.9A2,2,0,0,0,75.92,48a1.05,1.05,0,0,0,.75.26v.3H72.48v-.3a1,1,0,0,0,.77-.3,1.89,1.89,0,0,0,.16-1v-8a1.8,1.8,0,0,0-.19-1,1,1,0,0,0-.74-.26v-.31Z"/><path class="cls-6" d="M116.24,63.4h-6.48A6.16,6.16,0,0,0,111,67.11a2.64,2.64,0,0,0,2.1,1,2.38,2.38,0,0,0,1.37-.42,5.36,5.36,0,0,0,1.33-1.52l.43.28a7.15,7.15,0,0,1-2.12,2.76,4.53,4.53,0,0,1-2.69.82,4.45,4.45,0,0,1-4-2,7.08,7.08,0,0,1-1.09-4,6.68,6.68,0,0,1,1.6-4.7,4.92,4.92,0,0,1,3.74-1.74,4.06,4.06,0,0,1,3.11,1.47A6.7,6.7,0,0,1,116.24,63.4Zm-3.11-.84a11.51,11.51,0,0,0-.22-2.79,2.27,2.27,0,0,0-.69-1.15,1,1,0,0,0-.7-.22,1.22,1.22,0,0,0-1.07.64,5.48,5.48,0,0,0-.75,3.08v.44Z"/><path class="cls-6" d="M124.45,68a6.19,6.19,0,0,1-3.87,1.91,2.31,2.31,0,0,1-1.68-.66,2.27,2.27,0,0,1-.67-1.66,3.24,3.24,0,0,1,1.17-2.43,21.77,21.77,0,0,1,5-2.87V61.08a5.66,5.66,0,0,0-.14-1.68,1.43,1.43,0,0,0-.55-.61,1.67,1.67,0,0,0-.91-.26,2.39,2.39,0,0,0-1.35.37.65.65,0,0,0-.33.53,1.09,1.09,0,0,0,.36.66,1.61,1.61,0,0,1,.48,1,1.42,1.42,0,0,1-.46,1.06,1.69,1.69,0,0,1-1.21.43,1.92,1.92,0,0,1-1.33-.48,1.45,1.45,0,0,1-.54-1.12,2.63,2.63,0,0,1,.72-1.74,4.51,4.51,0,0,1,2-1.26,8,8,0,0,1,2.67-.44,4.4,4.4,0,0,1,2.66.71,3.39,3.39,0,0,1,1.27,1.54,10.11,10.11,0,0,1,.17,2.44v4.58a4.57,4.57,0,0,0,.07,1,.53.53,0,0,0,.19.31.43.43,0,0,0,.29.1c.22,0,.44-.15.67-.46l.37.3a4.74,4.74,0,0,1-1.3,1.36,2.84,2.84,0,0,1-1.53.42,2.42,2.42,0,0,1-1.58-.47A2.2,2.2,0,0,1,124.45,68Zm0-.92v-4A7.57,7.57,0,0,0,122.18,65a2.4,2.4,0,0,0-.49,1.38,1.46,1.46,0,0,0,.42,1,1.12,1.12,0,0,0,.88.34A2.42,2.42,0,0,0,124.45,67.06Z"/><path class="cls-6" d="M135.71,52.62V67.28a2.82,2.82,0,0,0,.29,1.59,1.6,1.6,0,0,0,1.14.4v.45h-6.37v-.45a1.57,1.57,0,0,0,1.16-.45,2.83,2.83,0,0,0,.25-1.54V55.06a2.8,2.8,0,0,0-.29-1.58,1.58,1.58,0,0,0-1.12-.4v-.46Z"/><path class="cls-6" d="M86.66,59v6.58A7,7,0,0,0,86.9,68a1.71,1.71,0,0,0,.82.79,5.47,5.47,0,0,0,2.2.29v.64h-12v-.64a5.48,5.48,0,0,0,2.21-.3,1.77,1.77,0,0,0,.81-.79,7.3,7.3,0,0,0,.23-2.38V50.38a7.49,7.49,0,0,0-.23-2.4,1.73,1.73,0,0,0-.82-.78,5.49,5.49,0,0,0-2.2-.3v-.64h10.9a21.17,21.17,0,0,1,5.91.59A6.32,6.32,0,0,1,97.94,49a5.85,5.85,0,0,1,1.24,3.71A5.56,5.56,0,0,1,97.31,57,7.66,7.66,0,0,1,94,58.63l5.64,7.95a12.77,12.77,0,0,0,1.58,1.92,2.93,2.93,0,0,0,1.64.58v.64H95.44L87.08,59Zm0-11.5V57.8h1a8.86,8.86,0,0,0,3.28-.44,3.59,3.59,0,0,0,1.88-1.59,5.9,5.9,0,0,0,.68-3,5.48,5.48,0,0,0-1.25-4,4.66,4.66,0,0,0-3.72-1.28Z"/></g></svg>