<svg xmlns="http://www.w3.org/2000/svg" viewBox="0 0 202.15 202.14"><defs><style>.cls-1{isolation:isolate;}.cls-2{fill:#fff;}.cls-3{fill:#b9c800;}.cls-4{fill:#8acdde;mix-blend-mode:multiply;}</style></defs><title>delpin-icon</title><g class="cls-1"><g id="iconos"><path id="icono_cyan" data-name="icono cyan" class="cls-2" d="M81.15,118.26a4.33,4.33,0,0,1,4.33-4.33h70.25a9.8,9.8,0,1,0,0-19.6h-.09a9.82,9.82,0,0,0-6.21,2.39c-1.49,1.48-2.24,3.74-2.24,6.71a4.34,4.34,0,0,1-8.67,0c0-5.43,1.64-9.79,4.9-13a18.44,18.44,0,1,1,12.31,32.14H85.48A4.33,4.33,0,0,1,81.15,118.26Zm4.33-12.65H119a18.47,18.47,0,1,0-12.32-32.13c-3.25,3.17-4.9,7.53-4.9,13a4.34,4.34,0,1,0,8.67,0c0-3,.75-5.22,2.24-6.7a9.84,9.84,0,0,1,6.22-2.39H119a9.8,9.8,0,1,1,0,19.6H85.48a4.34,4.34,0,0,0,0,8.67Zm70.25,24.46H85.48a4.34,4.34,0,0,0,0,8.67h70.25a9.8,9.8,0,1,1,0,19.6h-.09a9.75,9.75,0,0,1-6.21-2.39c-1.49-1.48-2.24-3.73-2.24-6.7a4.34,4.34,0,1,0-8.67,0c0,5.42,1.65,9.78,4.9,12.95A18.27,18.27,0,0,0,155.63,167h.15a18.47,18.47,0,0,0-.05-36.94Z"/><path id="icono_verde" data-name="icono verde" class="cls-3" d="M130.83,104.16v23.92H98.53v.42A5.58,5.58,0,0,1,93,134.07H65.81a5.57,5.57,0,0,1-5.56-5.57v-.42H28V104.16h32.3v-.42a5.56,5.56,0,0,1,5.56-5.56H93a5.57,5.57,0,0,1,5.56,5.56v.42ZM53.07,61.45A26.32,26.32,0,1,1,87.24,86.57l2.91-.89v12.5H68.62V85.68l2.92.89A26.37,26.37,0,0,1,53.07,61.45ZM71.71,86.62l.1,0-.19-.05Zm10.11-8.43a2.4,2.4,0,0,0-2.4-2.39h0a2.4,2.4,0,0,0,0,4.79h0A2.4,2.4,0,0,0,81.82,78.19Zm-.68,9.51.43,0Zm-3.93,0,.43,0Zm-3.47-.52-.35-.08Zm1.88.34-.15,0Zm11.53-.89-.18.05.09,0Zm-3.84.87-.15,0Zm2.07-.4-.35.08Zm8.36-25.65A2.4,2.4,0,1,0,96.13,59,2.4,2.4,0,0,0,93.74,61.42Zm-.8,10.15a2.39,2.39,0,1,0-1.69,4.09,2.4,2.4,0,0,0,1.69-4.09ZM89.31,48.15,77.7,59.76a2.39,2.39,0,0,0,3.38,3.38L92.87,51.35a2.28,2.28,0,0,0,.45-.63,2.4,2.4,0,0,0-.42-2.82h0a2.4,2.4,0,0,0-3.39,0A1.59,1.59,0,0,0,89.31,48.15ZM77,44.7a2.39,2.39,0,1,0,2.39-2.39A2.39,2.39,0,0,0,77,44.7ZM69.25,71.6a2.39,2.39,0,1,0,0,3.38A2.39,2.39,0,0,0,69.25,71.6Zm-3.4-20.29a2.39,2.39,0,1,0,0-3.38A2.38,2.38,0,0,0,65.85,51.31Zm-5.6,10.15a2.39,2.39,0,1,0,2.39-2.39A2.39,2.39,0,0,0,60.25,61.46Z"/><path id="icono_cyan-2" data-name="icono cyan" class="cls-4" d="M81.15,118.26a4.33,4.33,0,0,1,4.33-4.33h70.25a9.8,9.8,0,1,0,0-19.6h-.09a9.82,9.82,0,0,0-6.21,2.39c-1.49,1.48-2.24,3.74-2.24,6.71a4.34,4.34,0,0,1-8.67,0c0-5.43,1.64-9.79,4.9-13a18.44,18.44,0,1,1,12.31,32.14H85.48A4.33,4.33,0,0,1,81.15,118.26Zm4.33-12.65H119a18.47,18.47,0,1,0-12.32-32.13c-3.25,3.17-4.9,7.53-4.9,13a4.34,4.34,0,1,0,8.67,0c0-3,.75-5.22,2.24-6.7a9.84,9.84,0,0,1,6.22-2.39H119a9.8,9.8,0,1,1,0,19.6H85.48a4.34,4.34,0,0,0,0,8.67Zm70.25,24.46H85.48a4.34,4.34,0,0,0,0,8.67h70.25a9.8,9.8,0,1,1,0,19.6h-.09a9.75,9.75,0,0,1-6.21-2.39c-1.49-1.48-2.24-3.73-2.24-6.7a4.34,4.34,0,1,0-8.67,0c0,5.42,1.65,9.78,4.9,12.95A18.27,18.27,0,0,0,155.63,167h.15a18.47,18.47,0,0,0-.05-36.94Z"/></g></g></svg>