<svg id="LAGEO" xmlns="http://www.w3.org/2000/svg" xmlns:xlink="http://www.w3.org/1999/xlink" viewBox="0 0 200 100"><defs><style>.cls-1{fill:#34473d;}.cls-2{fill:url(#linear-gradient);}.cls-3{fill:url(#linear-gradient-2);}</style><linearGradient id="linear-gradient" x1="85.05" y1="40.91" x2="161.71" y2="40.91" gradientUnits="userSpaceOnUse"><stop offset="0.02" stop-color="#5d6c64"/><stop offset="0.15" stop-color="#7e8a84"/><stop offset="0.28" stop-color="#98a29d"/><stop offset="0.4" stop-color="#a8b0ac"/><stop offset="0.49" stop-color="#aeb5b1"/><stop offset="0.58" stop-color="#a9b0ac"/><stop offset="0.69" stop-color="#9aa39e"/><stop offset="0.81" stop-color="#818c86"/><stop offset="0.94" stop-color="#5e6d65"/><stop offset="0.95" stop-color="#5d6c64"/></linearGradient><linearGradient id="linear-gradient-2" x1="32.63" y1="52.36" x2="89.47" y2="38.18" gradientUnits="userSpaceOnUse"><stop offset="0.08" stop-color="#5d6c64"/><stop offset="0.23" stop-color="#78847e"/><stop offset="0.47" stop-color="#9fa8a3"/><stop offset="0.59" stop-color="#aeb5b1"/><stop offset="0.71" stop-color="#abb3af"/><stop offset="0.78" stop-color="#a3aba7"/><stop offset="0.83" stop-color="#959e99"/><stop offset="0.88" stop-color="#808c86"/><stop offset="0.93" stop-color="#66746d"/><stop offset="0.94" stop-color="#5d6c64"/></linearGradient></defs><path class="cls-1" d="M47.63,53.4h2l5.54,14.39H52.48L51.16,64H46l-1.36,3.76h-2.5Zm2.87,8.76q-.68-1.92-1.17-3.48c-.32-1-.57-1.86-.74-2.45l-.79,2.51c-.32,1-.71,2.17-1.15,3.42Z"/><path class="cls-1" d="M57,67.2a2.53,2.53,0,0,1-.58-1.71V52.81l2.43-.45v12.9a.94.94,0,0,0,.19.68.74.74,0,0,0,.55.19l.41,0a3.79,3.79,0,0,0,.38-.06l.34-.09L61,67.49a6.34,6.34,0,0,1-.61.19,5.08,5.08,0,0,1-.7.14,8.36,8.36,0,0,1-.92.05A2.21,2.21,0,0,1,57,67.2Z"/><path class="cls-1" d="M70.94,62.67a11.56,11.56,0,0,0,.16,2.13,8,8,0,0,0,.35,1.39,3.43,3.43,0,0,0,.51,1L70.07,68a3.4,3.4,0,0,1-.51-.66,4.9,4.9,0,0,1-.36-.82A4,4,0,0,1,69,65.34a3.64,3.64,0,0,1-1.16,1.93,3.32,3.32,0,0,1-2.15.64,3.74,3.74,0,0,1-1.73-.37,3.19,3.19,0,0,1-1.22-1.06A4.81,4.81,0,0,1,62,64.81a9.61,9.61,0,0,1-.23-2.16,6.56,6.56,0,0,1,.37-2.25,5.55,5.55,0,0,1,1-1.77A4.83,4.83,0,0,1,66.84,57a10.22,10.22,0,0,1,1.32.09l1.29.2c.4.08.73.14,1,.21l.48.11Zm-3.89,3.18a3,3,0,0,0,.77-.94,5.19,5.19,0,0,0,.51-1.34A6.13,6.13,0,0,0,68.52,62V59l-.64-.15a4.58,4.58,0,0,0-.77-.08,2.81,2.81,0,0,0-1.32.27,2.23,2.23,0,0,0-.84.77A3.08,3.08,0,0,0,64.5,61a8.49,8.49,0,0,0-.13,1.48c0,.5,0,1,0,1.43a4.42,4.42,0,0,0,.22,1.21,2,2,0,0,0,.52.84,1.34,1.34,0,0,0,.91.31A1.48,1.48,0,0,0,67.05,65.85Z"/><path class="cls-1" d="M77,57a5.47,5.47,0,0,1,1.21.13,6.42,6.42,0,0,1,1.06.3,9.87,9.87,0,0,1,1,.4l-.72,1.66c-.28-.13-.57-.24-.85-.34s-.51-.17-.8-.25a3.62,3.62,0,0,0-.86-.11,1.47,1.47,0,0,0-.84.23.8.8,0,0,0-.35.7q0,1.21,1.77,1.89a11.1,11.1,0,0,1,1.19.54,4.22,4.22,0,0,1,.9.67,2.44,2.44,0,0,1,.56.89,3.19,3.19,0,0,1,.19,1.17A3,3,0,0,1,80.19,66a2.79,2.79,0,0,1-.72,1,3.43,3.43,0,0,1-1.17.71,4.25,4.25,0,0,1-1.56.27,5.79,5.79,0,0,1-1.38-.16,12.41,12.41,0,0,1-1.23-.35,8,8,0,0,1-.86-.36L73,67l.78-1.78.28.14a5.48,5.48,0,0,0,.7.37c.28.12.59.24.91.35a3.17,3.17,0,0,0,.89.16,1.71,1.71,0,0,0,1.11-.3,1,1,0,0,0,.36-.79,1.53,1.53,0,0,0-.39-1,2.93,2.93,0,0,0-1.18-.75A6.11,6.11,0,0,1,74.07,62a3,3,0,0,1-.71-2,2.4,2.4,0,0,1,.28-1.14,3.13,3.13,0,0,1,.75-1,3.52,3.52,0,0,1,1.14-.64A4.11,4.11,0,0,1,77,57Z"/><path class="cls-1" d="M88.19,53.4h4.16c2.41,0,4.19.6,5.36,1.8a7.38,7.38,0,0,1,1.74,5.34,7.62,7.62,0,0,1-1.79,5.44q-1.78,1.89-5.58,1.89H88.19Zm3,1.86h-.52V65.92l.6,0h1.07a4,4,0,0,0,3.28-1.31,6.19,6.19,0,0,0,1-3.9,9.2,9.2,0,0,0-.25-2.24,4.53,4.53,0,0,0-.8-1.73,3.73,3.73,0,0,0-1.45-1.11,5.18,5.18,0,0,0-2.16-.4Z"/><path class="cls-1" d="M109.54,58.4a6.35,6.35,0,0,1,1.1,4,7.94,7.94,0,0,1-.29,2.22,4.92,4.92,0,0,1-.91,1.78,4.21,4.21,0,0,1-1.51,1.19,4.91,4.91,0,0,1-2.13.44,5.31,5.31,0,0,1-2.09-.37,3.77,3.77,0,0,1-1.46-1.07,4.59,4.59,0,0,1-.84-1.7,9.17,9.17,0,0,1-.26-2.26,8,8,0,0,1,.3-2.24,4.83,4.83,0,0,1,.9-1.78,4.27,4.27,0,0,1,1.52-1.19A4.86,4.86,0,0,1,106,57,4.17,4.17,0,0,1,109.54,58.4Zm-4.77.61a1.94,1.94,0,0,0-.62.78,4.16,4.16,0,0,0-.3,1.17,10.65,10.65,0,0,0-.09,1.43,10.07,10.07,0,0,0,.1,1.49,3.88,3.88,0,0,0,.35,1.22,2.07,2.07,0,0,0,.69.82,1.91,1.91,0,0,0,1.11.3,1.75,1.75,0,0,0,1-.28,1.81,1.81,0,0,0,.62-.78A4.1,4.1,0,0,0,108,64a12.7,12.7,0,0,0,.08-1.43,11.54,11.54,0,0,0-.09-1.48,4.4,4.4,0,0,0-.35-1.24,2.12,2.12,0,0,0-.7-.83,2,2,0,0,0-1.11-.29A1.75,1.75,0,0,0,104.77,59Z"/><path class="cls-1" d="M116.78,59.61a2.42,2.42,0,0,0-.68.52,2.86,2.86,0,0,0-.68,1.84v5.82H113V62.43a10.66,10.66,0,0,0-.17-2.13,8.82,8.82,0,0,0-.36-1.39,3.87,3.87,0,0,0-.51-1l1.91-.77a5.2,5.2,0,0,1,.41.58c.11.2.22.43.34.7a5.15,5.15,0,0,1,.27.95,3.39,3.39,0,0,1,1.24-1.77,3.17,3.17,0,0,1,1.82-.54,3.41,3.41,0,0,1,.92.12l.4.11-.68,2.36-.24-.12a2.32,2.32,0,0,0-.8-.11A1.68,1.68,0,0,0,116.78,59.61Z"/><path class="cls-1" d="M128.6,62.67a11.56,11.56,0,0,0,.16,2.13,8,8,0,0,0,.35,1.39,3.43,3.43,0,0,0,.51,1l-1.89.77a3.4,3.4,0,0,1-.51-.66,5.83,5.83,0,0,1-.37-.82,4.46,4.46,0,0,1-.21-1.14,3.64,3.64,0,0,1-1.16,1.93,3.32,3.32,0,0,1-2.15.64,3.71,3.71,0,0,1-1.73-.37,3.29,3.29,0,0,1-1.23-1.06,5,5,0,0,1-.72-1.67,9.61,9.61,0,0,1-.23-2.16,6.56,6.56,0,0,1,.37-2.25,5.55,5.55,0,0,1,1-1.77A4.83,4.83,0,0,1,124.5,57a10.22,10.22,0,0,1,1.32.09l1.29.2c.4.08.73.14,1,.21l.48.11Zm-3.89,3.18a3.16,3.16,0,0,0,.77-.94,5.19,5.19,0,0,0,.51-1.34,6.62,6.62,0,0,0,.18-1.54V59l-.63-.15a4.58,4.58,0,0,0-.77-.08,2.89,2.89,0,0,0-1.33.27,2.27,2.27,0,0,0-.83.77,2.92,2.92,0,0,0-.45,1.17,7.62,7.62,0,0,0-.13,1.48c0,.5,0,1,0,1.43a4.82,4.82,0,0,0,.23,1.21,2,2,0,0,0,.52.84,1.32,1.32,0,0,0,.91.31A1.48,1.48,0,0,0,124.71,65.85Z"/><path class="cls-1" d="M139.16,68a1.13,1.13,0,0,1-.2-.2,5,5,0,0,1-.32-.5,5.1,5.1,0,0,1-.36-.8,4.38,4.38,0,0,1-.21-1.12,3.64,3.64,0,0,1-1.16,1.93,3.32,3.32,0,0,1-2.15.64,3.71,3.71,0,0,1-1.73-.37,3.29,3.29,0,0,1-1.23-1.06,5,5,0,0,1-.72-1.67,9.61,9.61,0,0,1-.23-2.16,6.56,6.56,0,0,1,.37-2.25,5.55,5.55,0,0,1,1-1.77A4.83,4.83,0,0,1,135.93,57a7.83,7.83,0,0,1,.81,0c.29,0,.58.06.86.11V52.38l2.43.43v9.86a12.3,12.3,0,0,0,.15,2.11,7.24,7.24,0,0,0,.34,1.36,3.25,3.25,0,0,0,.35.76c.1.15.16.25.18.29Zm-3-2.13a3.16,3.16,0,0,0,.77-.94,5.11,5.11,0,0,0,.51-1.33A6.53,6.53,0,0,0,137.6,62V59l-.63-.15a4.58,4.58,0,0,0-.77-.08,2.89,2.89,0,0,0-1.33.27,2.27,2.27,0,0,0-.83.77,2.92,2.92,0,0,0-.45,1.17,7.62,7.62,0,0,0-.13,1.48c0,.5,0,1,0,1.43a4.65,4.65,0,0,0,.23,1.2,2,2,0,0,0,.52.83,1.31,1.31,0,0,0,.91.3A1.52,1.52,0,0,0,136.14,65.83Z"/><path class="cls-1" d="M151.46,62.67a11.56,11.56,0,0,0,.16,2.13,8,8,0,0,0,.35,1.39,3.43,3.43,0,0,0,.51,1l-1.89.77a3.4,3.4,0,0,1-.51-.66,5.83,5.83,0,0,1-.37-.82,4.46,4.46,0,0,1-.21-1.14,3.64,3.64,0,0,1-1.16,1.93,3.32,3.32,0,0,1-2.15.64,3.71,3.71,0,0,1-1.73-.37,3.29,3.29,0,0,1-1.23-1.06,5,5,0,0,1-.72-1.67,9.61,9.61,0,0,1-.23-2.16,6.56,6.56,0,0,1,.37-2.25,5.55,5.55,0,0,1,1-1.77A4.83,4.83,0,0,1,147.36,57a10.22,10.22,0,0,1,1.32.09l1.29.2c.4.08.73.14,1,.21l.48.11Zm-3.89,3.18a3.16,3.16,0,0,0,.77-.94,5.19,5.19,0,0,0,.51-1.34A6.62,6.62,0,0,0,149,62V59l-.63-.15a4.58,4.58,0,0,0-.77-.08,2.89,2.89,0,0,0-1.33.27,2.27,2.27,0,0,0-.83.77A2.92,2.92,0,0,0,145,61a7.62,7.62,0,0,0-.13,1.48c0,.5,0,1,0,1.43a4.82,4.82,0,0,0,.23,1.21,2,2,0,0,0,.52.84,1.32,1.32,0,0,0,.91.31A1.48,1.48,0,0,0,147.57,65.85Z"/><path class="cls-1" d="M157.47,57a5.47,5.47,0,0,1,1.21.13,6.42,6.42,0,0,1,1.06.3,9.87,9.87,0,0,1,1,.4L160,59.44c-.28-.13-.57-.24-.85-.34s-.51-.17-.8-.25a3.62,3.62,0,0,0-.86-.11,1.47,1.47,0,0,0-.84.23.8.8,0,0,0-.35.7q0,1.21,1.77,1.89a11.1,11.1,0,0,1,1.19.54,4.22,4.22,0,0,1,.9.67,2.58,2.58,0,0,1,.56.89,3.19,3.19,0,0,1,.19,1.17,3,3,0,0,1-.24,1.17,2.79,2.79,0,0,1-.72,1,3.43,3.43,0,0,1-1.17.71,4.25,4.25,0,0,1-1.56.27,5.79,5.79,0,0,1-1.38-.16,12.41,12.41,0,0,1-1.23-.35,8,8,0,0,1-.86-.36l-.32-.15.79-1.78.28.14a4.87,4.87,0,0,0,.7.37c.28.12.59.24.91.35a3.11,3.11,0,0,0,.89.16,1.71,1.71,0,0,0,1.11-.3,1,1,0,0,0,.36-.79,1.53,1.53,0,0,0-.39-1,3,3,0,0,0-1.18-.75,6,6,0,0,1-2.35-1.4,3,3,0,0,1-.71-2,2.52,2.52,0,0,1,.27-1.14,3.32,3.32,0,0,1,.76-1,3.52,3.52,0,0,1,1.14-.64A4.07,4.07,0,0,1,157.47,57Z"/><path class="cls-2" d="M85.76,49.58s1.92-10,22.27-9.76c16.49.18,20.52,6.81,33,6.56,12.11-.25,19.07-11.08,20.62-13.78a.23.23,0,0,0-.34-.3,6.47,6.47,0,0,0-.64.53c-2.55,2.41-7.87,7.46-19.64,7-11.43-.46-15.6-6-31-5.81-18.56.22-23.62,9.76-25,12Z"/><path class="cls-3" d="M38.29,53.84l4.73-9C46,41.72,57.05,32,69.65,32S85.47,41.36,86,46.57s-2.4,4.94-2.4,4.94S85,40.19,77.61,38.6,52.4,42.37,38.29,53.84Z"/></svg>