<svg id="Real" xmlns="http://www.w3.org/2000/svg" viewBox="0 0 200 100"><defs><style>.cls-1{fill:#34473d;}</style></defs><title>LOGOS_cliente-nuevos</title><path class="cls-1" d="M83.82,35.65l.33,0H90a.83.83,0,0,0,.65-.26l6.22-6.23L100,26.05c.13-.14.2-.33.47-.34a.77.77,0,0,1,.61.31c.71.74,1.45,1.46,2.18,2.18l3.15,3.17,4.19,4.18a.66.66,0,0,0,.43.11h6.33a4.61,4.61,0,0,0-.28-.39l-4.79-4.79a.26.26,0,0,0-.41,0c-.7.7-1.4,1.4-2.09,2.11a.22.22,0,0,1-.37,0c-.61-.62-1.21-1.24-1.82-1.85a.75.75,0,0,0-.17-.14.24.24,0,0,1,0-.39c1-1,2-1.95,3-2.94.49-.49.94-1,1.46-1.48a.62.62,0,0,1,.59,0c.93.9,1.83,1.84,2.74,2.76l5.49,5.51,2.7,2.7a1.46,1.46,0,0,0,.24.17.22.22,0,0,1,0,.36L121,39.91l-3,3-2.62,2.62-2.6,2.59-.5.51a.22.22,0,0,1-.38,0l-3.18-3.21L105,41.77l-3-3a.74.74,0,0,0-.61-.23c-.65,0-1.3,0-1.95,0H96.12c-.21,0-.42,0-.62,0s-.2,0-.21.08a.29.29,0,0,0,.08.23l2,2c1,1,1.91,1.91,2.86,2.87.28.29.32.28.6,0,.64-.66,1.29-1.32,1.94-2,.16-.16.32-.14.5,0l1.84,1.86.09.08c.24.21.22.25,0,.46-.43.39-.83.8-1.23,1.2l-3.21,3.24c-.16.16-.28.15-.47,0l-3.82-3.86c-.5-.5-1-1-1.48-1.51a.25.25,0,0,0-.4,0l-2.7,2.71-2.59,2.6-.14.15a.22.22,0,0,1-.34,0L84,43.8l-4.06-4L77.58,37.4c-.28-.29-.26-.27.07-.54a12.6,12.6,0,0,0,.91-.88l3.91-3.92,4.12-4.15c.64-.64,1.29-1.28,1.92-1.93a.67.67,0,0,1,.48-.27c.27,0,.35.19.49.32.63.63,1.26,1.27,1.9,1.9l2.3,2.27a.25.25,0,0,1,0,.41l-2,2c-.18.19-.24.19-.43,0-.69-.7-1.37-1.39-2.07-2.07a.27.27,0,0,0-.43,0l-4.61,4.63c-.13.13-.25.28-.37.42Zm23,3,0,.07.4.37,2.15,2.16c.86.86,1.71,1.74,2.57,2.61.12.12.22.09.34,0L117,39.08c.14-.13.27-.27.45-.45Zm-11.55-3,.61,0h9.2l.5,0a.64.64,0,0,0,.17-.05s0-.11-.08-.14l-1-1-3.82-3.82c-.22-.23-.29-.23-.51,0-.64.65-1.28,1.3-1.93,1.94l-3,2.93A1.67,1.67,0,0,0,95.29,35.67Zm-11.63,3c.09.11.14.18.2.24l1,1,3.93,3.95a.21.21,0,0,0,.34,0L92,41c.33-.34.33-.33,0-.67-.53-.51-1-1-1.57-1.53a.65.65,0,0,0-.4-.14l-6.08,0Z"/><path class="cls-1" d="M100.83,66.68h-33a.5.5,0,0,1-.22,0,.37.37,0,0,1-.15-.23c0-.07.09-.16.16-.2a.59.59,0,0,1,.27,0H134c.13,0,.24.07.23.23a.24.24,0,0,1-.26.24c-.15,0-.29,0-.43,0Z"/><path class="cls-1" d="M120.63,60.07v-.31c0-1.83,0-3.67,0-5.51,0-.22.09-.28.3-.29.62,0,.62,0,.62.6,0,2.26,0,4.52,0,6.78,0,.14-.07.38-.14.4a.84.84,0,0,1-.59-.06,3,3,0,0,1-.57-.61l-1.59-2-2-2.51c-.18-.24-.35-.48-.55-.71,0-.06-.16-.08-.25-.12a1.13,1.13,0,0,0-.08.24c0,1.81,0,3.62,0,5.44,0,.12-.05.33-.11.34a2.23,2.23,0,0,1-.63,0s-.07-.19-.07-.3V54.7c0-.17,0-.33,0-.5s.08-.24.25-.25a.62.62,0,0,1,.61.29c.37.52.8,1,1.2,1.52l1.43,1.81c.58.72,1.15,1.45,1.72,2.18l.32.4Z"/><path class="cls-1" d="M129.7,59.81v1.62c0,.32,0,.36-.42.36s-.37-.07-.36-.36c0-.13,0-.25,0-.38s-.1-.21-.25-.14a.57.57,0,0,0-.15.12,3.41,3.41,0,0,1-1.13.64,2.83,2.83,0,0,1-1.15.14,3.53,3.53,0,0,1-2.29-1.2,4.15,4.15,0,0,1-1-2,3.77,3.77,0,0,1,.08-1.94,4.14,4.14,0,0,1,.52-1.15,4.27,4.27,0,0,1,.89-1,3.55,3.55,0,0,1,1.1-.59,4.4,4.4,0,0,1,1.21-.11,3,3,0,0,1,2.17.94c.18.18.33.39.49.58,0,0,0,0,0,0s0,.31-.14.32-.34.52-.59.08a2.09,2.09,0,0,0-1-.9,2.94,2.94,0,0,0-2.08-.17,2.21,2.21,0,0,0-1.24.9,3.53,3.53,0,0,0-.67,2.66,3.21,3.21,0,0,0,1,1.94,2.66,2.66,0,0,0,2.45.71,3.12,3.12,0,0,0,1.69-1.07.59.59,0,0,0,.09-.3c0-.26,0-.53,0-.79s-.07-.31-.32-.31-.74,0-1.12,0c-.19,0-.27-.07-.26-.26s0-.41.24-.42h1.87c.28,0,.34.06.34.33v1.62Z"/><path class="cls-1" d="M94.66,61.79H92.39c-.33,0-.39-.08-.36-.4a2.44,2.44,0,0,0,0-.27V54.51c0-.56,0-.55.56-.55h4.24c.4,0,.43,0,.42.42s-.1.36-.39.36H93.25c-.36,0-.39,0-.37.42a16.83,16.83,0,0,1,0,1.74c0,.39,0,.47.42.47h3c.11,0,.29.07.3.14a1.37,1.37,0,0,1,0,.53s-.16.07-.25.07l-3.09,0c-.36,0-.4.07-.39.42,0,.69,0,1.38,0,2.06,0,.38,0,.44.39.44,1.22,0,2.44,0,3.66,0,.12,0,.32.07.33.13a1.9,1.9,0,0,1,0,.58s-.16.05-.25.05Z"/><path class="cls-1" d="M131.2,57.85V54.31c0-.34,0-.35.35-.35H136c.31,0,.33,0,.34.34s-.06.44-.35.44h-3.74c-.23,0-.28.1-.28.3,0,.65,0,1.3,0,1.94,0,.35,0,.39.37.39h3.09a.41.41,0,0,1,.35.64.42.42,0,0,1-.3.1c-1,0-2.08,0-3.12,0-.37,0-.4,0-.39.42,0,.73,0,1.45,0,2.17,0,.26,0,.33.31.33h3.79a.4.4,0,0,1,.38.63.39.39,0,0,1-.29.14h-4.64c-.34,0-.36,0-.36-.37Z"/><path class="cls-1" d="M113.48,61.79c-.41,0-.43,0-.59-.45s-.36-.82-.53-1.23c-.09-.19-.13-.4-.23-.57a.39.39,0,0,0-.28-.19h-3a.33.33,0,0,0-.26.14c-.1.23-.17.49-.26.74s-.15.36-.23.53-.25.59-.4.88a.37.37,0,0,1-.2.14,2.08,2.08,0,0,1-.35,0c-.3,0-.36-.07-.25-.34.19-.44.41-.86.59-1.3s.33-.86.5-1.29c.08-.2.18-.4.26-.6.2-.46.39-.92.58-1.38s.33-.77.49-1.15.37-.86.53-1.3.26-.5.65-.48a.34.34,0,0,1,.35.28c.15.43.36.83.54,1.25.09.21.17.42.25.62.23.58.45,1.16.69,1.73.31.75.65,1.49,1,2.24.17.39.31.8.47,1.21,0,0,.06.08.08.12s.09.2.07.29-.16.07-.25.09A.37.37,0,0,1,113.48,61.79Zm-3-3.14v0h1c.28,0,.32-.06.22-.3-.16-.42-.33-.84-.5-1.26-.07-.2-.16-.4-.23-.6l-.39-1a1,1,0,0,0-.11-.24.16.16,0,0,0-.29,0c-.13.34-.26.67-.4,1-.27.66-.54,1.32-.82,2-.11.24,0,.38.21.38Z"/><path class="cls-1" d="M98.68,57.85V54.29c0-.31,0-.33.32-.34.56,0,.55,0,.55.56v5.68c0,.16,0,.33,0,.49s0,.34.29.34h3.72a.43.43,0,0,1,.41.68.35.35,0,0,1-.25.09H99.05c-.33,0-.37,0-.37-.37Z"/><path class="cls-1" d="M64.67,59.87c0,.52,0,1,0,1.57a.43.43,0,0,1-.11.32c-.15.11-.33,0-.34-.21s0-.35,0-.52a1,1,0,0,0-.08-.29.68.68,0,0,0-.29.11,3.12,3.12,0,0,1-2.82.93,3.18,3.18,0,0,1-1.95-1.1,11.13,11.13,0,0,1-.89-1.27.8.8,0,0,1-.09-.43c0-.78,0-1.55,0-2.32a1.66,1.66,0,0,1,.3-.8,4.43,4.43,0,0,1,.78-1,3.38,3.38,0,0,1,2.88-.89,3,3,0,0,1,1.83.88,4.72,4.72,0,0,1,.52.66.29.29,0,0,1-.07.26.32.32,0,0,1-.27,0c-.08,0-.13-.14-.19-.22a2.48,2.48,0,0,0-1.31-1,3.28,3.28,0,0,0-1.2-.16A2.83,2.83,0,0,0,59,55.67a3.79,3.79,0,0,0-.55,3.06,3.15,3.15,0,0,0,1.4,2.08,3,3,0,0,0,2.38.46A3.36,3.36,0,0,0,64.17,60a.53.53,0,0,0,.07-.31c0-.33,0-.66,0-1s0-.35-.33-.35H62.75c-.16,0-.34,0-.34-.23s.17-.24.33-.25h1.6c.26,0,.32.08.32.38,0,.52,0,1,0,1.57Z"/><path class="cls-1" d="M137.86,57.85V54.31c0-.32,0-.35.35-.36.48,0,.48,0,.48.49v5.64c0,.21,0,.42,0,.62s.05.32.29.32q1.9,0,3.81,0c.13,0,.35,0,.36.08a2.08,2.08,0,0,1,0,.61s-.19.07-.3.07h-4.63c-.29,0-.33-.05-.33-.34,0-.87,0-1.74,0-2.62v-1Z"/><path class="cls-1" d="M76.06,60V56.34a.42.42,0,0,1,.1-.3c.14-.12.34,0,.34.2s0,.26,0,.39,0,.17.07.2.14,0,.19,0a6.17,6.17,0,0,1,.93-.64,2,2,0,0,1,1.25-.22,2.93,2.93,0,0,1,1.85,1.18,2.79,2.79,0,0,1,.53,1.22,3.53,3.53,0,0,1,0,1.17,2.93,2.93,0,0,1-1.17,1.91,2.35,2.35,0,0,1-1.86.42A2.42,2.42,0,0,1,77,61.11a3.37,3.37,0,0,0-.38-.28,2.33,2.33,0,0,0-.08.46v2.49c0,.18,0,.33-.25.3a.28.28,0,0,1-.18-.16.61.61,0,0,1,0-.27V60Zm.45-1.19h0c0,.31,0,.62,0,.92a.72.72,0,0,0,.11.35A2.75,2.75,0,0,0,78,61.3a1.93,1.93,0,0,0,1.68-.13,2.45,2.45,0,0,0,1.21-1.84,2.65,2.65,0,0,0-.38-1.85,2.2,2.2,0,0,0-3.3-.61,1.43,1.43,0,0,0-.69,1.3C76.53,58.39,76.51,58.62,76.51,58.84Z"/><path class="cls-1" d="M69.86,73.15c0-.12,0-.24,0-.36V70.9c0-.27,0-.31.35-.31s.42,0,.42.31c0,1.14,0,2.29,0,3.44,0,.1-.09.28-.16.29s-.41,0-.5-.09c-.5-.58-1-1.2-1.46-1.81-.14-.18-.26-.37-.4-.54a.83.83,0,0,0-.25-.12.92.92,0,0,0-.08.27c0,.68,0,1.37.07,2.06,0,.19-.09.26-.28.26-.42,0-.44,0-.44-.45,0-1.08,0-2.16,0-3.24,0-.13,0-.34.14-.37a.4.4,0,0,1,.5.14c.47.6.94,1.2,1.42,1.79.18.22.37.43.56.64Z"/><path class="cls-1" d="M119.74,73.21c0-.21,0-.34,0-.48,0-.6,0-1.21,0-1.82,0-.29,0-.33.38-.33s.4.07.4.35c0,1.13,0,2.26,0,3.39,0,.11-.09.29-.17.31s-.37.1-.52-.1c-.55-.71-1.11-1.4-1.66-2.1a2.92,2.92,0,0,0-.21-.28.26.26,0,0,0-.21-.07.29.29,0,0,0-.09.21c0,.67.06,1.34.08,2,0,.11-.05.3-.11.32a.89.89,0,0,1-.51,0c-.06,0-.1-.22-.1-.33V71.42c0-.17,0-.33,0-.5s.07-.32.1-.32.4,0,.5.11c.3.31.56.67.83,1l1.11,1.34A1.27,1.27,0,0,0,119.74,73.21Z"/><path class="cls-1" d="M85.66,73.2a4.28,4.28,0,0,0,0-.43c0-.63,0-1.25,0-1.87,0-.28.06-.32.38-.32s.39.08.39.32c0,1.14,0,2.28,0,3.42,0,.11-.08.29-.15.31a.47.47,0,0,1-.53-.1c-.55-.71-1.12-1.42-1.68-2.12a2.2,2.2,0,0,0-.17-.25s-.17-.1-.2-.08a.3.3,0,0,0-.1.22c0,.67,0,1.33.07,2a.39.39,0,0,1-.61.34.43.43,0,0,1-.1-.31c0-.68,0-1.37,0-2,0-.45,0-.91,0-1.37,0-.11.07-.3.12-.3a.66.66,0,0,1,.45.09c.3.32.57.68.84,1l1,1.3A1.52,1.52,0,0,0,85.66,73.2Z"/><path class="cls-1" d="M85.06,61.86a2.66,2.66,0,0,1-2.32-1.32,2.79,2.79,0,0,1-.5-1.63,3.09,3.09,0,0,1,1.3-2.5,2.84,2.84,0,0,1,1.37-.51,2.64,2.64,0,0,1,1.06.21,2.7,2.7,0,0,1,1.24,1,2.49,2.49,0,0,1,.53,1.31v.84a2.6,2.6,0,0,1-.53,1.41,2.79,2.79,0,0,1-1.49,1.1A3.45,3.45,0,0,1,85.06,61.86ZM82.74,59a2.3,2.3,0,0,0,.61,1.68,2.24,2.24,0,0,0,1,.64,1.92,1.92,0,0,0,1.76-.21,2.66,2.66,0,0,0,1-3.33,2.2,2.2,0,0,0-1.17-1.19,2.07,2.07,0,0,0-2.06.14A2.44,2.44,0,0,0,82.74,59Z"/><path class="cls-1" d="M73.84,60.69c-.13.12-.27.23-.39.36a2.53,2.53,0,0,1-2.31.77,1.41,1.41,0,0,1-1-.7,2.91,2.91,0,0,1-.43-1.58c0-1.07,0-2.14,0-3.21,0-.17,0-.35.23-.31s.15.1.22.17a.21.21,0,0,1,0,.12c0,.9,0,1.81,0,2.71a5.55,5.55,0,0,0,.14,1.48,1.38,1.38,0,0,0,1.85.86,2.52,2.52,0,0,0,1.36-.93,1.62,1.62,0,0,0,.38-1c0-1,0-2.08,0-3.12,0-.24.12-.35.33-.31s.2.16.2.32V59c0,.67,0,1.35,0,2,0,.14.1.27.13.41s.07.23,0,.31-.21.06-.32,0a.59.59,0,0,1-.3-.64,1.08,1.08,0,0,0,0-.31Z"/><path class="cls-1" d="M126,73.59c0,.27,0,.55,0,.82,0,.11,0,.26-.17.24s-.32.1-.38-.15-.2-.21-.36-.09a1.28,1.28,0,0,1-1.57,0,5,5,0,0,1-.73-.72,2,2,0,0,1-.18-1.88,2.15,2.15,0,0,1,1-1.08,1.79,1.79,0,0,1,1.88.21l.13.12c.38.37.37.47-.11.69a.32.32,0,0,1-.28-.11,1.05,1.05,0,0,0-1.69-.07,1.73,1.73,0,0,0-.08,2,1.21,1.21,0,0,0,1.88,0,.41.41,0,0,0,.07-.33c0-.08-.19-.11-.3-.13a2.44,2.44,0,0,0-.27,0c-.14,0-.27,0-.28-.22s0-.31.22-.32.71,0,1.06,0c.06,0,.15.15.16.24C126,73,126,73.3,126,73.59Z"/><path class="cls-1" d="M93.13,74.66c-.59.09-1-.32-1.35-.72a2,2,0,0,1-.44-1.9,2,2,0,0,1,1.84-1.5,1.89,1.89,0,0,1,1.61,1,2.24,2.24,0,0,1,.34,1.07,2,2,0,0,1-.21.88,2.16,2.16,0,0,1-1,1C93.68,74.64,93.69,74.66,93.13,74.66Zm1.27-2.21a5.55,5.55,0,0,0-.22-.66,1.1,1.1,0,0,0-1.48-.47,1.24,1.24,0,0,0-.66,1,1.77,1.77,0,0,0,.26,1.25,1.19,1.19,0,0,0,1.45.29A1.58,1.58,0,0,0,94.4,72.45Z"/><path class="cls-1" d="M76.12,73.6c0,.29,0,.57,0,.85,0,.07-.1.19-.15.19s-.31.1-.39-.11-.21-.25-.4-.08a1.33,1.33,0,0,1-1.47,0,9.21,9.21,0,0,1-.78-.75,2.06,2.06,0,0,1-.19-1.92,2.22,2.22,0,0,1,1-1.06,1.79,1.79,0,0,1,1.88.21l.13.12c.37.37.36.5-.11.69a.31.31,0,0,1-.27-.09,1.06,1.06,0,0,0-1.67-.13,1.74,1.74,0,0,0-.1,2,1.2,1.2,0,0,0,1.87,0,.39.39,0,0,0,.07-.34c0-.07-.19-.1-.3-.12s-.25,0-.35,0a.31.31,0,0,1-.18-.21c0-.1.09-.28.15-.28a8.54,8.54,0,0,1,1.13,0s.14.14.14.22C76.13,73,76.12,73.31,76.12,73.6Z"/><path class="cls-1" d="M99.81,72.62c0-.59,0-1.18,0-1.77,0-.21.08-.28.28-.28q1.11,0,2.22,0c.23,0,.27.14.27.29s0,.34-.26.34H100.9c-.36,0-.41.06-.36.4a1.67,1.67,0,0,1,0,.32c0,.25,0,.34.29.35H102c.22,0,.32.07.32.3s-.12.31-.33.3h-1.12c-.31,0-.37.07-.33.37a2,2,0,0,1,0,.42c0,.19,0,.3.26.29h1.47c.36,0,.54.25.38.58a.36.36,0,0,1-.26.14h-2.29c-.21,0-.26-.1-.26-.28C99.82,73.79,99.81,73.21,99.81,72.62Z"/><path class="cls-1" d="M128.07,72.6V70.93c0-.34,0-.36.35-.36.69,0,1.38,0,2.07,0,.2,0,.3.05.3.28s0,.35-.29.34h-1.45c-.28,0-.34.08-.31.35s0,.26,0,.39,0,.32.28.32c.41,0,.82,0,1.22,0,.24,0,.32.11.31.34s-.17.26-.34.26c-.37,0-.75,0-1.12,0s-.39.07-.34.4a1.45,1.45,0,0,1,0,.36c0,.25,0,.32.27.32h1.52a.36.36,0,0,1,.38.51.26.26,0,0,1-.29.22h-2.29c-.29,0-.24-.21-.24-.37C128.07,73.73,128.07,73.16,128.07,72.6Z"/><path class="cls-1" d="M78.19,72.58V70.91c0-.33,0-.34.34-.34.69,0,1.38,0,2.07,0,.22,0,.31.07.31.3s-.09.33-.32.32H79.17c-.29,0-.35.08-.32.36a2.29,2.29,0,0,1,0,.37c0,.26,0,.33.3.34h1.2c.17,0,.32,0,.32.27s-.1.33-.32.33h-1.2c-.27,0-.33.07-.3.34a2.16,2.16,0,0,1,0,.44c0,.21,0,.31.27.31h1.52a.36.36,0,0,1,.36.55.34.34,0,0,1-.23.16c-.78,0-1.56,0-2.34,0-.2,0-.22-.12-.22-.26V72.58Z"/><path class="cls-1" d="M115.23,74.61c-.52.1-.75,0-.83-.21s-.16-.42-.22-.63a.32.32,0,0,0-.37-.26h-.89a.42.42,0,0,0-.45.37c-.07.23-.16.45-.25.67a.21.21,0,0,1-.13.09.49.49,0,0,1-.17,0c-.5,0-.49,0-.3-.43s.31-.83.47-1.24l.54-1.28c.1-.25.21-.5.29-.75a.45.45,0,0,1,.65-.34.22.22,0,0,1,.12.11c.16.39.3.78.46,1.17s.36.83.54,1.25c.08.17.13.34.2.51Zm-1.87-1.67h.18c.34,0,.37,0,.24-.36s-.16-.47-.24-.69a1.56,1.56,0,0,0-.16-.28c-.08.08-.19.15-.23.25s-.16.45-.24.67-.06.42.28.41Z"/><path class="cls-1" d="M132.85,72.59V70.92c0-.32,0-.35.35-.35s.37,0,.37.34v2.37a1.65,1.65,0,0,1,0,.32c0,.27,0,.33.29.33h1.5c.28,0,.39.11.39.36s-.08.36-.35.36h-2.17c-.31,0-.34,0-.34-.34Z"/><path class="cls-1" d="M104.59,72.61V70.89c0-.3,0-.32.36-.32s.38,0,.38.33v2.37c0,.12,0,.24,0,.36s0,.31.25.3H107c.46,0,.46.21.39.58,0,.06-.13.13-.2.14H104.8c-.21,0-.2-.13-.2-.26,0-.59,0-1.19,0-1.78Z"/><path class="cls-1" d="M66.14,58.88V56.32c0-.15,0-.31.21-.31s.23.16.23.31,0,.34,0,.52.07.15.11.22a.54.54,0,0,0,.2-.1A2.2,2.2,0,0,1,68,56.12a1.92,1.92,0,0,1,.68-.07s.13.1.13.16a.27.27,0,0,1-.13.19c-.21.09-.44.13-.66.2a2.08,2.08,0,0,0-1.41,2.12c0,.9,0,1.8,0,2.69a.38.38,0,0,1,0,.22c0,.07-.14.15-.2.14a.25.25,0,0,1-.19-.17,5,5,0,0,1,0-.55V58.88Z"/><path class="cls-1" d="M89.36,72.63c0,.54,0,1.09,0,1.64,0,.12-.07.32-.15.35a1.19,1.19,0,0,1-.53,0s-.07-.15-.07-.22c0-1.18,0-2.36,0-3.54,0-.28.2-.26.38-.26s.39.07.39.32v1.72Z"/><path class="cls-1" d="M64.25,72.59V70.9c0-.29,0-.32.38-.32s.34.09.34.35c0,1.11,0,2.22,0,3.33,0,.12,0,.33-.1.35a1.18,1.18,0,0,1-.53,0s-.08-.17-.08-.26C64.24,73.77,64.25,73.18,64.25,72.59Z"/><path class="cls-1" d="M110.33,53c-.13-.07-.3-.1-.36-.2s.07-.23.13-.33a2.87,2.87,0,0,0,.28-.43.48.48,0,0,1,.57-.32l.37.06c-.07.12-.13.25-.21.36s-.35.46-.53.68A1.35,1.35,0,0,1,110.33,53Z"/><path class="cls-1" d="M113.81,69.38s.15,0,.16.09a.47.47,0,0,1-.1.27c0,.08-.13.14-.17.23a.36.36,0,0,1-.48.17.22.22,0,0,1-.1-.19A.73.73,0,0,1,113.81,69.38Z"/></svg>