<svg xmlns="http://www.w3.org/2000/svg" viewBox="0 0 202.15 202.14"><defs><style>.cls-1{isolation:isolate;}.cls-2{fill:#fff;}.cls-3{fill:#b9c800;}.cls-4{fill:#8acdde;mix-blend-mode:multiply;}</style></defs><title>delpin-icon</title><g class="cls-1"><g id="iconos"><path id="icono_cyan" data-name="icono cyan" class="cls-2" d="M156.38,104.14H126a25.53,25.53,0,0,1-5,12.43c2.31,2.44,4.51,4.87,6.83,7.18q6.35,6.3,12.82,12.47a1.5,1.5,0,0,1,.24,2.28,34.19,34.19,0,0,1-14.12,12.31,56.18,56.18,0,0,1-20.56,5.5c-2.57.22-5.16.29-7.9.45,0-.71-.08-1.23-.08-1.76,0-8.87,0-17.75,0-26.62,0-1.27-.24-1.76-1.64-1.95A25,25,0,0,1,84.29,121a5.61,5.61,0,0,1-.76,1.4c-6,6.15-11.94,12.26-17.87,18.42a1.45,1.45,0,0,1-2.18.29,31.73,31.73,0,0,1-10-10.07c-6.37-9.89-8.13-21-8.27-32.58H75.1A26.72,26.72,0,0,1,81,84.71c-6.81-6.63-13.54-13.2-20.48-20,1.1-1.53,2.09-3.15,3.31-4.59A37.9,37.9,0,0,1,79.54,49.44c7.79-3,15.9-4,24.44-4.06V47c0,9.15,0,18.3,0,27.44,0,1,.16,1.49,1.32,1.68a25,25,0,0,1,11.86,5.58,5.41,5.41,0,0,1,.7-1.27C123.9,74.21,130,68,136,61.75a1.59,1.59,0,0,1,2.41-.26c5.89,3.73,9.92,9,12.8,15.26,4,8.5,5.26,17.54,5.29,26.82A4.32,4.32,0,0,1,156.38,104.14Zm-71-3.08a15.49,15.49,0,1,0,15.42-15.5A15.45,15.45,0,0,0,85.38,101.06Zm25.8-.06a10.31,10.31,0,1,0-10.28,10.32A10.24,10.24,0,0,0,111.18,101Z"/><path id="icono_verde" data-name="icono verde" class="cls-3" d="M30.4,117.49q0,11.3,0,22.58a12.56,12.56,0,0,1-.28,2.74,4.57,4.57,0,0,1-2.86,3.4,3.92,3.92,0,0,1-3.36-.12,8.37,8.37,0,0,1-1.84-1.53A3.72,3.72,0,0,1,21,141.81c.08-4.35,0-8.71,0-13.06h0c0-4.55,0-9.09,0-13.64a3.7,3.7,0,0,1,.38-1.31,3.52,3.52,0,0,1,.53-.75c1.44-1.84,3.06-2.44,5-1.87a4.47,4.47,0,0,1,3.28,4.33Q30.4,116.5,30.4,117.49Zm70.45-57.35a40.93,40.93,0,1,0,40.93,40.93A41,41,0,0,0,100.85,60.14Zm61.55.45a14.31,14.31,0,0,0-6.93-1.49c-11.36,0-28.49,0-42.18,0A44,44,0,0,1,142.62,88c2,0,12.61,0,14.39,0a12,12,0,0,0,11.35-9,24.3,24.3,0,0,0,.45-8.83A11.85,11.85,0,0,0,162.4,60.59Zm18.7-.32a3.69,3.69,0,0,0-1-2.75A8.76,8.76,0,0,0,178.27,56a4,4,0,0,0-3.42-.15,4.34,4.34,0,0,0-2.72,3,11.73,11.73,0,0,0-.41,3c0,7.6,0,15.2,0,22.8,0,.63,0,1.27.09,1.91a4.47,4.47,0,0,0,3.29,4.32c2,.57,3.59,0,5-1.87a3.23,3.23,0,0,0,.48-.7,3.68,3.68,0,0,0,.42-1.37c0-4.52,0-9,0-13.56h0C181.08,69,181,64.65,181.1,60.27ZM59.16,114.41c-4.24,0-12.72,0-13.86,0a12.1,12.1,0,0,0-11.52,9.26,23.92,23.92,0,0,0-.3,9,11.66,11.66,0,0,0,7.47,9.6,15.81,15.81,0,0,0,6,1l42.37,0A44,44,0,0,1,59.16,114.41Z"/><path id="icono_cyan-2" data-name="icono cyan" class="cls-4" d="M156.38,104.14H126a25.53,25.53,0,0,1-5,12.43c2.31,2.44,4.51,4.87,6.83,7.18q6.35,6.3,12.82,12.47a1.5,1.5,0,0,1,.24,2.28,34.19,34.19,0,0,1-14.12,12.31,56.18,56.18,0,0,1-20.56,5.5c-2.57.22-5.16.29-7.9.45,0-.71-.08-1.23-.08-1.76,0-8.87,0-17.75,0-26.62,0-1.27-.24-1.76-1.64-1.95A25,25,0,0,1,84.29,121a5.61,5.61,0,0,1-.76,1.4c-6,6.15-11.94,12.26-17.87,18.42a1.45,1.45,0,0,1-2.18.29,31.73,31.73,0,0,1-10-10.07c-6.37-9.89-8.13-21-8.27-32.58H75.1A26.72,26.72,0,0,1,81,84.71c-6.81-6.63-13.54-13.2-20.48-20,1.1-1.53,2.09-3.15,3.31-4.59A37.9,37.9,0,0,1,79.54,49.44c7.79-3,15.9-4,24.44-4.06V47c0,9.15,0,18.3,0,27.44,0,1,.16,1.49,1.32,1.68a25,25,0,0,1,11.86,5.58,5.41,5.41,0,0,1,.7-1.27C123.9,74.21,130,68,136,61.75a1.59,1.59,0,0,1,2.41-.26c5.89,3.73,9.92,9,12.8,15.26,4,8.5,5.26,17.54,5.29,26.82A4.32,4.32,0,0,1,156.38,104.14Zm-71-3.08a15.49,15.49,0,1,0,15.42-15.5A15.45,15.45,0,0,0,85.38,101.06Zm25.8-.06a10.31,10.31,0,1,0-10.28,10.32A10.24,10.24,0,0,0,111.18,101Z"/></g></g></svg>