<svg xmlns="http://www.w3.org/2000/svg" viewBox="0 0 200 100"><defs><style>.cls-1{fill:#85918b;}.cls-2,.cls-3{fill:#34473d;}.cls-2{opacity:0.3;}</style></defs><g id="DIANA"><path class="cls-1" d="M120.89,41.24l-1.19.32a1.49,1.49,0,0,0-1.08,1.32,18,18,0,0,1-.6,3.55,1.45,1.45,0,0,0,.49,1.51l1,.87a1.24,1.24,0,0,1,.15,1.43l-2.25,3.9a1.23,1.23,0,0,1-1.32.58l-1-.5a1.47,1.47,0,0,0-1.68.31,19.6,19.6,0,0,1-2.78,2.36,1.46,1.46,0,0,0-.6,1.45l.23,1.32a1.22,1.22,0,0,1-.81,1.19l-4.22,1.54a1.25,1.25,0,0,1-1.39-.39l-.57-1.09a1.47,1.47,0,0,0-1.44-.78c-.61.06-1.22.09-1.85.09s-1.22,0-1.82-.09a1.48,1.48,0,0,0-1.44.78L96.16,62a1.25,1.25,0,0,1-1.39.39l-4.22-1.54a1.22,1.22,0,0,1-.81-1.19L90,58.4a1.47,1.47,0,0,0-.6-1.48,18,18,0,0,1-2.8-2.36,1.47,1.47,0,0,0-1.65-.32l-1.07.48a1.23,1.23,0,0,1-1.32-.58l-2.25-3.9a1.24,1.24,0,0,1,.15-1.43l1-.82A1.47,1.47,0,0,0,82,46.47a18.58,18.58,0,0,1-.61-3.59,1.48,1.48,0,0,0-1.06-1.3l-1.17-.34A1.21,1.21,0,0,1,78.48,40l.78-4.43a1.21,1.21,0,0,1,1-1l1.24.09A1.45,1.45,0,0,0,83,33.76a18.84,18.84,0,0,1,1.81-3.11,1.45,1.45,0,0,0,.06-1.6l-.7-1.19a1.22,1.22,0,0,1,.34-1.39l3.45-2.9a1.2,1.2,0,0,1,1.43-.09l.92.89a1.47,1.47,0,0,0,1.66.28,18.62,18.62,0,0,1,3.35-1.22,1.47,1.47,0,0,0,1.08-1.19l.22-1.39A1.22,1.22,0,0,1,97.76,20h4.48a1.22,1.22,0,0,1,1.17.85l.1,1.26a1.48,1.48,0,0,0,1.11,1.31,18.18,18.18,0,0,1,3.34,1.2,1.46,1.46,0,0,0,1.57-.21l1.11-.93a1.2,1.2,0,0,1,1.43.09l3.45,2.9a1.22,1.22,0,0,1,.34,1.39L115.13,29a1.46,1.46,0,0,0,0,1.66,19,19,0,0,1,1.8,3.09,1.47,1.47,0,0,0,1.38.85l1.36,0a1.21,1.21,0,0,1,1,1l.78,4.43A1.21,1.21,0,0,1,120.89,41.24ZM100,26a15.58,15.58,0,1,0,15.58,15.58A15.59,15.59,0,0,0,100,26Z"/><circle class="cls-2" cx="99.98" cy="41.53" r="13.13"/><path class="cls-3" d="M100.79,42.37a9.43,9.43,0,0,0,1-1.86c.72-1.52,2.59-3,3.24-2.69a8.43,8.43,0,0,1,2.83,3.41s-.79-4-2.93-4.31S101.21,40,101.21,40s2.55-7.39,5.72-7.28a2.65,2.65,0,0,1,1.56,1.51s-.11-2.1-1.66-2.13-4.45,3.07-5.14,4.76c0,0,3.38-6,3.83-5.11a19.13,19.13,0,0,1,.93,3.38s.28-3.93-1-4.14-4.31,5.45-4.31,5.45-.48-6.38.31-6.66,1.31.8,1.31.8-.41-1.59-1.38-1.55-1,4.17-.93,7c0,0-1.86-7.45-2.93-6.38s0,4.38,0,4.38-.25-3.14.34-2.65,2.11,4,2.52,7.45c0,0-3.49-8.25-5-6.76s-.48,4.1-.48,4.1.14-3.76.9-3.38,1.58,1.48,2.82,4.07S100.41,41.82,100.79,42.37Z"/><path class="cls-3" d="M100.76,44.27s2.24-3,4.28-2.74a9.48,9.48,0,0,1,3.62,1.22s-2.38-2.24-3.8-2.1a6.12,6.12,0,0,0-3.93,2.58s-2.17-5.17-6-4.48C94.93,38.75,98.52,38.92,100.76,44.27Z"/><path class="cls-3" d="M100.93,46.72s.59-.76,1.1-1.52,1.28-1.86,2-1.73A3.67,3.67,0,0,1,106.28,46a2.68,2.68,0,0,0-.93-2.53A2.17,2.17,0,0,0,102,44c-.93,1.27-1.07,1.41-1.07,1.41s-1.28-2.76-3.35-3.07-2.79,2.17-2.79,2.17,1.42-2,2.73-1.41a5.3,5.3,0,0,1,2.76,2.69C100.83,47,100.93,46.72,100.93,46.72Z"/><path class="cls-3" d="M99.59,46.58A27.26,27.26,0,0,0,86.9,42.66c0,.13,0,.26,0,.39A23.22,23.22,0,0,1,97.1,47.2a30.26,30.26,0,0,1,7.28,6.71,13,13,0,0,0,2.49-1.2A30.53,30.53,0,0,0,99.59,46.58Z"/><path class="cls-3" d="M95.9,48.2a26,26,0,0,0-8.64-3.4,9.31,9.31,0,0,0,.28.94,27.34,27.34,0,0,1,5.88,3.08,19.75,19.75,0,0,1,5.71,5.81c.28,0,.57,0,.85,0a13.7,13.7,0,0,0,2.59-.25A23,23,0,0,0,95.9,48.2Z"/><path class="cls-3" d="M93.11,50.72a16.67,16.67,0,0,0-4.38-2.41,13.12,13.12,0,0,0,8.42,6A36.18,36.18,0,0,0,93.11,50.72Z"/><path class="cls-3" d="M110.81,68.53h-1.6V67.6a.89.89,0,0,0-.1-.51c-.06-.09-.21-.13-.43-.13h-1.6c-.22,0-.36,0-.43.13a.89.89,0,0,0-.1.51v1.33a.81.81,0,0,0,.09.47c.06.08.21.12.44.12h1.6a2.39,2.39,0,0,1,1.67.44,2.24,2.24,0,0,1,.46,1.63v1.33a2.35,2.35,0,0,1-.47,1.67,2.32,2.32,0,0,1-1.66.47h-1.6a2.32,2.32,0,0,1-1.66-.47,2.35,2.35,0,0,1-.47-1.67V72h1.6v.93a.89.89,0,0,0,.1.51c.07.09.21.13.43.13h1.6c.22,0,.37,0,.43-.13a.89.89,0,0,0,.1-.51V71.59a.83.83,0,0,0-.09-.47.61.61,0,0,0-.44-.11h-1.6a2.39,2.39,0,0,1-1.67-.45,2.24,2.24,0,0,1-.46-1.63V67.6a2.35,2.35,0,0,1,.47-1.67,2.32,2.32,0,0,1,1.66-.46h1.6a2.32,2.32,0,0,1,1.66.46,2.35,2.35,0,0,1,.47,1.67Z"/><path class="cls-3" d="M92,65.69l2.66,9.08H93.07l-.61-2.11H89.93l-.62,2.11H87.73l2.67-9.08Zm-1.68,5.67h1.77l-.84-2.87h-.09Z"/><path class="cls-3" d="M117.11,65.69l2.66,9.08h-1.58l-.61-2.11h-2.53l-.62,2.11h-1.58l2.67-9.08Zm-1.68,5.67h1.77l-.84-2.87h-.09Z"/><path class="cls-3" d="M101,65.69h1.66v9.08H101V70.93H98.23v3.84H96.57V65.69h1.66v3.83H101Z"/><path class="cls-3" d="M84.24,68.4h1.51V66.54a.86.86,0,0,0-.86-.85H80.74a.85.85,0,0,0-.85.85v7.37a.86.86,0,0,0,.85.86h4.15a.87.87,0,0,0,.86-.86V72H84.24V73a.43.43,0,0,1-.43.43H81.75a.43.43,0,0,1-.43-.43V67.5a.42.42,0,0,1,.43-.42h2.06a.42.42,0,0,1,.43.42Z"/><path class="cls-1" d="M108.71,79.56l.33-.46a1,1,0,0,0,.68.32c.31,0,.51-.13.51-.37s-.16-.44-.84-.44V78.1c.56,0,.74-.17.74-.42s-.14-.34-.39-.34a.85.85,0,0,0-.58.27l-.36-.44a1.49,1.49,0,0,1,1-.4c.64,0,1.07.31,1.07.86a.74.74,0,0,1-.52.69v0a.76.76,0,0,1,.62.75c0,.58-.53.91-1.16.91A1.38,1.38,0,0,1,108.71,79.56Z"/><path class="cls-1" d="M88.75,78.44A1.47,1.47,0,0,1,87.17,80H85.91v-3h1.26A1.46,1.46,0,0,1,88.75,78.44Zm-.64,0a.93.93,0,0,0-.94-1h-.65v2.07h.65A.93.93,0,0,0,88.11,78.44Z"/><path class="cls-1" d="M91.65,79.05h-1.6c0,.32.21.51.53.51a.67.67,0,0,0,.54-.26l.43.22a1.13,1.13,0,0,1-1,.48,1.15,1.15,0,0,1,0-2.29,1,1,0,0,1,1.1,1.11A1.52,1.52,0,0,1,91.65,79.05Zm-1.6-.37h1c0-.34-.21-.53-.51-.53S90.1,78.34,90.05,78.68Z"/><path class="cls-1" d="M92.38,79.74l.21-.34a1.25,1.25,0,0,0,.64.17c.2,0,.34-.09.34-.23s-.16-.2-.38-.26L93,79c-.37-.1-.63-.24-.63-.59s.35-.73.87-.73a1.45,1.45,0,0,1,.83.22l-.23.36a1.14,1.14,0,0,0-.56-.14c-.2,0-.34.07-.34.2s.14.19.33.24l.18,0c.38.1.68.27.68.66s-.37.7-.92.7A1.3,1.3,0,0,1,92.38,79.74Z"/><path class="cls-1" d="M97.14,76.76V80H96.6v-.33a.84.84,0,0,1-.74.37,1.05,1.05,0,0,1-1.06-1.13,1.07,1.07,0,0,1,1.06-1.16.81.81,0,0,1,.73.36V76.76Zm-.56,2.09a.61.61,0,1,0-.6.67A.6.6,0,0,0,96.58,78.85Z"/><path class="cls-1" d="M100.07,79.05h-1.6c0,.32.21.51.53.51a.67.67,0,0,0,.54-.26l.43.22A1.13,1.13,0,0,1,99,80a1.15,1.15,0,0,1,0-2.29,1,1,0,0,1,1.1,1.11A1.52,1.52,0,0,1,100.07,79.05Zm-1.6-.37h1c0-.34-.21-.53-.51-.53S98.52,78.34,98.47,78.68Z"/><path class="cls-1" d="M103.56,77.67l-.59.42-.29-.41,1-.75h.43v3h-.57Z"/><path class="cls-1" d="M107.8,77.85a1.45,1.45,0,0,1-.33.9L106.62,80H106l.88-1.19h-.23a.9.9,0,0,1-.94-.92,1.06,1.06,0,0,1,2.12,0Zm-1.06.49a.46.46,0,0,0,.47-.49.45.45,0,0,0-.47-.48.44.44,0,0,0-.46.48A.45.45,0,0,0,106.74,78.34Z"/><path class="cls-1" d="M113.92,79.11c0,.53-.42.89-1.06.89s-1.06-.35-1.06-.88a.81.81,0,0,1,.5-.74.71.71,0,0,1-.41-.66c0-.5.38-.83,1-.83s1,.33,1,.82a.72.72,0,0,1-.41.67A.78.78,0,0,1,113.92,79.11Zm-.6,0a.46.46,0,1,0-.46.44A.43.43,0,0,0,113.32,79.08Zm-.84-1.32a.38.38,0,1,0,.76,0,.38.38,0,1,0-.76,0Z"/></g></svg>