<svg id="LAGEO" xmlns="http://www.w3.org/2000/svg" viewBox="0 0 200 100"><defs><style>.cls-1{fill:#34473d;}</style></defs><path class="cls-1" d="M64.5,63a24.31,24.31,0,0,1-10,2c-9,0-11.7-5.66-11.7-12,0-8.83,4.83-17.58,16.1-17.58,8,0,10,4.43,10,8.79l-7.61,1.58c0-3-1.05-4.59-3.22-4.59-5,0-6.48,7-6.48,11.33,0,4,1.56,6.33,5.13,6.33A15.71,15.71,0,0,0,62.9,57.4Z"/><path class="cls-1" d="M79.47,62.51a8.59,8.59,0,0,1-6.26,2.33c-4.46,0-7.31-3-7.31-8.87,0-6.41,3.55-13.22,11.2-13.22A6.64,6.64,0,0,1,82,44.45l.7-1.35h6.78L86.91,58.19c-.18,1,0,1.7,1,1.7a7.38,7.38,0,0,0,1.75-.32l-.74,4.6a13.69,13.69,0,0,1-4.42.71C81.87,64.88,80.26,64,79.47,62.51Zm-2.89-3.29a4.26,4.26,0,0,0,2-.52l1.8-9.94a3.42,3.42,0,0,0-1.93-.63c-3.41,0-4.2,5.07-4.2,7.37S75,59.22,76.58,59.22Z"/><path class="cls-1" d="M95.33,35.74h8.2L99.87,56.53c-.26,1.5.27,2.13,1.46,2.13a9.72,9.72,0,0,0,3.34-.63l-1,5.62a18.33,18.33,0,0,1-6.12,1c-4.76,0-6.3-1.9-6.3-4.83a10.81,10.81,0,0,1,.17-2Z"/><path class="cls-1" d="M126.67,42.43A7.36,7.36,0,0,1,128,46.78c0,5.43-5.17,12.48-9.36,17.43H109l-3.84-20.59,8.39-.72,2,14.66c1.9-2.78,4.24-7.13,4.24-10.1a7.52,7.52,0,0,0-.79-3.65Z"/><path class="cls-1" d="M128.41,55.54c0-6.74,4.05-13,13.38-13,7,0,9.59,3.64,9.59,8.67,0,6.65-4,13.54-13.56,13.54C130.75,64.72,128.41,60.64,128.41,55.54Zm14.41-4.48c0-1.74-.49-2.93-2-2.93-3.29,0-4,5.11-4,7.72,0,2,.63,3.21,2.11,3.21C142.1,59.06,142.82,53.67,142.82,51.06Z"/><path class="cls-1" d="M154,41.12a2.9,2.9,0,0,1-3.11-3,3.15,3.15,0,1,1,3.11,3Zm0-5.48a2.43,2.43,0,0,0,0,4.86,2.31,2.31,0,0,0,2.46-2.42A2.36,2.36,0,0,0,154,35.64Zm1.39,4.13h-.65l-.62-1.44h-.67v1.44h-.58V36.29h1.27c.73,0,1.2.27,1.2,1a1,1,0,0,1-.64,1ZM154,37.84c.48,0,.77-.13.77-.57s-.25-.5-.75-.5h-.54v1.07Z"/></svg>