<svg xmlns="http://www.w3.org/2000/svg" viewBox="0 0 200 100"><defs><style>.cls-1,.cls-2{fill:#34473d;}.cls-2{opacity:0.3;}.cls-3{fill:#5d6c64;}.cls-4{fill:#85918b;}.cls-5{opacity:0.7;}.cls-6{opacity:0.9;}</style></defs><g id="DIANA"><path class="cls-1" d="M68.61,65.06a.93.93,0,0,0-.8.39,2.27,2.27,0,0,0,0,2.11.92.92,0,0,0,.82.38,2.22,2.22,0,0,0,.51-.06,5.12,5.12,0,0,0,.57-.17v.76a3.08,3.08,0,0,1-.55.16,3,3,0,0,1-.62.06,2,2,0,0,1-1.08-.27,1.6,1.6,0,0,1-.63-.77,3.05,3.05,0,0,1-.2-1.14,2.73,2.73,0,0,1,.23-1.14,1.84,1.84,0,0,1,.68-.78,2,2,0,0,1,1.09-.28,2.72,2.72,0,0,1,.63.08,3.16,3.16,0,0,1,.61.22l-.29.73a4.78,4.78,0,0,0-.48-.19A1.35,1.35,0,0,0,68.61,65.06Z"/><path class="cls-1" d="M73.08,67.07a1.69,1.69,0,0,1-.41,1.2,1.47,1.47,0,0,1-1.11.42,1.6,1.6,0,0,1-.77-.19,1.36,1.36,0,0,1-.54-.55,1.84,1.84,0,0,1-.19-.88,1.62,1.62,0,0,1,.4-1.19,1.68,1.68,0,0,1,1.89-.23,1.31,1.31,0,0,1,.53.54A1.84,1.84,0,0,1,73.08,67.07Zm-2.15,0a1.32,1.32,0,0,0,.15.7.64.64,0,0,0,1,0,1.71,1.71,0,0,0,0-1.4.56.56,0,0,0-.49-.23.54.54,0,0,0-.49.23A1.32,1.32,0,0,0,70.93,67.07Z"/><path class="cls-1" d="M77.35,65.44a1.07,1.07,0,0,1,.8.27,1.19,1.19,0,0,1,.27.87v2h-.85V66.79c0-.45-.15-.67-.46-.67a.5.5,0,0,0-.48.24,1.31,1.31,0,0,0-.15.69v1.56h-.85V66.79c0-.45-.15-.67-.46-.67a.5.5,0,0,0-.49.26,1.78,1.78,0,0,0-.13.77v1.46H73.7V65.5h.85v.34a.76.76,0,0,1,.35-.29,1.26,1.26,0,0,1,.51-.11,1.43,1.43,0,0,1,.58.11.83.83,0,0,1,.37.35h.07a.85.85,0,0,1,.4-.35A1.35,1.35,0,0,1,77.35,65.44Z"/><path class="cls-1" d="M80.72,65.46a1,1,0,0,1,.85.41,1.87,1.87,0,0,1,.32,1.2,1.92,1.92,0,0,1-.33,1.21,1.08,1.08,0,0,1-.86.41,1,1,0,0,1-.54-.12,1.87,1.87,0,0,1-.33-.28V70H79V65.52h.85v.4a1.3,1.3,0,0,1,.34-.32A.92.92,0,0,1,80.72,65.46Zm-.28.68a.5.5,0,0,0-.46.21,1.2,1.2,0,0,0-.15.62v.09a1.42,1.42,0,0,0,.14.69.5.5,0,0,0,.49.25.47.47,0,0,0,.43-.25,1.42,1.42,0,0,0,.14-.69C81,66.44,80.83,66.14,80.44,66.14Z"/><path class="cls-1" d="M83.8,65.45a1.48,1.48,0,0,1,1,.27,1,1,0,0,1,.33.83v2.08h-.76v-.42h0a1.16,1.16,0,0,1-.42.36,1.29,1.29,0,0,1-.61.12,1,1,0,0,1-.69-.24.92.92,0,0,1-.28-.75.83.83,0,0,1,.35-.73,2,2,0,0,1,1-.26l.54,0v-.14a.49.49,0,0,0-.13-.36.57.57,0,0,0-.36-.11,1.31,1.31,0,0,0-.44.07,2.6,2.6,0,0,0-.44.16l-.28-.58a2.83,2.83,0,0,1,.56-.2A2.67,2.67,0,0,1,83.8,65.45Zm.45,1.74h-.33a.93.93,0,0,0-.57.15.44.44,0,0,0-.16.36.29.29,0,0,0,.11.27.49.49,0,0,0,.3.09.69.69,0,0,0,.46-.17.58.58,0,0,0,.19-.46Z"/><path class="cls-1" d="M92.26,65.45a1.48,1.48,0,0,1,1,.27,1,1,0,0,1,.34.83v2.08H92.8v-.42h0a1.19,1.19,0,0,1-1,.48,1,1,0,0,1-.69-.24,1,1,0,0,1-.27-.75.83.83,0,0,1,.35-.73,2,2,0,0,1,1-.26l.54,0v-.14a.49.49,0,0,0-.12-.36.57.57,0,0,0-.36-.11,1.41,1.41,0,0,0-.45.07,2.5,2.5,0,0,0-.43.16l-.28-.58a2.75,2.75,0,0,1,1.19-.28Zm.45,1.74h-.33a1,1,0,0,0-.57.15.47.47,0,0,0-.16.36.29.29,0,0,0,.12.27.44.44,0,0,0,.29.09.7.7,0,0,0,.47-.17.57.57,0,0,0,.18-.46Z"/><path class="cls-1" d="M87.56,65.46a1.16,1.16,0,0,1,.8.27,1.12,1.12,0,0,1,.31.87v2h-.85V66.81a.86.86,0,0,0-.12-.5.43.43,0,0,0-.39-.17.56.56,0,0,0-.53.26,1.72,1.72,0,0,0-.14.76v1.47h-.85V65.52h.76v.4h0a.87.87,0,0,1,.41-.35A1.42,1.42,0,0,1,87.56,65.46ZM86.35,65a.76.76,0,0,1,.21-.52.55.55,0,0,1,.65-.11l.23.11a.49.49,0,0,0,.22.06.18.18,0,0,0,.13-.06.32.32,0,0,0,.1-.18h.33a.8.8,0,0,1-.2.53.58.58,0,0,1-.41.17.53.53,0,0,1-.24-.06l-.23-.12a.46.46,0,0,0-.22-.06.22.22,0,0,0-.14.06.38.38,0,0,0-.09.18Z"/><path class="cls-1" d="M90.88,64.23v.06s-.82.83-.9.88h-.56V65.1c.06-.07.45-.78.51-.87Zm-.53,4.4H89.5V65.52h.85Z"/><path class="cls-1" d="M110,65.45a1.48,1.48,0,0,1,1,.27,1,1,0,0,1,.33.83v2.08h-.76v-.42h0a1.16,1.16,0,0,1-.42.36,1.29,1.29,0,0,1-.61.12,1,1,0,0,1-.69-.24,1,1,0,0,1-.28-.75.83.83,0,0,1,.35-.73,2,2,0,0,1,1-.26l.54,0v-.14a.45.45,0,0,0-.13-.36.55.55,0,0,0-.36-.11,1.31,1.31,0,0,0-.44.07,2.6,2.6,0,0,0-.44.16l-.27-.58a2.52,2.52,0,0,1,.55-.2A2.67,2.67,0,0,1,110,65.45Zm.45,1.74h-.33a.93.93,0,0,0-.57.15.44.44,0,0,0-.16.36.31.31,0,0,0,.11.27.49.49,0,0,0,.3.09.69.69,0,0,0,.46-.17.55.55,0,0,0,.19-.46Z"/><path class="cls-1" d="M121.08,65.45a1.5,1.5,0,0,1,1,.27,1,1,0,0,1,.33.83v2.08h-.76v-.42h0a1.16,1.16,0,0,1-.42.36,1.29,1.29,0,0,1-.61.12,1,1,0,0,1-.69-.24.92.92,0,0,1-.28-.75.83.83,0,0,1,.35-.73,2,2,0,0,1,1-.26l.54,0v-.14a.49.49,0,0,0-.13-.36.57.57,0,0,0-.36-.11,1.31,1.31,0,0,0-.44.07,2.6,2.6,0,0,0-.44.16l-.28-.58a2.83,2.83,0,0,1,.56-.2A2.67,2.67,0,0,1,121.08,65.45Zm.45,1.74h-.33a.93.93,0,0,0-.57.15.44.44,0,0,0-.16.36.29.29,0,0,0,.11.27.47.47,0,0,0,.3.09.69.69,0,0,0,.46-.17.58.58,0,0,0,.19-.46Z"/><path class="cls-1" d="M98.21,68.57l-.31-1H96.36l-.31,1h-1l1.5-4.27h1.1l1.5,4.27Zm-.52-1.77-.31-1-.08-.25-.09-.32L97.13,65l-.08.3c0,.12-.07.23-.1.33l-.06.22-.31,1Z"/><path class="cls-1" d="M102,68.63H99.38v-.52l1.51-2H99.47v-.68h2.42V66l-1.46,2H102Z"/><path class="cls-1" d="M105.42,65.38v3.25h-.89v-.36a.85.85,0,0,1-.38.3,1.47,1.47,0,0,1-.58.12,1.25,1.25,0,0,1-.84-.28,1.18,1.18,0,0,1-.31-.91V65.38h.88v1.9a.83.83,0,0,0,.13.52.44.44,0,0,0,.4.18.56.56,0,0,0,.55-.28,1.68,1.68,0,0,0,.15-.79V65.38Z"/><path class="cls-1" d="M107.29,68.69a1.51,1.51,0,0,1-1.13-.4,1.77,1.77,0,0,1-.39-1.27,2.09,2.09,0,0,1,.2-1,1.29,1.29,0,0,1,.56-.55,1.84,1.84,0,0,1,.83-.18,2.4,2.4,0,0,1,.58.06,3.16,3.16,0,0,1,.44.16l-.27.68a3,3,0,0,0-.39-.13,1.13,1.13,0,0,0-.36-.06q-.69,0-.69,1a1.13,1.13,0,0,0,.19.72.61.61,0,0,0,.5.23,1.5,1.5,0,0,0,.5-.08,2,2,0,0,0,.42-.2v.75a1.49,1.49,0,0,1-.43.19A2.23,2.23,0,0,1,107.29,68.69Z"/><path class="cls-1" d="M113.8,65.33h.29l-.06.84-.13,0h-.13a1.11,1.11,0,0,0-.44.08.66.66,0,0,0-.33.26.79.79,0,0,0-.13.49v1.65H112V65.39h.81v.55h0a1.23,1.23,0,0,1,.39-.43A1,1,0,0,1,113.8,65.33Z"/><path class="cls-1" d="M119.3,65.33h.29l-.06.84-.13,0h-.13a1.08,1.08,0,0,0-.44.08.73.73,0,0,0-.34.26.87.87,0,0,0-.12.49v1.65h-.89V65.39h.8v.55h0a1.36,1.36,0,0,1,.4-.43A1,1,0,0,1,119.3,65.33Z"/><path class="cls-1" d="M115.63,65.32a1.5,1.5,0,0,1,1.07.38,1.47,1.47,0,0,1,.39,1.09v.43H115a.86.86,0,0,0,.23.59.75.75,0,0,0,.58.22,2,2,0,0,0,.57-.07,2.42,2.42,0,0,0,.53-.19v.69a2.27,2.27,0,0,1-.5.17,3,3,0,0,1-.64.06,2,2,0,0,1-.86-.18,1.36,1.36,0,0,1-.59-.55,1.88,1.88,0,0,1-.22-.93,2.06,2.06,0,0,1,.2-1,1.35,1.35,0,0,1,.54-.57A1.6,1.6,0,0,1,115.63,65.32Zm0,.63a.58.58,0,0,0-.43.17.8.8,0,0,0-.2.51h1.25a.84.84,0,0,0-.16-.48A.53.53,0,0,0,115.64,66Z"/><path class="cls-1" d="M125.28,68.69a1.07,1.07,0,0,1-.89-.43,2.49,2.49,0,0,1,0-2.51,1.11,1.11,0,0,1,.91-.43,1,1,0,0,1,.58.14,1,1,0,0,1,.35.34V64.1h.85v4.53h-.85v-.42h0a1.26,1.26,0,0,1-.35.34A1.09,1.09,0,0,1,125.28,68.69Zm.3-.71a.57.57,0,0,0,.52-.22,1.21,1.21,0,0,0,.16-.65V67a1.45,1.45,0,0,0-.15-.73.57.57,0,0,0-.54-.25.53.53,0,0,0-.46.25A1.34,1.34,0,0,0,125,67a1.28,1.28,0,0,0,.16.72A.55.55,0,0,0,125.58,68Z"/><path class="cls-1" d="M129.13,65.32a1.46,1.46,0,0,1,1.06.38,1.44,1.44,0,0,1,.4,1.1v.42h-2.1a.81.81,0,0,0,.23.59.75.75,0,0,0,.58.22,2.49,2.49,0,0,0,.57-.06,3.16,3.16,0,0,0,.53-.2v.69a2.27,2.27,0,0,1-.5.17,3,3,0,0,1-.64.06,1.94,1.94,0,0,1-.86-.18,1.36,1.36,0,0,1-.59-.55,1.78,1.78,0,0,1-.22-.93,2.06,2.06,0,0,1,.2-1,1.35,1.35,0,0,1,.54-.57A1.58,1.58,0,0,1,129.13,65.32Zm0,.63a.57.57,0,0,0-.42.17.8.8,0,0,0-.2.51h1.24a.76.76,0,0,0-.15-.48A.56.56,0,0,0,129.13,66Z"/><path class="cls-1" d="M131.94,68.64h-.89V64.12h.89Z"/><path class="cls-1" d="M140.08,65.38v3.25h-.89v-.36a.76.76,0,0,1-.38.3,1.39,1.39,0,0,1-.57.12,1.25,1.25,0,0,1-.84-.28,1.18,1.18,0,0,1-.32-.91V65.38H138v1.9a.91.91,0,0,0,.12.52.46.46,0,0,0,.4.18.55.55,0,0,0,.55-.28,1.68,1.68,0,0,0,.15-.79V65.38Z"/><path class="cls-1" d="M142.6,65.33h.29l-.06.84-.13,0h-.13a1.11,1.11,0,0,0-.44.08.66.66,0,0,0-.33.26.79.79,0,0,0-.13.49v1.65h-.89V65.39h.8v.55h0a1.23,1.23,0,0,1,.39-.43A1,1,0,0,1,142.6,65.33Z"/><path class="cls-1" d="M136.66,67.45a1.08,1.08,0,0,1-.41.9,1.72,1.72,0,0,1-1.15.34,2.79,2.79,0,0,1-1.21-.26v-.84q.31.14.63.24a1.85,1.85,0,0,0,.65.11.72.72,0,0,0,.47-.12.45.45,0,0,0,.14-.33.37.37,0,0,0-.11-.27.94.94,0,0,0-.29-.21l-.43-.22a2.55,2.55,0,0,1-.32-.17,1.72,1.72,0,0,1-.33-.24A1.33,1.33,0,0,1,134,66a1.27,1.27,0,0,1-.1-.5,1.08,1.08,0,0,1,.39-.89,1.57,1.57,0,0,1,1-.32,2.18,2.18,0,0,1,.63.08,3.66,3.66,0,0,1,.63.22l-.29.7c-.19-.08-.37-.14-.52-.19a1.91,1.91,0,0,0-.48-.06.57.57,0,0,0-.39.12.4.4,0,0,0-.14.31.38.38,0,0,0,.21.35,4.71,4.71,0,0,0,.6.33,3.47,3.47,0,0,1,.55.32,1.21,1.21,0,0,1,.36.39A1.19,1.19,0,0,1,136.66,67.45Z"/><path class="cls-1" d="M143.67,67.47l.05.07c-.06.21-.66,1.58-.76,1.8h-.64c.05-.24.51-1.66.54-1.87Z"/><path class="cls-1" d="M147.87,67.45a1.1,1.1,0,0,1-.4.9,1.76,1.76,0,0,1-1.16.34,2.71,2.71,0,0,1-1.2-.26v-.84a6.62,6.62,0,0,0,.62.24,1.89,1.89,0,0,0,.65.11.72.72,0,0,0,.47-.12.42.42,0,0,0,.14-.33.33.33,0,0,0-.11-.27.94.94,0,0,0-.29-.21l-.42-.22a2.62,2.62,0,0,1-.33-.17,1.72,1.72,0,0,1-.33-.24,1.33,1.33,0,0,1-.26-.35,1.27,1.27,0,0,1-.1-.5,1.08,1.08,0,0,1,.39-.89,1.57,1.57,0,0,1,1.05-.32,2.2,2.2,0,0,1,.64.08,4.35,4.35,0,0,1,.63.22l-.3.7c-.19-.08-.36-.14-.52-.19a1.86,1.86,0,0,0-.48-.06.57.57,0,0,0-.39.12.4.4,0,0,0-.14.31.38.38,0,0,0,.21.35,4.71,4.71,0,0,0,.6.33,3.6,3.6,0,0,1,.56.32,1.18,1.18,0,0,1,.35.39A1.19,1.19,0,0,1,147.87,67.45Z"/><path class="cls-1" d="M148.26,68.08a.53.53,0,0,1,.17-.44.7.7,0,0,1,.42-.12.71.71,0,0,1,.41.12.53.53,0,0,1,.17.44.54.54,0,0,1-.17.44.71.71,0,0,1-.41.13.7.7,0,0,1-.42-.13A.54.54,0,0,1,148.26,68.08Z"/><path class="cls-1" d="M152.83,68.64l-.31-1H151l-.31,1h-1l1.5-4.27h1.1l1.5,4.27Zm-.52-1.77-.31-1c0-.07-.05-.15-.08-.26l-.09-.31-.08-.28-.08.29c0,.12-.07.23-.1.34l-.06.22-.31,1Z"/><circle class="cls-2" cx="58.63" cy="42.43" r="12.43"/><path class="cls-1" d="M60.49,62.16a117.31,117.31,0,0,0-5.2-11,2.63,2.63,0,0,0-2.58-1.7c-1.64,0-2.09,2.16-2.5,5.75a52,52,0,0,0,0,8.43c.65-9.21,2.69-11.39,2.69-11.39l1.31-.11L58,58.89l2.73,5.75Z"/><path class="cls-3" d="M60.31,64.64s-2.91-6-3.69-7.52S54,51.92,52.9,52.24c0,0,1.1-1.33,1.61-.78a30.63,30.63,0,0,1,3.14,5.86c1.56,3.44,2.84,6.49,2.84,6.49Z"/><path class="cls-3" d="M55.25,37.82S56,37.71,57,40.61s1.88,6.64,2.35,7.77V45.86l-1.65-6.5-1.15-2.52-.82-.13Z"/><path class="cls-1" d="M59.63,45.46s-1.26-5-1.84-6.71-1-3.24-2.42-3.27S52.42,40,52,46.86c0,0,1.43-8.18,3.8-9.47a.49.49,0,0,1,.53,0,4.12,4.12,0,0,1,1.12,2.31c.74,2.81,2,7.91,2,7.91Z"/><path class="cls-3" d="M65.92,32.62s-.52-.17-1.52,2.19-2.14,4.75-2.14,4.75L62,38.88l1.83-4.13,1.53-2.94h.58Z"/><path class="cls-1" d="M62.42,38.08A42.12,42.12,0,0,1,64,34c.59-1.12,1.42-3.15,2.21-3s.51,5.51,0,7.79c0,0,.37-5.29-.42-6.47a.29.29,0,0,0-.46,0c-.38.4-1.23,1.79-2.9,6.51Z"/><path class="cls-1" d="M59,65.61s.4,2.34,1.61,2.33a3.66,3.66,0,0,0,2.82-1.66S63,59.79,63,56.82s-.16-5.13.64-5.85c0,0-1.51-2.39-2.82-2.24a1.68,1.68,0,0,0-1.46,1.43s.28,6.1.28,8.36S59.55,64.41,59,65.61Z"/><path class="cls-4" d="M61,49.25s-.05,4.33,0,8.18a85.47,85.47,0,0,0,.58,9.39s-1.7-.19-1.74-.84.33-4.7.48-7.94.09-8-.36-8.16C60,49.88,60,49.44,61,49.25Z"/><path class="cls-1" d="M59.18,49.6s.48-1.5,1.53-1.53,2,1.18,2,1.18.53-.12.53-.41-.67-8.12-.45-11.55a7,7,0,0,1,.57-2.42A3.4,3.4,0,0,0,60.71,33a1.43,1.43,0,0,0-1.53,1.14s.31.17.31,2.2-.28,6.3-.31,8.5S58.76,48.18,59.18,49.6Z"/><path class="cls-4" d="M61.33,47.44a3.45,3.45,0,0,1-.47-1.87c0-1.2.17-6.65.32-8.61s.14-3.25.15-3.39a1.37,1.37,0,0,0-1.5.38s.33.09.42,1.17,0,5.32-.18,8.63-.37,3.87-.24,4.25C59.83,48,60.07,47.21,61.33,47.44Z"/><path class="cls-1" d="M85.79,40.86,83.2,43.33a8,8,0,0,0-5.94-2.79,6.51,6.51,0,0,0-6.61,6.6,6.84,6.84,0,0,0,.85,3.45A6,6,0,0,0,73.89,53a6.85,6.85,0,0,0,3.43.86,7.1,7.1,0,0,0,3-.6A10.41,10.41,0,0,0,83.2,51l2.51,2.62a14,14,0,0,1-4.07,2.92,11.18,11.18,0,0,1-4.38.81,10.05,10.05,0,0,1-7.42-2.88A9.92,9.92,0,0,1,67,47.13,10.16,10.16,0,0,1,68.26,42,9.83,9.83,0,0,1,72,38.33,10.62,10.62,0,0,1,77.31,37,11,11,0,0,1,82,38,11.19,11.19,0,0,1,85.79,40.86Z"/><path class="cls-1" d="M95,37.44h3.76l7.48,19.45h-3.85l-1.52-4H92.89l-1.58,4H87.46Zm1.9,5.16-2.61,6.67h5.21Z"/><g class="cls-5"><path class="cls-1" d="M119.27,40.09l-2.74,2.42q-1.45-2-2.94-2a1.8,1.8,0,0,0-1.2.39,1.12,1.12,0,0,0-.46.87,1.51,1.51,0,0,0,.33.93,25.3,25.3,0,0,0,2.72,2.5c1.41,1.18,2.27,1.93,2.57,2.23a7.72,7.72,0,0,1,1.59,2.18,5.49,5.49,0,0,1,.47,2.27,5.21,5.21,0,0,1-1.65,4,6,6,0,0,1-4.32,1.56,6.43,6.43,0,0,1-3.62-1,8,8,0,0,1-2.64-3.2l3.11-1.88c.94,1.72,2,2.58,3.23,2.58a2.4,2.4,0,0,0,1.61-.55A1.66,1.66,0,0,0,116,52a2.26,2.26,0,0,0-.49-1.33,14.64,14.64,0,0,0-2.16-2,21.91,21.91,0,0,1-4.11-4,5.09,5.09,0,0,1-.93-2.81,4.6,4.6,0,0,1,1.55-3.47,5.3,5.3,0,0,1,3.8-1.45,6,6,0,0,1,2.78.68A10.31,10.31,0,0,1,119.27,40.09Z"/><path class="cls-1" d="M123,37.44h3.72V50a6.56,6.56,0,0,0,.28,2.3,2.22,2.22,0,0,0,.94,1.07,2.92,2.92,0,0,0,1.58.41,3.06,3.06,0,0,0,1.68-.45,2.31,2.31,0,0,0,1-1.15,8.46,8.46,0,0,0,.27-2.64V37.44h3.72V49a16.87,16.87,0,0,1-.33,4.07,5.71,5.71,0,0,1-1.26,2.19,5.91,5.91,0,0,1-2.15,1.57,7.29,7.29,0,0,1-2.83.51,6.81,6.81,0,0,1-3.68-1A5.67,5.67,0,0,1,123.68,54,12.88,12.88,0,0,1,123,49Z"/><path class="cls-1" d="M140.73,37.44h3.92a12.78,12.78,0,0,1,4.59.58,4.72,4.72,0,0,1,2.2,1.91,5.88,5.88,0,0,1,.83,3.16,5.38,5.38,0,0,1-.92,3.2,5.58,5.58,0,0,1-2.77,2l4.61,8.65h-4.05l-4.37-8.24h-.34v8.24h-3.7Zm3.7,7.6h1.16a4.51,4.51,0,0,0,2.43-.46,1.75,1.75,0,0,0,.67-1.54,1.91,1.91,0,0,0-.33-1.11,1.81,1.81,0,0,0-.89-.67,6.54,6.54,0,0,0-2-.21h-1Z"/></g><g class="cls-6"><rect class="cls-1" x="66.34" y="58.07" width="87.38" height="1.34" rx="0.67"/><rect class="cls-1" x="66.34" y="60.11" width="87.38" height="1.34" rx="0.67"/><rect class="cls-1" x="66.34" y="62.14" width="87.38" height="1.34" rx="0.67"/></g></g></svg>