<svg xmlns="http://www.w3.org/2000/svg" viewBox="0 0 200 100"><defs><style>.cls-1{fill:#34473d;}.cls-2{opacity:0.6;}</style></defs><g id="DIANA"><polygon class="cls-1" points="129.53 51.09 129.54 51.09 129.59 50.83 129.53 51.09"/><path class="cls-1" d="M136.57,41.9l-.12.5a2,2,0,0,0-1.25-.33,2.57,2.57,0,0,0-1.64.61,2.8,2.8,0,0,0-1,1.58,1.91,1.91,0,0,0,.2,1.63,1.64,1.64,0,0,0,1.43.61,2.5,2.5,0,0,0,1.37-.4l-.13.52a2.64,2.64,0,0,1-1.38.33,2.07,2.07,0,0,1-1.73-.71,2.26,2.26,0,0,1-.26-2,3.38,3.38,0,0,1,1.21-1.91,3.17,3.17,0,0,1,2-.73A2.4,2.4,0,0,1,136.57,41.9Z"/><path class="cls-1" d="M137.31,46.45h2.34l-.44.44h-2.48l1.24-5.2h2.77v.44h-2.4l-.46,1.94h2v.44h-2.12Z"/><path class="cls-1" d="M150,41.69,147,46.89h-.66l-.53-5.2h.52l.2,2.06.24,2.72,1.58-2.72,1.2-2.06Z"/><path class="cls-1" d="M150.28,46.45h2.34l-.1.44H149.7l1.24-5.2h2.77l-.11.44h-2.29l-.46,1.94h2l-.1.44h-2Z"/><path class="cls-1" d="M158.48,41.9l-.12.5a2.52,2.52,0,0,0-.54-.25,2.67,2.67,0,0,0-2.35.53,2.82,2.82,0,0,0-1,1.58,1.91,1.91,0,0,0,.21,1.63,1.62,1.62,0,0,0,1.42.61,2.47,2.47,0,0,0,1.37-.4l-.12.52A2.66,2.66,0,0,1,156,47a2.08,2.08,0,0,1-1.74-.71,2.27,2.27,0,0,1-.25-2,3.42,3.42,0,0,1,1.2-1.91,3.21,3.21,0,0,1,2-.73A2.44,2.44,0,0,1,158.48,41.9Z"/><path class="cls-1" d="M159.17,46.45h2.34l-.1.44h-2.82l1.24-5.2h2.77l-.1.44h-2.3l-.46,1.94h2l-.1.44h-2Z"/><path class="cls-1" d="M170.35,46.89l-.15-1.44h-2.3l-.85,1.44h-.51l3.07-5.2h.7l.56,5.2ZM168.15,45h2l0-.33-.26-2.6-1.53,2.61Z"/><path class="cls-1" d="M165,41.69h-1.18l-1.24,5.2h.48l.49-2h0l.14-.58h0l.51-2.17H165c.86,0,1.19.38,1,1.14a1.41,1.41,0,0,1-1.45,1.1h-.47l-.42.43h.88l.8,2.11h.57l-.85-2.2a1.85,1.85,0,0,0,.91-.52,2.12,2.12,0,0,0,.51-.9,1.26,1.26,0,0,0-.18-1.17A1.6,1.6,0,0,0,165,41.69Z"/><path class="cls-1" d="M143.15,41.69H142l-1.24,5.2h.48l.48-2h0l.14-.58h0l.52-2.17h.75c.85,0,1.19.38,1,1.14a1.49,1.49,0,0,1-.5.79,1.46,1.46,0,0,1-1,.31h-.46l-.43.43h.89l.8,2.11H144l-.86-2.2a1.81,1.81,0,0,0,.91-.52,1.93,1.93,0,0,0,.51-.9,1.29,1.29,0,0,0-.17-1.17A1.64,1.64,0,0,0,143.15,41.69Z"/><path class="cls-1" d="M97.25,41.9l-.12.5a2,2,0,0,0-1.25-.33,2.57,2.57,0,0,0-1.64.61,2.8,2.8,0,0,0-1,1.58,1.91,1.91,0,0,0,.2,1.63,1.64,1.64,0,0,0,1.43.61,2.5,2.5,0,0,0,1.37-.4l-.13.52a2.66,2.66,0,0,1-1.38.33A2.07,2.07,0,0,1,93,46.24a2.26,2.26,0,0,1-.26-2A3.38,3.38,0,0,1,94,42.35a3.17,3.17,0,0,1,2-.73A2.42,2.42,0,0,1,97.25,41.9Z"/><path class="cls-1" d="M97.72,44.27a3.73,3.73,0,0,1,1.08-2,2.6,2.6,0,0,1,1.84-.73,1.62,1.62,0,0,1,1.51.72,2.65,2.65,0,0,1,.13,2,3.73,3.73,0,0,1-1.08,2,2.61,2.61,0,0,1-1.83.72,1.61,1.61,0,0,1-1.49-.73A2.51,2.51,0,0,1,97.72,44.27Zm.49,0a2.21,2.21,0,0,0,.1,1.62,1.26,1.26,0,0,0,1.17.6,2,2,0,0,0,1.45-.59,3.27,3.27,0,0,0,.86-1.63,2.31,2.31,0,0,0-.08-1.64,1.24,1.24,0,0,0-1.18-.59,2,2,0,0,0-1.45.59A3.31,3.31,0,0,0,98.21,44.27Z"/><path class="cls-1" d="M108.36,41.69H109l-.8,5.2h-.48l.31-2.06.4-2.52c-.52.86-3,4.74-3,4.74l-.72-4.68c-.23.77-.48,1.6-.75,2.46l-.64,2.06h-.48l1.6-5.2h.66l.55,4.25Z"/><path class="cls-1" d="M116.52,46.89l-.15-1.44h-2.3l-.85,1.44h-.52l3.08-5.2h.7l.55,5.2ZM114.31,45h2l0-.33-.26-2.6c-.11.21-.62,1.08-1.52,2.61Z"/><path class="cls-1" d="M117.81,46.89l1.24-5.2h.66l2,3.86c.12-.53,1.09-3.86,1.09-3.86h.48l-1.44,5.2-2.43-4.64c-.12.56-.31,1.37-.57,2.44l-.52,2.2Zm4.28-6.19.21.17a.76.76,0,0,1-.61.38.81.81,0,0,1-.38-.14A.85.85,0,0,0,121,41a.6.6,0,0,0-.46.29l-.17-.17a1,1,0,0,1,.3-.29.65.65,0,0,1,.37-.12.81.81,0,0,1,.39.14.8.8,0,0,0,.33.14C121.86,41,122,40.87,122.09,40.7Z"/><path class="cls-1" d="M123.12,46.89l1.24-5.2h.48l-1.24,5.2Zm1.4-5.63,1.07-.85h.62l-1.26.85Z"/><path class="cls-1" d="M128.35,46.89l-.15-1.44h-2.3l-.84,1.44h-.52l3.08-5.2h.69l.56,5.2ZM126.15,45h2l0-.33-.26-2.6c-.12.21-.62,1.08-1.53,2.61Z"/><path class="cls-1" d="M113.32,42.15a1.7,1.7,0,0,0-1.33-.46h-1.25l-1.24,5.2H110l.45-1.86h0l.14-.59h0l.55-2.33H112a1.18,1.18,0,0,1,1,.34,1,1,0,0,1,.15.91,1.38,1.38,0,0,1-.55.81,1.74,1.74,0,0,1-1,.32H111l-.43.43h.79a2.43,2.43,0,0,0,1.47-.46,1.89,1.89,0,0,0,.77-1.1A1.28,1.28,0,0,0,113.32,42.15Z"/><path class="cls-1" d="M98.84,49.21h1.73a2,2,0,0,1,1.69.69,1.87,1.87,0,0,1,.32,1.71,3.35,3.35,0,0,1-1.17,1.87,3.28,3.28,0,0,1-2,.68H97.64Zm.21,4h.52a1.68,1.68,0,0,0,1.17-.43,2.21,2.21,0,0,0,.67-1.2,1.24,1.24,0,0,0-.12-1.06,1.12,1.12,0,0,0-1-.41h-.52Z"/><path class="cls-1" d="M104.45,53.26h2.4l-.68.9H103.1l1.18-4.95h3l-.22.91H105.2l-.27,1.12h1.71l-.22.9h-1.7Z"/><path class="cls-1" d="M109.28,54.16l1.18-4.95h1.24l1.52,3.56c0-.37.77-3.56.77-3.56h1.13l-1.18,4.95H112.7l-1.55-3.58c-.2,1.1-.74,3.58-.74,3.58Z"/><path class="cls-1" d="M115.3,54.16l1.18-4.95h1.13l-1.18,4.95Z"/><path class="cls-1" d="M122.63,49.43l-.26,1.08a1.92,1.92,0,0,0-1.14-.34,1.67,1.67,0,0,0-1.1.42,2,2,0,0,0-.67,1.11,1.23,1.23,0,0,0,.15,1.09,1.12,1.12,0,0,0,.94.4,2.35,2.35,0,0,0,1.27-.36l-.26,1.11a2.83,2.83,0,0,1-1.36.28,2,2,0,0,1-1.65-.7,2,2,0,0,1-.3-1.82,3.26,3.26,0,0,1,1.15-1.84,3.05,3.05,0,0,1,2-.71A2.05,2.05,0,0,1,122.63,49.43Z"/><path class="cls-1" d="M125.75,54.16l-.06-1H124l-.54,1h-1.18l2.83-4.95h1.43l.47,4.95Zm-1.31-1.92h1.19v-.18c0-.48,0-.89-.05-1.22s0-.56,0-.66V50c-.1.27-.44.95-1,2Z"/><path class="cls-1" d="M135.77,54.16l-.06-1H134l-.54,1h-1.18l2.83-4.95h1.43l.47,4.95Zm-1.31-1.92h1.19v-.18c0-.48,0-.89,0-1.22s0-.56,0-.66V50c-.1.27-.44.95-1,2Z"/><path class="cls-1" d="M142.45,51.48l-.53,2.23a3.53,3.53,0,0,1-1.9.51,2.22,2.22,0,0,1-1.77-.68,2.06,2.06,0,0,1-.3-1.86,3.2,3.2,0,0,1,1.22-1.86,3.53,3.53,0,0,1,2.13-.7,2.82,2.82,0,0,1,1.38.31l-.27,1.13a2.4,2.4,0,0,0-1.35-.4,1.88,1.88,0,0,0-1.21.41,2,2,0,0,0-.68,1.11,1.3,1.3,0,0,0,.14,1.11,1.19,1.19,0,0,0,1,.41,2.41,2.41,0,0,0,.64-.09l.17-.68h-1l.65-1Z"/><path class="cls-1" d="M146.65,52.25l.73-3h1.13l-.73,3a2.54,2.54,0,0,1-.89,1.48,2.56,2.56,0,0,1-1.59.51,1.64,1.64,0,0,1-1.34-.51,1.54,1.54,0,0,1-.21-1.43l.73-3.09h1.13l-.73,3.08c-.15.61.07.92.66.92A1.07,1.07,0,0,0,146.65,52.25Z"/><path class="cls-1" d="M151.75,54.16l-.06-1H150l-.54,1h-1.18l2.83-4.95h1.42l.48,4.95Zm-1.3-1.92h1.19v-.18c0-.48,0-.89-.06-1.22s0-.56,0-.66V50c-.1.27-.45.95-1,2Z"/><path class="cls-1" d="M159.72,49.43l-.25,1.06a2.06,2.06,0,0,0-1.16-.35.81.81,0,0,0-.46.12.5.5,0,0,0-.22.3.32.32,0,0,0,.1.33,1.89,1.89,0,0,0,.48.31,2.1,2.1,0,0,1,.34.18,2.86,2.86,0,0,1,.29.21.88.88,0,0,1,.24.28,1.31,1.31,0,0,1,.11.38,1.11,1.11,0,0,1,0,.47,1.76,1.76,0,0,1-.75,1.09,2.82,2.82,0,0,1-2.75.1l.27-1.14a1.89,1.89,0,0,0,1.31.49.83.83,0,0,0,.46-.14.62.62,0,0,0,.25-.35.34.34,0,0,0,0-.14.21.21,0,0,0,0-.13l-.09-.1-.14-.09-.16-.09-.19-.11-.21-.1a1.7,1.7,0,0,1-.63-.54,1.06,1.06,0,0,1-.09-.86,1.67,1.67,0,0,1,.72-1,2.31,2.31,0,0,1,1.39-.4A2.73,2.73,0,0,1,159.72,49.43Z"/><path class="cls-1" d="M159.54,54a.52.52,0,0,1-.08-.46.78.78,0,0,1,.3-.46.8.8,0,0,1,.51-.2.5.5,0,0,1,.42.2.55.55,0,0,1,.08.46.93.93,0,0,1-.3.46.79.79,0,0,1-.51.19A.5.5,0,0,1,159.54,54Z"/><path class="cls-1" d="M166.45,54a.49.49,0,0,1-.08-.46.78.78,0,0,1,.3-.46.76.76,0,0,1,.51-.2.47.47,0,0,1,.41.2.49.49,0,0,1,.08.46.81.81,0,0,1-.3.46.77.77,0,0,1-.51.19A.47.47,0,0,1,166.45,54Z"/><path class="cls-1" d="M164.6,54.16l-.06-1h-1.73l-.55,1h-1.18l2.83-4.95h1.43l.47,4.95Zm-1.3-1.92h1.18v-.18c0-.48,0-.89-.06-1.22s0-.56,0-.66V50c-.11.27-.45.95-1,2Z"/><path class="cls-1" d="M132.14,50.66c.11-1.24-1-1.45-1.56-1.45h-1.71l-1.18,4.95h1.13l1-4h.56c.22,0,.73-.07.61.48a.64.64,0,0,1-.61.48h-.11l-.72.87h.38l.83,2.19h1.08l-.88-2.25A1.29,1.29,0,0,0,132.14,50.66Z"/><path class="cls-1" d="M52.8,39.35a3.11,3.11,0,0,0,.6,3.24,5.24,5.24,0,0,0,3.9,1.23,12.46,12.46,0,0,0,4.71-1l-.95,2.9a15,15,0,0,1-5.33.87q-4.47,0-6.57-2.07A5.25,5.25,0,0,1,48.09,39a9,9,0,0,1,4.15-5.1A16.42,16.42,0,0,1,60.74,32a11.19,11.19,0,0,1,4.56.78l-1,3a8.42,8.42,0,0,0-4.07-.89,9,9,0,0,0-4.73,1.23A6,6,0,0,0,52.8,39.35Z"/><path class="cls-1" d="M41.82,54.19a3.13,3.13,0,0,0,.61,3.24,5.24,5.24,0,0,0,3.9,1.23A12.5,12.5,0,0,0,51,57.71l-.95,2.91a15.32,15.32,0,0,1-5.33.86q-4.47,0-6.57-2.07a5.27,5.27,0,0,1-1.08-5.54,9,9,0,0,1,4.16-5.09,16.3,16.3,0,0,1,8.5-1.94,11.21,11.21,0,0,1,4.56.79l-1,3a8.34,8.34,0,0,0-4.07-.9,9,9,0,0,0-4.73,1.23A6.1,6.1,0,0,0,41.82,54.19Z"/><path class="cls-1" d="M67.08,46.43c-2.21,0-5.62.91-6.89,2.73l.62-2.09a15.85,15.85,0,0,1-4.4.57h-.65L52,60.45l5.69-2.71,1.25-4.2c1.15-3.89,5.25-4.18,6.17-4.18s3.19,0,2.32,2.84l-2.46,8.26,5.72-2.72,1.81-6.15C73.53,47.17,68.57,46.43,67.08,46.43Z"/><g class="cls-2"><path class="cls-1" d="M79.32,54l-.07.11.13,0a6.93,6.93,0,0,0,1.06.07,5.19,5.19,0,0,0,2.8-.69c2.44-1.64,4.09-6,4.76-9.26l-.16,0a24.18,24.18,0,0,1-1.74,5.26C82,49.67,79.34,53.92,79.32,54Z"/><path class="cls-1" d="M84,46.1a13.73,13.73,0,0,0-1.93,3.76L82,50l.14,0a5.91,5.91,0,0,0,3.77-2.34c1.44-2.09,1.6-7.43,1.49-9h-.17a29.2,29.2,0,0,1-.16,4.24c0,.28-.07.58-.12.89A13.35,13.35,0,0,0,84,46.1Z"/><path class="cls-1" d="M80.55,51.33l0,.11.09-.09a6.72,6.72,0,0,0,1.67-3.93,9.8,9.8,0,0,0-.85-4.09l1.19-2.51c.27-.58.56-1.17.84-1.77L83.38,39l-.84,1.77c-1.48,3.12-2.77,5.82-2.87,7.06A8.48,8.48,0,0,0,80.55,51.33Z"/><path class="cls-1" d="M82.62,46.47v.17l.14-.1a5.33,5.33,0,0,0,2.06-3.45,10,10,0,0,0-.15-3.85,9.45,9.45,0,0,0,.94-4.82l-.17,0a9.07,9.07,0,0,1-.94,4.74l-.23.39A8.58,8.58,0,0,0,83,42.44C82.77,43.61,82.63,46.44,82.62,46.47Z"/><path class="cls-1" d="M86.58,50a36,36,0,0,1-3,4.25,10.33,10.33,0,0,0-5.85,1.32,6.49,6.49,0,0,0-1,.71,5.58,5.58,0,0,0,.35-2,6.22,6.22,0,0,0-1-3.72c1-2,2.09-4,2.11-4l-.15-.08c-.15.26-3.64,6.53-3.74,8.22a5.21,5.21,0,0,0,.79,2.82h0S64.37,65.74,47.4,65.74c-14.75,0-18.27-6.53-18.27-6.53S32.74,68,47.79,68a43.11,43.11,0,0,0,27.73-9.93l.07,0a3.33,3.33,0,0,0,.71-.78,10.4,10.4,0,0,0,2.76.44c.71,0,3.36-.54,7.66-7.56Z"/><path class="cls-1" d="M78.08,54.79l.06.13.08-.11a8.25,8.25,0,0,0,1.38-3.62,8.11,8.11,0,0,0-1-4.32c.84-1.64,1.82-3.2,2.3-4l-.14-.1c-.93,1.47-3.75,5.95-3.75,8.17A10.59,10.59,0,0,0,78.08,54.79Z"/></g></g></svg>