<svg xmlns="http://www.w3.org/2000/svg" viewBox="0 0 200 100"><defs><style>.cls-1{opacity:0.6;}.cls-2{fill:#34473d;}</style></defs><g id="DIANA"><g id="cerveceria" class="cls-1"><path class="cls-2" d="M30.15,63.31s2.76-2.62,10.28-2.43,14.5,2.54,18.3,2.75a24.17,24.17,0,0,0,9.77-1.06s-2.71,1.93-8.76,1.93S46.19,61.8,40,61.8A27.42,27.42,0,0,0,30.15,63.31Z"/><path class="cls-2" d="M37.71,60.13S41,60.62,42,58.48a5.71,5.71,0,0,0-3.79.85s-.83-2.41-2.17-2.78A4.78,4.78,0,0,0,37.71,60.13Z"/><path class="cls-2" d="M39.57,56.86a7.7,7.7,0,0,0,1.72,0c.58-.13,1.43-1.44,2-1.41a4.51,4.51,0,0,0-3.3.73s-.86-2.23-1.68-2.29C38.26,53.89,37.89,54.9,39.57,56.86Z"/><path class="cls-2" d="M41.32,53.89a3.64,3.64,0,0,0,3.45-1.44s-2.2-.24-3.15.74c0,0-1-2.33-1.65-2.24C40,51,39.79,52.18,41.32,53.89Z"/><path class="cls-2" d="M42.94,50.8a2.82,2.82,0,0,0,2.93-1.13,3.85,3.85,0,0,0-2.63.46s-.91-1.71-1.43-1.8A2.7,2.7,0,0,0,42.94,50.8Z"/><path class="cls-2" d="M44.31,48.45A2.88,2.88,0,0,0,47,47.32a2.44,2.44,0,0,0-2.26.45S43.67,46,43,46.15a3.12,3.12,0,0,1,.61,1.16C43.76,48,43.82,48.23,44.31,48.45Z"/><path class="cls-2" d="M45.57,45.88a2.51,2.51,0,0,0,1.77-.15c.8-.46.83-.8.83-.8a5.81,5.81,0,0,0-2.3.34s-.61-1.47-1.22-1.47A2.11,2.11,0,0,0,45.57,45.88Z"/><path class="cls-2" d="M51.56,35S48.32,40.59,48,41.17,46.06,43,46.21,43.8s1,.55,1.34,0,.49-1.8,1-2.63S51.29,35.83,51.56,35Z"/><path class="cls-2" d="M48.43,42.83a7,7,0,0,1,3-2.87c2.34-1.37,3.53-1.1,3.53-1.1a9.88,9.88,0,0,0-4.58,2.36C48.57,43,48.43,42.83,48.43,42.83Z"/><path class="cls-2" d="M46.39,41.84a5.26,5.26,0,0,0,1.22-3.51c.11-2.47-.74-3.18-.74-3.18s.53.94.28,3.46A7.65,7.65,0,0,1,46.39,41.84Z"/><polygon class="cls-2" points="37.15 62.58 35.7 65 35.09 65 36.53 62.58 37.15 62.58"/><polygon class="cls-2" points="50.33 52.88 50.75 54.17 52.12 54.18 51.02 54.99 51.44 56.28 50.33 55.48 49.23 56.28 49.65 54.99 48.55 54.18 49.92 54.17 50.33 52.88"/><polygon class="cls-2" points="58.45 49.25 58.87 50.54 60.24 50.55 59.13 51.35 59.56 52.65 58.45 51.85 57.35 52.65 57.77 51.35 56.66 50.55 58.03 50.54 58.45 49.25"/><polygon class="cls-2" points="55.39 43.36 55.81 44.65 57.18 44.66 56.07 45.46 56.49 46.76 55.39 45.96 54.28 46.76 54.71 45.46 53.6 44.66 54.97 44.65 55.39 43.36"/><polygon class="cls-2" points="61.3 54.97 61.72 56.25 63.09 56.26 61.98 57.06 62.41 58.36 61.3 57.56 60.2 58.36 60.62 57.06 59.51 56.26 60.88 56.25 61.3 54.97"/><polygon class="cls-2" points="66.36 45.44 66.78 46.73 68.14 46.74 67.04 47.54 67.46 48.84 66.36 48.04 65.25 48.84 65.67 47.54 64.57 46.74 65.94 46.73 66.36 45.44"/></g><path class="cls-2" d="M80.64,41a6.81,6.81,0,0,0-3.1-1.51,3.62,3.62,0,0,0-2,1.59,5.32,5.32,0,0,0-.45,2.45,4.66,4.66,0,0,0,1.06,2.93,4.29,4.29,0,0,0,2.73,1.69c.77-.22,1.3-1.07,1.6-2.55l1.67.34c-.26,1.81-1.89,2.71-4.91,2.71a3.75,3.75,0,0,1-3-1.5A4.89,4.89,0,0,1,73.13,44a4.3,4.3,0,0,1,1.14-3.09,7.42,7.42,0,0,1,3-1.74c.35-.11.87-.28,1.55-.54A7.4,7.4,0,0,1,82,40Z"/><path class="cls-2" d="M132.18,41a6.83,6.83,0,0,0-3.11-1.51A3.55,3.55,0,0,0,127.12,41a5.32,5.32,0,0,0-.45,2.45,4.7,4.7,0,0,0,1,2.93,4.31,4.31,0,0,0,2.74,1.69c.76-.22,1.29-1.07,1.6-2.55l1.66.34c-.25,1.81-1.89,2.71-4.9,2.71a3.74,3.74,0,0,1-3-1.5A4.89,4.89,0,0,1,124.67,44a4.34,4.34,0,0,1,1.13-3.09,7.47,7.47,0,0,1,3-1.74c.34-.11.86-.28,1.54-.54A7.44,7.44,0,0,1,133.51,40Z"/><path class="cls-2" d="M91.1,41.16c-1.37-1.16-2.47-1.75-3.29-1.75a2,2,0,0,0-1.74,1.34A5.12,5.12,0,0,0,85.59,43l4.27.1a3.91,3.91,0,0,0,1.67-.41l.16.3a7.24,7.24,0,0,1-4,1h-1l-1.08,0a4.06,4.06,0,0,0,.64,2A5,5,0,0,0,88,47.31a3.46,3.46,0,0,0,1.6.51A1.43,1.43,0,0,0,90.91,47s.21-.55.55-1.53l1.28.41a3.15,3.15,0,0,1-1.24,1.89,10.52,10.52,0,0,1-2.32.6,11.77,11.77,0,0,1-1.35.23,2.83,2.83,0,0,1-.79-.18,4.6,4.6,0,0,1-3.57-4.75,4.37,4.37,0,0,1,2.76-4.06,7.62,7.62,0,0,1,2.86-1,5.19,5.19,0,0,1,3.35,1.45Z"/><path class="cls-2" d="M103.86,48.11v.3a5.46,5.46,0,0,1-1.78.27l-.69,0a3.38,3.38,0,0,1-1.79-.83c-.22-.17-.71-.63-1.46-1.36-.48-.48-.82-.72-1-.71h-.21l-.09,2.45-2.06.39c0-.51,0-1.37,0-2.59s0-2,0-2.6,0-1.3,0-2.1c0-.56-.42-1.58-.81-1.66v-.22l2.46-.67c.08.24.18.61.3,1.1a7.91,7.91,0,0,1,2.94-1.42,3.37,3.37,0,0,1,2.49,1.12,3.46,3.46,0,0,1,1.1,2.46,2.6,2.6,0,0,1-1,2.15,24.24,24.24,0,0,1-2.2,1.19,11,11,0,0,0,1.7,1.71A3.55,3.55,0,0,0,103.86,48.11Zm-2.62-5.45a3.2,3.2,0,0,0-.88-2,2.63,2.63,0,0,0-2-1.09c-1,0-1.5,1.13-1.5,3.37v2.48h.48a4.87,4.87,0,0,0,2.63-.55A2.34,2.34,0,0,0,101.24,42.66Z"/><path class="cls-2" d="M155.06,48.11v.3a5.48,5.48,0,0,1-1.79.27l-.68,0a3.38,3.38,0,0,1-1.79-.83c-.23-.17-.71-.63-1.46-1.36-.48-.48-.82-.72-1-.71h-.2L148,48.21,146,48.6c0-.51,0-1.37,0-2.59s0-2,0-2.6,0-1.3,0-2.1c0-.56-.42-1.58-.81-1.66v-.22l2.46-.67c.08.24.17.61.3,1.1a8,8,0,0,1,2.93-1.42,3.37,3.37,0,0,1,2.5,1.12A3.44,3.44,0,0,1,154.46,42a2.6,2.6,0,0,1-1,2.15c-.19.14-.92.54-2.2,1.19a10.55,10.55,0,0,0,1.7,1.71A3.55,3.55,0,0,0,155.06,48.11Zm-2.62-5.45a3.26,3.26,0,0,0-.88-2,2.63,2.63,0,0,0-2-1.09c-1,0-1.49,1.13-1.49,3.37v2.48h.47a4.88,4.88,0,0,0,2.64-.55A2.34,2.34,0,0,0,152.44,42.66Z"/><path class="cls-2" d="M110.27,46.74c.42-1.15.85-2.31,1.27-3.47a11.82,11.82,0,0,0,.63-3.59c0-.21,0-.43,0-.64a7.87,7.87,0,0,0,1.39,0v0a1.48,1.48,0,0,1-.11.63l-2.69,7.38a2.37,2.37,0,0,0-.17.73s0,.14.06.51l-2,.27a3.3,3.3,0,0,0-.37-1.42l-3-6a2.62,2.62,0,0,0-1.2-1.32v-.15l2.23-.94Z"/><path class="cls-2" d="M121.73,41.16c-1.37-1.16-2.46-1.75-3.29-1.75a2,2,0,0,0-1.73,1.34,5.12,5.12,0,0,0-.48,2.23l4.26.1a3.91,3.91,0,0,0,1.67-.41l.16.3a7.21,7.21,0,0,1-4,1h-1l-1.08,0a4.06,4.06,0,0,0,.64,2,4.9,4.9,0,0,0,1.69,1.37,3.46,3.46,0,0,0,1.59.51,1.43,1.43,0,0,0,1.35-.82s.21-.55.55-1.53l1.27.41a3.15,3.15,0,0,1-1.23,1.89,10.34,10.34,0,0,1-2.32.6,11.08,11.08,0,0,1-1.35.23,2.85,2.85,0,0,1-.78-.18,4.6,4.6,0,0,1-3.56-4.75,4.38,4.38,0,0,1,2.75-4.06,7.56,7.56,0,0,1,2.86-1,5.19,5.19,0,0,1,3.34,1.45Z"/><path class="cls-2" d="M142.61,41.16c-1.36-1.16-2.46-1.75-3.28-1.75a1.94,1.94,0,0,0-1.73,1.34,5,5,0,0,0-.49,2.23l4.26.1a4,4,0,0,0,1.68-.41l.16.3a7.26,7.26,0,0,1-4,1h-1l-1.08,0a4.17,4.17,0,0,0,.64,2,5,5,0,0,0,1.7,1.37,3.39,3.39,0,0,0,1.59.51,1.42,1.42,0,0,0,1.34-.82,15.54,15.54,0,0,0,.55-1.53l1.28.41A3.15,3.15,0,0,1,143,47.77a10.34,10.34,0,0,1-2.32.6,11.4,11.4,0,0,1-1.34.23,2.83,2.83,0,0,1-.79-.18A4.6,4.6,0,0,1,135,43.67a4.37,4.37,0,0,1,2.76-4.06,7.53,7.53,0,0,1,2.85-1A5.16,5.16,0,0,1,144,40.08Z"/><path class="cls-2" d="M158.66,48.22l-2,.37c0-.63,0-1.57,0-2.83s0-2.2,0-2.84c0-1.38,0-2.34-.05-2.88s-.21-.72-.55-.7v-.26l2.57-.38Z"/><path class="cls-2" d="M169.85,48.45A23.48,23.48,0,0,0,167.91,44a45.87,45.87,0,0,1-2.44-5.54l-2.61,1.08a8.72,8.72,0,0,1-.37,4.39,9.83,9.83,0,0,1-2.67,4.53h1.49A14.1,14.1,0,0,0,163,44.58h3.27c1,2,1.38,3,1.33,3.87Zm-4.14-4.89h-2.48c.3-1.25.5-2.27.62-3A18.36,18.36,0,0,1,165.71,43.56Z"/><path class="cls-2" d="M138.15,59.67V60a5.45,5.45,0,0,1-1.78.28l-.69,0a3.3,3.3,0,0,1-1.78-.82c-.23-.18-.72-.64-1.47-1.37-.48-.48-.82-.71-1-.71h-.21l-.09,2.45-2.06.4c0-.52,0-1.38,0-2.6s0-2,0-2.6,0-1.29,0-2.1c0-.55-.42-1.58-.81-1.66V51l2.46-.66c.08.23.18.6.3,1.1A8,8,0,0,1,134,50a3.39,3.39,0,0,1,2.5,1.12,3.51,3.51,0,0,1,1.09,2.47,2.58,2.58,0,0,1-1,2.14,23,23,0,0,1-2.2,1.2,11,11,0,0,0,1.7,1.71A3.52,3.52,0,0,0,138.15,59.67Zm-2.62-5.44a3.16,3.16,0,0,0-.88-2,2.6,2.6,0,0,0-2-1.09q-1.5,0-1.5,3.36v2.48h.48a4.78,4.78,0,0,0,2.63-.54A2.35,2.35,0,0,0,135.53,54.23Z"/><path class="cls-2" d="M146.9,52.78c-1.37-1.16-2.46-1.74-3.29-1.74a1.92,1.92,0,0,0-1.73,1.34,5.09,5.09,0,0,0-.48,2.23l4.26.09a3.89,3.89,0,0,0,1.67-.4l.16.29a7.21,7.21,0,0,1-4,1l-1,0-1.08,0a4.06,4.06,0,0,0,.64,2,4.9,4.9,0,0,0,1.69,1.37,3.39,3.39,0,0,0,1.59.51,1.43,1.43,0,0,0,1.35-.81c0-.05.21-.56.55-1.54l1.27.41a3.18,3.18,0,0,1-1.23,1.9A11.24,11.24,0,0,1,145,60a11.08,11.08,0,0,1-1.35.23,3.15,3.15,0,0,1-.78-.17,4.61,4.61,0,0,1-3.56-4.76,4.37,4.37,0,0,1,2.75-4,7.4,7.4,0,0,1,2.86-1,5.19,5.19,0,0,1,3.34,1.45Z"/><path class="cls-2" d="M169.85,60.14a23.13,23.13,0,0,0-1.94-4.46,46.32,46.32,0,0,1-2.44-5.55l-2.61,1.09a8.72,8.72,0,0,1-.37,4.39,9.94,9.94,0,0,1-2.67,4.53h1.49A14.1,14.1,0,0,0,163,56.27h3.27c1,2,1.38,2.94,1.33,3.87Zm-4.14-4.9h-2.48c.3-1.24.5-2.27.62-3A18.36,18.36,0,0,1,165.71,55.24Z"/><path class="cls-2" d="M95,55.15q0,3.74-4.61,4.83a9.77,9.77,0,0,1-1.77.3,2.93,2.93,0,0,1-.76-.14A5.51,5.51,0,0,1,85,58.43a4.36,4.36,0,0,1-1-2.92q0-2.8,3-4.28c.32-.16.82-.36,1.49-.61A6.32,6.32,0,0,1,90,50.2a5.18,5.18,0,0,1,2,.54,6.42,6.42,0,0,1,1.72,1A4.39,4.39,0,0,1,95,55.15Zm-4.32,4.31a2.31,2.31,0,0,0,1.81-1.3,4.46,4.46,0,0,0,.46-2.1,4.67,4.67,0,0,0-.69-2.66,5.07,5.07,0,0,0-2.43-1.76,4.71,4.71,0,0,0-1.69-.4c-.73,0-1.28.47-1.64,1.42a6.11,6.11,0,0,0-.39,2.21A4.08,4.08,0,0,0,87.24,58,7.42,7.42,0,0,0,90.72,59.46Z"/><path class="cls-2" d="M122.57,59.36A3.9,3.9,0,0,0,124.24,56V50.61l2-.2-.12,6.7a4.12,4.12,0,0,0,.14,1.15c.14.49,1,.63,1.14.58v.32l-1.89.9a5,5,0,0,1-1.22-1.62,10.82,10.82,0,0,1-1.5,1.11,3.55,3.55,0,0,1-1.63.7,3.2,3.2,0,0,1-3.43-3.42c0-.44,0-1.11.1-2s.11-1.55.11-2c0-1.25-.16-1.87-.49-1.85V50.7l2.52-.29q-.25,5.88-.26,6.06a2.72,2.72,0,0,0,.79,2A3.27,3.27,0,0,0,122.57,59.36Z"/><path class="cls-2" d="M80,50.69v.17c.5,0,.56.83.56.83v3H75.69V50.2L73,50.72V51c.21,0,.21.41.21.41v9.33l2.44-1.34V55.68h4.87v5l1.63-.43V50.2Z"/><path class="cls-2" d="M96.37,51.24v9a3.47,3.47,0,0,0,1.14-.48A7.33,7.33,0,0,0,97.2,58V53.56l.31-.17,7.27,6.89.67-.62V51l-1.49-.6,0,0a1.44,1.44,0,0,1,.23.5V57l-6.79-6.61Z"/><path class="cls-2" d="M152.91,49.18c1.23,0,1.94,1.2,2.92,1.2a2.47,2.47,0,0,0,1.6-.58,1.77,1.77,0,0,1-1.68,1c-.87.08-2-.71-2.84-.79a3.63,3.63,0,0,0-1.43.13A1.33,1.33,0,0,1,152.91,49.18Zm-3,2.06v9a3.46,3.46,0,0,0,1.13-.48,7.12,7.12,0,0,0-.3-1.77V53.56l.3-.17,7.28,6.89.66-.62V51l-1.48-.6,0,0a1.64,1.64,0,0,1,.22.5V57l-6.79-6.61Z"/><path class="cls-2" d="M107.11,60.25l.31-.56V52.07s0-1-.67-1v-.22l2.51-.49v.87a3.45,3.45,0,0,1,2.46-.82,4.6,4.6,0,0,1,4.8,4.91,4.81,4.81,0,0,1-4.88,5.16,5.81,5.81,0,0,1-3.21-1h-.14l-1.12.85Zm2.15-7.8v5.66s.06,1.12,2.23,1.12,3.09-1.66,3.09-3.6a3.89,3.89,0,0,0-2.93-4,2.71,2.71,0,0,0-1.71.17A1.42,1.42,0,0,0,109.26,52.45Z"/></g></svg>