<svg id="LAGEO" xmlns="http://www.w3.org/2000/svg" viewBox="0 0 200 100"><defs><style>.cls-1,.cls-2{fill:#34473d;}.cls-2{opacity:0.5;}</style></defs><path class="cls-1" d="M29,44.14h1.88v8.92h4.44v1.82H29Z"/><path class="cls-1" d="M49.57,54.88h-2l-.91-2.16H41.22l-.92,2.16H38.36l4.73-10.82h1.75Zm-5.64-8.56-2.08,4.85H46Z"/><path class="cls-2" d="M86.33,39a56.31,56.31,0,0,0-4.9,4.34A8.44,8.44,0,0,0,69.5,55.29l-4.17,4.17a.52.52,0,1,0,.73.73L70.25,56a8.37,8.37,0,0,0,5.47,2,8.45,8.45,0,0,0,6.42-13.94c1.62-1.69,3.51-4,4.31-5A.09.09,0,0,0,86.33,39ZM82.79,49.58A7.07,7.07,0,0,1,71.22,55l4.68-4.68a.52.52,0,0,0-.73-.73l-4.69,4.69a7,7,0,0,1-1.83-4.73,7.07,7.07,0,0,1,14.14,0Z"/><path class="cls-1" d="M94.53,44.21h1.82V55H94.81l-5.74-7.64V55H87.25V44.21H89l5.58,7.43Z"/><path class="cls-1" d="M101.63,47.57A1.15,1.15,0,0,0,102,48a3.2,3.2,0,0,0,.7.37c.3.11.68.23,1.14.35a9,9,0,0,1,1.34.48,3.25,3.25,0,0,1,1,.63,2.59,2.59,0,0,1,.58.88,3.18,3.18,0,0,1,.2,1.17,3.49,3.49,0,0,1-.25,1.37,2.86,2.86,0,0,1-1.78,1.64,4.34,4.34,0,0,1-1.38.22,4.69,4.69,0,0,1-4.18-2.55l1.53-.9c.44.6,1.12,1.77,2.44,1.77a2.41,2.41,0,0,0,1.39-.47,1.23,1.23,0,0,0,.46-1,2.09,2.09,0,0,0-.09-.52c-.2-.74-1.49-1.14-1.94-1.26a10.9,10.9,0,0,1-1.36-.44,3.46,3.46,0,0,1-1-.62,2.42,2.42,0,0,1-.88-1.93,3.19,3.19,0,0,1,.25-1.29,2.84,2.84,0,0,1,1.7-1.62,3.73,3.73,0,0,1,1.32-.23,4.18,4.18,0,0,1,3.6,2.08l-1.42.9a2.86,2.86,0,0,0-2.21-1.3,1.64,1.64,0,0,0-1.15.37,1.18,1.18,0,0,0-.41.92A1.51,1.51,0,0,0,101.63,47.57Z"/><path class="cls-1" d="M113.39,55h-1.91V46h-2.86V44.21h7.52V46h-2.75Z"/><path class="cls-1" d="M128.16,55h-2l-.94-2.24h-5.38l-1,2.24H117l4.72-10.82h1.75Zm-5.63-8.56-2,4.76h4.11Z"/><path class="cls-1" d="M170.66,55h-2l-.94-2.24h-5.38l-1,2.24h-1.93l4.73-10.82h1.75ZM165,46.39l-2,4.76h4.1Z"/><path class="cls-1" d="M137.87,44.21h1.82V55h-1.54l-5.74-7.64V55h-1.82V44.21h1.7l5.58,7.43Z"/><path class="cls-1" d="M156.37,44.21V55H154.5V44.21Z"/><path class="cls-1" d="M64.14,53a3.53,3.53,0,0,1-1.68.37A3.31,3.31,0,0,1,61,53.1a3.42,3.42,0,0,1-1.13-.82,3.76,3.76,0,0,1-.74-1.22,4.3,4.3,0,0,1-.26-1.5,4.22,4.22,0,0,1,.26-1.48,3.72,3.72,0,0,1,.74-1.21A3.54,3.54,0,0,1,61,46.06a3.31,3.31,0,0,1,1.42-.3,3.51,3.51,0,0,1,1.64.37,5.44,5.44,0,0,1,.79.49l1.19-1.43a1.84,1.84,0,0,0-.22-.17,5.61,5.61,0,0,0-.93-.53,5.24,5.24,0,0,0-1.12-.34A6.84,6.84,0,0,0,62.47,44a5.63,5.63,0,0,0-2.24.44,5.35,5.35,0,0,0-1.75,1.2,5.49,5.49,0,0,0-1.14,1.77,5.82,5.82,0,0,0-.41,2.17,5.59,5.59,0,0,0,.42,2.17,5.14,5.14,0,0,0,1.14,1.76,5.26,5.26,0,0,0,1.73,1.18,5.53,5.53,0,0,0,2.17.43A7.27,7.27,0,0,0,63.77,55a5.1,5.1,0,0,0,1.14-.39,6.12,6.12,0,0,0,1-.6l.25-.2L65,52.44A6,6,0,0,1,64.14,53Z"/><path class="cls-1" d="M149.67,53a3.57,3.57,0,0,1-1.69.37,3.35,3.35,0,0,1-1.42-.3,3.53,3.53,0,0,1-1.13-.82,3.57,3.57,0,0,1-.73-1.22,4.08,4.08,0,0,1-.27-1.5,4,4,0,0,1,.27-1.48,3.53,3.53,0,0,1,.73-1.21,3.66,3.66,0,0,1,1.13-.81,3.35,3.35,0,0,1,1.42-.3,3.51,3.51,0,0,1,1.64.37,5.54,5.54,0,0,1,.8.49l1.18-1.43-.21-.17a5.71,5.71,0,0,0-.94-.53,5.33,5.33,0,0,0-1.11-.34A6.92,6.92,0,0,0,148,44a5.68,5.68,0,0,0-2.25.44,5.35,5.35,0,0,0-2.89,3,5.82,5.82,0,0,0-.41,2.17,5.59,5.59,0,0,0,.42,2.17A5.45,5.45,0,0,0,144,53.53a5.37,5.37,0,0,0,1.73,1.18,5.54,5.54,0,0,0,2.18.43,7.16,7.16,0,0,0,1.37-.13,5,5,0,0,0,1.15-.39,6,6,0,0,0,1-.6l.26-.2-1.11-1.38A6.52,6.52,0,0,1,149.67,53Z"/><path class="cls-1" d="M108.87,57.92h.53v2.55H111V61h-2.12Z"/><path class="cls-1" d="M114.28,60a1.51,1.51,0,0,1-.33.49,1.43,1.43,0,0,1-.5.34,1.53,1.53,0,0,1-.64.13,1.54,1.54,0,0,1-1.14-.46,1.56,1.56,0,0,1-.33-.5,1.72,1.72,0,0,1,0-1.21,1.67,1.67,0,0,1,.33-.5,1.77,1.77,0,0,1,.5-.34,1.69,1.69,0,0,1,.64-.12,1.62,1.62,0,0,1,.64.12,1.35,1.35,0,0,1,.5.34,1.51,1.51,0,0,1,.33.49,1.78,1.78,0,0,1,.11.61A1.83,1.83,0,0,1,114.28,60Zm-.52-1a1,1,0,0,0-.21-.34,1,1,0,0,0-.33-.24,1.11,1.11,0,0,0-.41-.08,1,1,0,0,0-.42.08,1,1,0,0,0-.32.23,1.08,1.08,0,0,0-.21.34,1.14,1.14,0,0,0,0,.84,1.08,1.08,0,0,0,.21.34.86.86,0,0,0,.33.23,1,1,0,0,0,.41.09,1.16,1.16,0,0,0,.42-.08,1.24,1.24,0,0,0,.32-.23,1.08,1.08,0,0,0,.21-.34,1.2,1.2,0,0,0,.08-.42A1.16,1.16,0,0,0,113.76,59Z"/><path class="cls-1" d="M146.45,57.92H147v3h-.45l-1.66-2.16V61h-.53v-3h.49L146.45,60Z"/><path class="cls-1" d="M151,60a1.34,1.34,0,0,1-.32.49,1.64,1.64,0,0,1-1.15.47,1.69,1.69,0,0,1-.64-.12,1.59,1.59,0,0,1-.49-.34A1.56,1.56,0,0,1,148,60a1.59,1.59,0,0,1,0-1.21,1.67,1.67,0,0,1,.33-.5,1.77,1.77,0,0,1,.5-.34,1.66,1.66,0,0,1,.64-.12,1.62,1.62,0,0,1,.64.12,1.52,1.52,0,0,1,.82.83,1.58,1.58,0,0,1,.12.61A1.62,1.62,0,0,1,151,60Zm-.51-1a1,1,0,0,0-.21-.34,1.12,1.12,0,0,0-.33-.24,1.16,1.16,0,0,0-.42-.08,1,1,0,0,0-.73.31,1.08,1.08,0,0,0-.21.34,1.14,1.14,0,0,0,0,.84,1.08,1.08,0,0,0,.21.34.86.86,0,0,0,.33.23.91.91,0,0,0,.41.09,1.16,1.16,0,0,0,.42-.08,1.24,1.24,0,0,0,.32-.23,1.08,1.08,0,0,0,.21-.34,1.2,1.2,0,0,0,.07-.42A1.16,1.16,0,0,0,150.46,59Z"/><path class="cls-1" d="M152.49,58.87a.4.4,0,0,0,.11.12.9.9,0,0,0,.22.1l.36.1a3.62,3.62,0,0,1,.43.14.75.75,0,0,1,.3.18.66.66,0,0,1,.25.57.93.93,0,0,1-.08.39.76.76,0,0,1-.22.28,1,1,0,0,1-.34.18,1.51,1.51,0,0,1-.44.06,1.89,1.89,0,0,1-.67-.12,1.91,1.91,0,0,1-.59-.36l.32-.38a2.22,2.22,0,0,0,.44.29,1.19,1.19,0,0,0,.51.1.68.68,0,0,0,.4-.1.36.36,0,0,0,.14-.29.32.32,0,0,0,0-.14.23.23,0,0,0-.1-.12.69.69,0,0,0-.21-.1,2.94,2.94,0,0,0-.34-.1,3.35,3.35,0,0,1-.44-.13.92.92,0,0,1-.31-.17.69.69,0,0,1-.2-.25,1,1,0,0,1-.07-.36.86.86,0,0,1,.08-.36.83.83,0,0,1,.21-.28.88.88,0,0,1,.33-.18,1.35,1.35,0,0,1,.41-.06,1.8,1.8,0,0,1,.6.09,1.68,1.68,0,0,1,.5.29l-.28.4a1.9,1.9,0,0,0-.41-.23,1,1,0,0,0-.41-.08.58.58,0,0,0-.37.1.35.35,0,0,0-.13.26A.41.41,0,0,0,152.49,58.87Z"/><path class="cls-1" d="M158,60a1.51,1.51,0,0,1-.33.49,1.64,1.64,0,0,1-1.15.47,1.69,1.69,0,0,1-.64-.12,1.59,1.59,0,0,1-.49-.34,1.56,1.56,0,0,1-.33-.5,1.59,1.59,0,0,1,0-1.21,1.67,1.67,0,0,1,.33-.5,1.77,1.77,0,0,1,.5-.34,1.69,1.69,0,0,1,.64-.12,1.62,1.62,0,0,1,.64.12,1.35,1.35,0,0,1,.5.34,1.51,1.51,0,0,1,.33.49,1.78,1.78,0,0,1,.11.61A1.83,1.83,0,0,1,158,60Zm-.52-1a1,1,0,0,0-.21-.34,1,1,0,0,0-.33-.24,1.16,1.16,0,0,0-.42-.08.94.94,0,0,0-.41.08,1,1,0,0,0-.32.23,1.08,1.08,0,0,0-.21.34,1.14,1.14,0,0,0,0,.84,1.08,1.08,0,0,0,.21.34.86.86,0,0,0,.33.23.91.91,0,0,0,.41.09,1.16,1.16,0,0,0,.42-.08,1.24,1.24,0,0,0,.32-.23,1.08,1.08,0,0,0,.21-.34,1.2,1.2,0,0,0,.07-.42A1.16,1.16,0,0,0,157.49,59Z"/><path class="cls-1" d="M160.09,61h-.54V58.41h-1v-.49h2.46v.49h-1Z"/><path class="cls-1" d="M163.71,61,163,59.89h-.67V61h-.53v-3h1.35a1.41,1.41,0,0,1,.47.07.79.79,0,0,1,.35.19.76.76,0,0,1,.23.3,1,1,0,0,1,.08.4.9.9,0,0,1-.06.34.61.61,0,0,1-.15.26.9.9,0,0,1-.23.2,1.1,1.1,0,0,1-.29.12l.82,1.15Zm-.17-2.42a.72.72,0,0,0-.46-.13h-.78v1h.78a.74.74,0,0,0,.46-.14.46.46,0,0,0,.16-.37A.44.44,0,0,0,163.54,58.53Z"/><path class="cls-1" d="M167.87,60a1.51,1.51,0,0,1-.33.49,1.64,1.64,0,0,1-1.15.47,1.69,1.69,0,0,1-.64-.12,1.59,1.59,0,0,1-.49-.34,1.56,1.56,0,0,1-.33-.5,1.59,1.59,0,0,1,0-1.21,1.67,1.67,0,0,1,.33-.5,1.77,1.77,0,0,1,.5-.34,1.69,1.69,0,0,1,.64-.12A1.62,1.62,0,0,1,167,58a1.35,1.35,0,0,1,.5.34,1.51,1.51,0,0,1,.33.49,1.78,1.78,0,0,1,.11.61A1.83,1.83,0,0,1,167.87,60Zm-.52-1a1,1,0,0,0-.21-.34,1,1,0,0,0-.33-.24,1.16,1.16,0,0,0-.42-.08.94.94,0,0,0-.41.08,1,1,0,0,0-.32.23,1.08,1.08,0,0,0-.21.34,1.14,1.14,0,0,0,0,.84,1.08,1.08,0,0,0,.21.34.86.86,0,0,0,.33.23.91.91,0,0,0,.41.09,1.16,1.16,0,0,0,.42-.08,1.24,1.24,0,0,0,.32-.23,1.08,1.08,0,0,0,.21-.34,1.2,1.2,0,0,0,.07-.42A1.16,1.16,0,0,0,167.35,59Z"/><path class="cls-1" d="M169.33,58.87a.4.4,0,0,0,.11.12.76.76,0,0,0,.22.1l.36.1a3,3,0,0,1,.42.14.73.73,0,0,1,.31.18.69.69,0,0,1,.18.24.72.72,0,0,1,.07.33.93.93,0,0,1-.08.39.88.88,0,0,1-.22.28,1,1,0,0,1-.34.18,1.56,1.56,0,0,1-.44.06,1.89,1.89,0,0,1-.67-.12,1.8,1.8,0,0,1-.59-.36l.32-.38a2,2,0,0,0,.44.29,1.19,1.19,0,0,0,.51.1.63.63,0,0,0,.39-.1.34.34,0,0,0,.15-.29.32.32,0,0,0,0-.14.23.23,0,0,0-.1-.12.69.69,0,0,0-.21-.1l-.35-.1a3.68,3.68,0,0,1-.43-.13,1.09,1.09,0,0,1-.32-.17.67.67,0,0,1-.19-.25.8.8,0,0,1-.07-.36.86.86,0,0,1,.08-.36.83.83,0,0,1,.21-.28.88.88,0,0,1,.33-.18,1.31,1.31,0,0,1,.41-.06,1.89,1.89,0,0,1,.6.09,1.68,1.68,0,0,1,.5.29l-.28.4a1.75,1.75,0,0,0-.42-.23,1,1,0,0,0-.41-.08.57.57,0,0,0-.36.1.32.32,0,0,0-.13.26A.41.41,0,0,0,169.33,58.87Z"/><path class="cls-1" d="M138.82,60a1.46,1.46,0,0,1-.84.8,1.75,1.75,0,0,1-.65.12H136.2v-3h1.13A2,2,0,0,1,138,58a1.64,1.64,0,0,1,.51.32,1.58,1.58,0,0,1,.33.48,1.56,1.56,0,0,1,0,1.2Zm-.52-1a1,1,0,0,0-.21-.32.83.83,0,0,0-.33-.22,1.22,1.22,0,0,0-.43-.08h-.6v2.07h.6a1.22,1.22,0,0,0,.43-.08.9.9,0,0,0,.54-.54,1.07,1.07,0,0,0,.08-.41A1.16,1.16,0,0,0,138.3,59Z"/><path class="cls-1" d="M141.74,58.4h-1.46v.78h1.15v.48h-1.15v.81h1.48V61h-2v-3h2Z"/><path class="cls-1" d="M123.43,58.4H122v.78h1.15v.48H122v.81h1.48V61h-2v-3h2Z"/><path class="cls-1" d="M126.05,60.39a.93.93,0,0,1-.21.33.83.83,0,0,1-.32.2,1.1,1.1,0,0,1-.41.07,1.17,1.17,0,0,1-.59-.14,1.27,1.27,0,0,1-.38-.35l.35-.36a1.37,1.37,0,0,0,.27.27.62.62,0,0,0,.34.09.42.42,0,0,0,.34-.15.61.61,0,0,0,.14-.44v-2h.54v2A1.37,1.37,0,0,1,126.05,60.39Z"/><path class="cls-1" d="M130.17,60a1.25,1.25,0,0,1-.33.49,1.35,1.35,0,0,1-.5.34,1.47,1.47,0,0,1-.64.13,1.66,1.66,0,0,1-.64-.12,1.77,1.77,0,0,1-.5-.34,1.71,1.71,0,0,1-.32-.5,1.59,1.59,0,0,1,0-1.21,1.67,1.67,0,0,1,.33-.5,1.77,1.77,0,0,1,.5-.34,1.77,1.77,0,0,1,1.28,0,1.43,1.43,0,0,1,.5.34,1.34,1.34,0,0,1,.32.49,1.58,1.58,0,0,1,.12.61A1.62,1.62,0,0,1,130.17,60Zm-.51-1a1,1,0,0,0-.22-.34,1.08,1.08,0,0,0-.32-.24,1.16,1.16,0,0,0-.42-.08.91.91,0,0,0-.41.08.94.94,0,0,0-.32.23,1.08,1.08,0,0,0-.21.34,1.14,1.14,0,0,0,0,.84,1.08,1.08,0,0,0,.21.34.86.86,0,0,0,.33.23.91.91,0,0,0,.41.09,1.07,1.07,0,0,0,.41-.08,1.14,1.14,0,0,0,.33-.23,1.08,1.08,0,0,0,.21-.34,1.2,1.2,0,0,0,.07-.42A1.16,1.16,0,0,0,129.66,59Z"/><path class="cls-1" d="M133.19,61l-.74-1.06h-.67V61h-.53v-3h1.35a1.41,1.41,0,0,1,.47.07.79.79,0,0,1,.35.19.86.86,0,0,1,.23.3,1,1,0,0,1,.07.4.9.9,0,0,1-.05.34.93.93,0,0,1-.15.26.9.9,0,0,1-.23.2,1.1,1.1,0,0,1-.29.12l.82,1.15ZM133,58.53a.73.73,0,0,0-.47-.13h-.77v1h.78a.69.69,0,0,0,.45-.14.51.51,0,0,0,0-.75Z"/><polygon class="cls-1" points="119.84 57.93 118.77 60.21 117.68 57.93 117.03 57.93 117.03 60.95 117.62 60.95 117.62 58.99 118.52 60.95 119.01 60.95 119.9 58.98 119.9 60.95 120.5 60.95 120.5 57.93 119.84 57.93"/></svg>