<svg id="Real" xmlns="http://www.w3.org/2000/svg" viewBox="0 0 200 100"><defs><style>.cls-1{fill:#fff;}.cls-2,.cls-5,.cls-6{fill:#34473d;}.cls-2{opacity:0.8;}.cls-3{fill:#434343;}.cls-4{fill:#d7d7d7;}.cls-6{opacity:0.3;}</style></defs><title>LOGOS_cliente-nuevos</title><path class="cls-1" d="M130.37,64.23a6.81,6.81,0,0,1-.78,0,267.76,267.76,0,0,0-59.18,0,7,7,0,0,1-.78,0c-2.83,0-4.95-1.88-4.95-4.38V42.44c0-2.58-1.91-3.16-2.26-3.16l-.34,0a1.64,1.64,0,0,1-1.75-1.6,2.21,2.21,0,0,1,1.86-2h.09a264.83,264.83,0,0,1,75.44,0,2.23,2.23,0,0,1,1.95,2.06,1.53,1.53,0,0,1-.53,1.17,1.83,1.83,0,0,1-1.22.43h0l-.34,0a2.93,2.93,0,0,0-2.26,3.16V59.85C135.32,62.35,133.19,64.23,130.37,64.23Z"/><path class="cls-2" d="M130.37,64.23a6.81,6.81,0,0,1-.78,0,267.76,267.76,0,0,0-59.18,0,7,7,0,0,1-.78,0c-2.83,0-4.95-1.88-4.95-4.38V42.44c0-2.58-1.91-3.16-2.26-3.16l-.34,0a1.64,1.64,0,0,1-1.75-1.6,2.21,2.21,0,0,1,1.86-2h.09a264.83,264.83,0,0,1,75.44,0,2.23,2.23,0,0,1,1.95,2.06,1.53,1.53,0,0,1-.53,1.17,1.83,1.83,0,0,1-1.22.43h0l-.34,0a2.93,2.93,0,0,0-2.26,3.16V59.85C135.32,62.35,133.19,64.23,130.37,64.23Z"/><path class="cls-3" d="M129.11,54.78h0l-.37-.05q-1.68-4.87-3.37-9.74l.81.08c.2-.08.2-.49.2-1.07s0-1-.29-1c-2.45-.26-3.67-.37-6.12-.57-.28,0-.3.46-.29,1s0,1.08.31,1.11l.7,0q-1.69,4.56-3.37,9.12l-2.5-.16V44.16l.77.05c.16,0,.23-.15.26-.37V42.55c0-.23-.11-.4-.27-.42-1.6-.1-2.41-.14-4-.21-.23.06-.25.5-.24,1s0,1,.25,1.11l1,0v6.4q-3.06-4-6.14-8c-.45-.57-.58-.68-1.21-.72l-2.15,0c-.23.07-.25.51-.24,1s0,1,.25,1.1h.83V53.1l-2.73,0q-1.68-4.68-3.37-9.36h.8c.21-.1.21-.51.21-1.09s0-.95-.3-1c-2.45,0-3.68,0-6.13.12-.28,0-.31.49-.3,1s0,1.08.31,1.07l.71,0-3.37,9.48-2.83.13V44.07l.91,0c.28,0,.28-.48.28-1.12s0-.95-.3-.95c-1.63.08-2.44.13-4.06.23-.29,0-.34.46-.35.88v.35c0,.45.14.84.35.84l.84,0v9.36l-.82,0h0c-.31,0-.36.46-.37.89v.35c0,.41.12.77.3.83l2.46-.15h0c1.67-.09,2.51-.13,4.18-.19h0L93,55.26c.2-.11.2-.52.2-1.09s0-1-.31-1h0l-.75,0c.31-.9.46-1.34.76-2.24,2-.06,3-.08,5.08-.09.3.88.45,1.32.76,2.21H97.9c-.27,0-.3.48-.29,1s0,1.09.32,1.09h2.36c1.67,0,2.51,0,4.19,0h0l2.66.06c.26,0,.26-.47.26-1.1s0-1-.31-1h0l-.92,0V45.92q3.49,4.5,6.93,9c.46.57.6.56,1.78.62h0l3,.19h0l2.77.21c.26,0,.26-.45.26-1.08,0-.44,0-.86-.21-1l-1-.07c.3-.87.46-1.3.76-2.16,2,.16,3,.26,5.06.47.3.91.45,1.37.76,2.29l-.8-.08c-.27,0-.3.45-.29.93s0,1.09.31,1.12h0c1.47.15,2.2.23,3.66.4.26,0,.26-.44.26-1.07S129.41,54.81,129.11,54.78ZM93.51,49l1.9-5.36c.76,2.12,1.14,3.18,1.89,5.29Zm27.59.81c.75-2.07,1.13-3.1,1.89-5.15.76,2.19,1.13,3.29,1.89,5.49C123.37,50,122.61,50,121.1,49.85Zm-45.87-7c-1.72.17-2.58.26-4.3.46-.35.07-.35.66-.35,1.15s.09.83.26.94l.82-.1v9.36l-.79.09c-.29.12-.29.67-.29,1.14s.1.84.27.94c1.65-.19,2.48-.28,4.14-.45,4.22-.3,8-3.09,8-7.55C83.05,44.59,79.17,42.36,75.23,42.88Zm.08,11.42L74,54.44V45.08L75.15,45c3.37-.34,5.47,1.14,5.47,4.09S78.81,54,75.31,54.3Z"/><path class="cls-4" d="M129,43.25a1.27,1.27,0,0,1,.51.19,1.21,1.21,0,0,1,.38.43,1.09,1.09,0,0,1,.14.54.89.89,0,0,1-1,.91,1.19,1.19,0,0,1-1-1.16,1,1,0,0,1,.14-.51.81.81,0,0,1,.38-.33A1,1,0,0,1,129,43.25Zm0,.17a.77.77,0,0,0-.42.06.72.72,0,0,0-.32.28.76.76,0,0,0-.12.42,1,1,0,0,0,.25.64,1,1,0,0,0,.61.33.73.73,0,0,0,.61-.18.72.72,0,0,0,.25-.58.92.92,0,0,0-.25-.64A1,1,0,0,0,129,43.42Zm-.45,1.38V43.69l.38,0,.26.06a.29.29,0,0,1,.15.12.34.34,0,0,1,.07.19.28.28,0,0,1-.09.2.61.61,0,0,1-.23.07,1.49,1.49,0,0,1,.26.31l.13.24-.22,0a1.63,1.63,0,0,1-.09-.19,1.49,1.49,0,0,0-.18-.27.34.34,0,0,0-.16-.07h-.1v.47Zm.18-.6.21,0c.18,0,.28,0,.28-.13a.17.17,0,0,0-.07-.14.45.45,0,0,0-.22-.06l-.2,0Z"/><path class="cls-4" d="M129.08,54.11h0l-.37,0q-1.68-4.87-3.37-9.74l.81.08c.2-.08.2-.49.2-1.06s0-1-.29-1c-2.44-.26-3.66-.37-6.11-.57-.28,0-.3.46-.3.95s0,1.08.32,1.11l.7.06Q119,48.44,117.3,53c-1-.07-1.5-.11-2.49-.16V43.49l.77,0c.15,0,.22-.15.25-.37V41.88c0-.23-.1-.4-.27-.42-1.6-.1-2.4-.14-4-.21-.23.06-.25.5-.24,1s0,1,.25,1.11l1,0v6.4c-2-2.68-4.08-5.35-6.12-8-.46-.57-.59-.68-1.22-.72l-2.14,0c-.23.07-.25.51-.24,1s0,1,.25,1.1h.83v9.35l-2.73,0Q99.49,47.72,97.8,43h.81c.2-.1.2-.51.2-1.09s0-1-.3-1c-2.45,0-3.67,0-6.12.12-.29,0-.31.49-.3,1s0,1.08.32,1.07l.7,0q-1.69,4.74-3.37,9.48l-2.83.13V43.4l.91,0c.28,0,.28-.48.28-1.12,0-.49,0-.95-.29-.95-1.63.08-2.44.13-4.07.23-.28,0-.33.46-.34.88v.35c0,.45.14.84.35.84l.84,0v9.36l-.82,0h0c-.31,0-.36.45-.37.89v.35c0,.41.12.77.3.83l2.45-.15h0c1.67-.09,2.51-.13,4.18-.19h0L93,54.59c.2-.11.2-.51.2-1.09s0-1-.31-1h0l-.75,0c.3-.9.46-1.34.76-2.24,2-.06,3-.07,5.07-.09.3.88.45,1.32.76,2.21H97.9c-.27,0-.29.49-.29,1s0,1.09.32,1.09h2.36c1.67,0,2.51,0,4.18,0h0l2.66.06c.26,0,.26-.47.26-1.1s0-1-.31-1h0l-.92,0V45.24q3.5,4.51,6.92,9.06c.47.57.6.56,1.78.62h0l3,.19h0l2.77.21c.26,0,.26-.46.26-1.08,0-.44,0-.86-.22-1l-.94-.07c.3-.87.45-1.3.76-2.16,2,.17,3,.26,5,.46.3.92.45,1.38.76,2.3l-.8-.08c-.27,0-.3.45-.29.93s0,1.09.32,1.12h0c1.46.15,2.19.23,3.65.4.25,0,.25-.44.25-1.07S129.37,54.14,129.08,54.11ZM93.52,48.38,95.41,43l1.9,5.29C95.79,48.32,95,48.33,93.52,48.38Zm27.56.79c.75-2.06,1.13-3.09,1.89-5.15l1.88,5.5C123.34,49.37,122.59,49.3,121.08,49.17Zm-45.82-7c-1.72.17-2.58.26-4.3.46-.35.07-.35.66-.35,1.15s.09.83.26.94l.82-.1V54l-.79.09c-.29.12-.29.67-.29,1.14s.1.84.27.94c1.65-.19,2.48-.28,4.13-.45,4.22-.3,8-3.09,8-7.55C83.06,43.93,79.19,41.69,75.26,42.21Zm.08,11.43L74,53.77V44.41l1.17-.12c3.36-.34,5.46,1.14,5.46,4.09S78.83,53.29,75.34,53.64Z"/><path class="cls-5" d="M70.41,64.18a267.76,267.76,0,0,1,59.18,0,7.13,7.13,0,0,0,.79,0,5.94,5.94,0,0,0,2-.33l-.61-.17C121.45,61,110.56,60.17,100,60.17S78.53,61,68.23,63.73l-.58.16a5.75,5.75,0,0,0,2,.34A6.66,6.66,0,0,0,70.41,64.18Z"/><path class="cls-5" d="M137.72,35.64a264.83,264.83,0,0,0-75.44,0h-.09a2.21,2.21,0,0,0-1.86,2,.25.25,0,0,0,0,.08,337.33,337.33,0,0,1,79.33-.12A2.25,2.25,0,0,0,137.72,35.64Z"/><path class="cls-4" d="M137.75,35.44a264.35,264.35,0,0,0-75.51,0l-.09,0a2.4,2.4,0,0,0-2,2.24,1.85,1.85,0,0,0,2,1.81,1.79,1.79,0,0,0,.34,0c.32,0,2,.55,2,3V59.85c0,2.62,2.22,4.59,5.16,4.59a7.31,7.31,0,0,0,.8,0,267.31,267.31,0,0,1,59.13,0,7.49,7.49,0,0,0,.81,0c2.94,0,5.16-2,5.16-4.59V42.44a2.78,2.78,0,0,1,2-3,2.14,2.14,0,0,0,1.73-.45,1.73,1.73,0,0,0,.6-1.33A2.43,2.43,0,0,0,137.75,35.44ZM139,37.7c0,.61-.57,1-1.32.91s-3,.81-3,3.83V59.85c0,2.15-1.8,3.71-4.28,3.71a5.52,5.52,0,0,1-.71-.05,269.12,269.12,0,0,0-59.33,0,5.62,5.62,0,0,1-.7.05c-2.48,0-4.28-1.56-4.28-3.71V42.44c0-3.07-2.37-3.93-3-3.83A1,1,0,0,1,61,37.7a1.55,1.55,0,0,1,1.32-1.38h.12l0,0a263.36,263.36,0,0,1,75.16,0A1.56,1.56,0,0,1,139,37.7Z"/><path class="cls-1" d="M129,43.25a1.27,1.27,0,0,1,.51.19,1.21,1.21,0,0,1,.38.43,1.09,1.09,0,0,1,.14.54.89.89,0,0,1-1,.91,1.19,1.19,0,0,1-1-1.16,1,1,0,0,1,.14-.51.81.81,0,0,1,.38-.33A1,1,0,0,1,129,43.25Zm0,.17a.77.77,0,0,0-.42.06.72.72,0,0,0-.32.28.76.76,0,0,0-.12.42,1,1,0,0,0,.25.64,1,1,0,0,0,.61.33.73.73,0,0,0,.61-.18.72.72,0,0,0,.25-.58.92.92,0,0,0-.25-.64A1,1,0,0,0,129,43.42Zm-.45,1.38V43.69l.38,0,.26.06a.29.29,0,0,1,.15.12.34.34,0,0,1,.07.19.28.28,0,0,1-.09.2.61.61,0,0,1-.23.07,1.49,1.49,0,0,1,.26.31l.13.24-.22,0a1.63,1.63,0,0,1-.09-.19,1.49,1.49,0,0,0-.18-.27.34.34,0,0,0-.16-.07h-.1v.47Zm.18-.6.21,0c.18,0,.28,0,.28-.13a.17.17,0,0,0-.07-.14.45.45,0,0,0-.22-.06l-.2,0Z"/><path class="cls-1" d="M129.08,54.11h0l-.37,0q-1.68-4.87-3.37-9.74l.81.08c.2-.08.2-.49.2-1.06s0-1-.29-1c-2.44-.26-3.66-.37-6.11-.57-.28,0-.3.46-.3.95s0,1.08.32,1.11l.7.06Q119,48.44,117.3,53c-1-.07-1.5-.11-2.49-.16V43.49l.77,0c.15,0,.22-.15.25-.37V41.88c0-.23-.1-.4-.27-.42-1.6-.1-2.4-.14-4-.21-.23.06-.25.5-.24,1s0,1,.25,1.11l1,0v6.4c-2-2.68-4.08-5.35-6.12-8-.46-.57-.59-.68-1.22-.72l-2.14,0c-.23.07-.25.51-.24,1s0,1,.25,1.1h.83v9.35l-2.73,0Q99.49,47.72,97.8,43h.81c.2-.1.2-.51.2-1.09s0-1-.3-1c-2.45,0-3.67,0-6.12.12-.29,0-.31.49-.3,1s0,1.08.32,1.07l.7,0q-1.69,4.74-3.37,9.48l-2.83.13V43.4l.91,0c.28,0,.28-.48.28-1.12,0-.49,0-.95-.29-.95-1.63.08-2.44.13-4.07.23-.28,0-.33.46-.34.88v.35c0,.45.14.84.35.84l.84,0v9.36l-.82,0h0c-.31,0-.36.45-.37.89v.35c0,.41.12.77.3.83l2.45-.15h0c1.67-.09,2.51-.13,4.18-.19h0L93,54.59c.2-.11.2-.51.2-1.09s0-1-.31-1h0l-.75,0c.3-.9.46-1.34.76-2.24,2-.06,3-.07,5.07-.09.3.88.45,1.32.76,2.21H97.9c-.27,0-.29.49-.29,1s0,1.09.32,1.09h2.36c1.67,0,2.51,0,4.18,0h0l2.66.06c.26,0,.26-.47.26-1.1s0-1-.31-1h0l-.92,0V45.24q3.5,4.51,6.92,9.06c.47.57.6.56,1.78.62h0l3,.19h0l2.77.21c.26,0,.26-.46.26-1.08,0-.44,0-.86-.22-1l-.94-.07c.3-.87.45-1.3.76-2.16,2,.17,3,.26,5,.46.3.92.45,1.38.76,2.3l-.8-.08c-.27,0-.3.45-.29.93s0,1.09.32,1.12h0c1.46.15,2.19.23,3.65.4.25,0,.25-.44.25-1.07S129.37,54.14,129.08,54.11ZM93.52,48.38,95.41,43l1.9,5.29C95.79,48.32,95,48.33,93.52,48.38Zm27.56.79c.75-2.06,1.13-3.09,1.89-5.15l1.88,5.5C123.34,49.37,122.59,49.3,121.08,49.17Zm-45.82-7c-1.72.17-2.58.26-4.3.46-.35.07-.35.66-.35,1.15s.09.83.26.94l.82-.1V54l-.79.09c-.29.12-.29.67-.29,1.14s.1.84.27.94c1.65-.19,2.48-.28,4.13-.45,4.22-.3,8-3.09,8-7.55C83.06,43.93,79.19,41.69,75.26,42.21Zm.08,11.43L74,53.77V44.41l1.17-.12c3.36-.34,5.46,1.14,5.46,4.09S78.83,53.29,75.34,53.64Z"/><path class="cls-1" d="M137.75,35.44a264.35,264.35,0,0,0-75.51,0l-.09,0a2.4,2.4,0,0,0-2,2.24,1.85,1.85,0,0,0,2,1.81,1.79,1.79,0,0,0,.34,0c.32,0,2,.55,2,3V59.85c0,2.62,2.22,4.59,5.16,4.59a7.31,7.31,0,0,0,.8,0,267.31,267.31,0,0,1,59.13,0,7.49,7.49,0,0,0,.81,0c2.94,0,5.16-2,5.16-4.59V42.44a2.78,2.78,0,0,1,2-3,2.14,2.14,0,0,0,1.73-.45,1.73,1.73,0,0,0,.6-1.33A2.43,2.43,0,0,0,137.75,35.44ZM139,37.7c0,.61-.57,1-1.32.91s-3,.81-3,3.83V59.85c0,2.15-1.8,3.71-4.28,3.71a5.52,5.52,0,0,1-.71-.05,269.12,269.12,0,0,0-59.33,0,5.62,5.62,0,0,1-.7.05c-2.48,0-4.28-1.56-4.28-3.71V42.44c0-3.07-2.37-3.93-3-3.83A1,1,0,0,1,61,37.7a1.55,1.55,0,0,1,1.32-1.38h.12l0,0a263.36,263.36,0,0,1,75.16,0A1.56,1.56,0,0,1,139,37.7Z"/><path class="cls-6" d="M129,43.25a1.27,1.27,0,0,1,.51.19,1.21,1.21,0,0,1,.38.43,1.09,1.09,0,0,1,.14.54.89.89,0,0,1-1,.91,1.19,1.19,0,0,1-1-1.16,1,1,0,0,1,.14-.51.81.81,0,0,1,.38-.33A1,1,0,0,1,129,43.25Zm0,.17a.77.77,0,0,0-.42.06.72.72,0,0,0-.32.28.76.76,0,0,0-.12.42,1,1,0,0,0,.25.64,1,1,0,0,0,.61.33.73.73,0,0,0,.61-.18.72.72,0,0,0,.25-.58.92.92,0,0,0-.25-.64A1,1,0,0,0,129,43.42Zm-.45,1.38V43.69l.38,0,.26.06a.29.29,0,0,1,.15.12.34.34,0,0,1,.07.19.28.28,0,0,1-.09.2.61.61,0,0,1-.23.07,1.49,1.49,0,0,1,.26.31l.13.24-.22,0a1.63,1.63,0,0,1-.09-.19,1.49,1.49,0,0,0-.18-.27.34.34,0,0,0-.16-.07h-.1v.47Zm.18-.6.21,0c.18,0,.28,0,.28-.13a.17.17,0,0,0-.07-.14.45.45,0,0,0-.22-.06l-.2,0Z"/><path class="cls-6" d="M129.08,54.11h0l-.37,0q-1.68-4.87-3.37-9.74l.81.08c.2-.08.2-.49.2-1.06s0-1-.29-1c-2.44-.26-3.66-.37-6.11-.57-.28,0-.3.46-.3.95s0,1.08.32,1.11l.7.06Q119,48.44,117.3,53c-1-.07-1.5-.11-2.49-.16V43.49l.77,0c.15,0,.22-.15.25-.37V41.88c0-.23-.1-.4-.27-.42-1.6-.1-2.4-.14-4-.21-.23.06-.25.5-.24,1s0,1,.25,1.11l1,0v6.4c-2-2.68-4.08-5.35-6.12-8-.46-.57-.59-.68-1.22-.72l-2.14,0c-.23.07-.25.51-.24,1s0,1,.25,1.1h.83v9.35l-2.73,0Q99.49,47.72,97.8,43h.81c.2-.1.2-.51.2-1.09s0-1-.3-1c-2.45,0-3.67,0-6.12.12-.29,0-.31.49-.3,1s0,1.08.32,1.07l.7,0q-1.69,4.74-3.37,9.48l-2.83.13V43.4l.91,0c.28,0,.28-.48.28-1.12,0-.49,0-.95-.29-.95-1.63.08-2.44.13-4.07.23-.28,0-.33.46-.34.88v.35c0,.45.14.84.35.84l.84,0v9.36l-.82,0h0c-.31,0-.36.45-.37.89v.35c0,.41.12.77.3.83l2.45-.15h0c1.67-.09,2.51-.13,4.18-.19h0L93,54.59c.2-.11.2-.51.2-1.09s0-1-.31-1h0l-.75,0c.3-.9.46-1.34.76-2.24,2-.06,3-.07,5.07-.09.3.88.45,1.32.76,2.21H97.9c-.27,0-.29.49-.29,1s0,1.09.32,1.09h2.36c1.67,0,2.51,0,4.18,0h0l2.66.06c.26,0,.26-.47.26-1.1s0-1-.31-1h0l-.92,0V45.24q3.5,4.51,6.92,9.06c.47.57.6.56,1.78.62h0l3,.19h0l2.77.21c.26,0,.26-.46.26-1.08,0-.44,0-.86-.22-1l-.94-.07c.3-.87.45-1.3.76-2.16,2,.17,3,.26,5,.46.3.92.45,1.38.76,2.3l-.8-.08c-.27,0-.3.45-.29.93s0,1.09.32,1.12h0c1.46.15,2.19.23,3.65.4.25,0,.25-.44.25-1.07S129.37,54.14,129.08,54.11ZM93.52,48.38,95.41,43l1.9,5.29C95.79,48.32,95,48.33,93.52,48.38Zm27.56.79c.75-2.06,1.13-3.09,1.89-5.15l1.88,5.5C123.34,49.37,122.59,49.3,121.08,49.17Zm-45.82-7c-1.72.17-2.58.26-4.3.46-.35.07-.35.66-.35,1.15s.09.83.26.94l.82-.1V54l-.79.09c-.29.12-.29.67-.29,1.14s.1.84.27.94c1.65-.19,2.48-.28,4.13-.45,4.22-.3,8-3.09,8-7.55C83.06,43.93,79.19,41.69,75.26,42.21Zm.08,11.43L74,53.77V44.41l1.17-.12c3.36-.34,5.46,1.14,5.46,4.09S78.83,53.29,75.34,53.64Z"/><path class="cls-6" d="M137.75,35.44a264.35,264.35,0,0,0-75.51,0l-.09,0a2.4,2.4,0,0,0-2,2.24,1.85,1.85,0,0,0,2,1.81,1.79,1.79,0,0,0,.34,0c.32,0,2,.55,2,3V59.85c0,2.62,2.22,4.59,5.16,4.59a7.31,7.31,0,0,0,.8,0,267.31,267.31,0,0,1,59.13,0,7.49,7.49,0,0,0,.81,0c2.94,0,5.16-2,5.16-4.59V42.44a2.78,2.78,0,0,1,2-3,2.14,2.14,0,0,0,1.73-.45,1.73,1.73,0,0,0,.6-1.33A2.43,2.43,0,0,0,137.75,35.44ZM139,37.7c0,.61-.57,1-1.32.91s-3,.81-3,3.83V59.85c0,2.15-1.8,3.71-4.28,3.71a5.52,5.52,0,0,1-.71-.05,269.12,269.12,0,0,0-59.33,0,5.62,5.62,0,0,1-.7.05c-2.48,0-4.28-1.56-4.28-3.71V42.44c0-3.07-2.37-3.93-3-3.83A1,1,0,0,1,61,37.7a1.55,1.55,0,0,1,1.32-1.38h.12l0,0a263.36,263.36,0,0,1,75.16,0A1.56,1.56,0,0,1,139,37.7Z"/></svg>