<svg xmlns="http://www.w3.org/2000/svg" viewBox="0 0 200 100"><defs><style>.cls-1{fill:#34473d;}</style></defs><g id="DIANA"><g id="dinant-vector"><path class="cls-1" d="M101.81,58l2.78-9.85a2,2,0,0,1,1-1.35h-5.8a1,1,0,0,1,.38.67,2.55,2.55,0,0,1-.07.6L97.29,57.9a1.84,1.84,0,0,1-1.05,1.35H102a1,1,0,0,1-.38-.67C101.73,58.5,101.73,58.35,101.81,58Z"/><path class="cls-1" d="M121.81,46.77h-4.58a1,1,0,0,1,.37.67,2.94,2.94,0,0,1-.07.6L116,54.14H116l-3.61-7.3h-5.49a1,1,0,0,1,.37.68,2.6,2.6,0,0,1-.07.6L104.36,58a1.84,1.84,0,0,1-1,1.36h4.59a1,1,0,0,1-.38-.68,2.64,2.64,0,0,1,.08-.6l1.8-7.37h.08l4.29,8.57h3.76l3.16-11.13C121,47.22,121.36,47.14,121.81,46.77Z"/><path class="cls-1" d="M148.07,46.77a1,1,0,0,1,.37.67,2.94,2.94,0,0,1-.07.6l-1.51,6.1h-.07l-3.61-7.3h-5.42a1,1,0,0,1,.38.68,2.29,2.29,0,0,1-.08.6L135.28,58a1.64,1.64,0,0,1-.9,1.21,1.72,1.72,0,0,1-.53-1l-2-11.36h-5.34c.15.15.38.38.38.53a1.48,1.48,0,0,1-.23.52L119.33,58a4.65,4.65,0,0,1-1.43,1.28h5a.62.62,0,0,1-.3-.52,1.33,1.33,0,0,1,.3-.68l1.13-1.66h5l.15,1c0,.23.15.75.15,1a1.16,1.16,0,0,1-.45.83h9.93a1,1,0,0,1-.38-.68,2.58,2.58,0,0,1,.08-.6l1.8-7.37h.08l4.29,8.57h3.76L151.68,48a1.84,1.84,0,0,1,1-1.35h-4.66Zm-22.34,7.37,2.55-3.76h.08l.52,3.76Z"/><path class="cls-1" d="M153.41,46.77l-.83,3.08a4,4,0,0,1,1.88-.45h2.33l-2.41,8.5a1.84,1.84,0,0,1-1,1.35h5.79a1,1,0,0,1-.37-.67,3.07,3.07,0,0,1,.07-.61l2.41-8.57h2.48a3.13,3.13,0,0,1,1.73.45l.83-3.08Z"/><path class="cls-1" d="M97.67,50.23a5,5,0,0,0-1.28-3.54c-1.51-1.5-4.29-2.26-8.73-2.26H82.1a1.14,1.14,0,0,1,.15.53h0a2.78,2.78,0,0,1-.15.75h0L78.71,57.9A2.46,2.46,0,0,1,78,59.18h6.17c8.12,0,13.39-3.46,13.46-8.88C97.67,50.3,97.67,50.3,97.67,50.23ZM84.5,56.54h-.37l2.63-9.32h1.36a4.93,4.93,0,0,1,3.61,1.13,3.4,3.4,0,0,1,.82,2.33C92.48,54.29,89.47,56.47,84.5,56.54Z"/><path class="cls-1" d="M74.27,50.9a6.21,6.21,0,0,0-1.65-3.46c-2.41-2.63-7.6-3.68-13.16-2.86-6.55.83-13.77,3.84-17.83,5.8.52.82,1,1.65,1.5,2.48,4.14-2.11,11.44-5.27,17.91-6C71.34,45.64,73.82,49.47,74.27,50.9Z"/><path class="cls-1" d="M59.31,43.38a21.73,21.73,0,0,1,9.92.9,7.67,7.67,0,0,1,3.09,1.88c1.05,1.06,1.13,1.73,1.05,1.51-.83-4.36-6.92-7.75-16.92-6.32A63,63,0,0,0,39.15,47c.6.75,1.2,1.51,1.8,2.33,1.28-.6,2.71-1.28,4-1.8A62.34,62.34,0,0,1,59.31,43.38Z"/><path class="cls-1" d="M74.12,52.63a3.36,3.36,0,0,1,.38,1.13v-.15a4.8,4.8,0,0,0-1.58-3.69c-2.33-2.25-6.32-2.78-11.73-2-6.4,1-13.54,4-17.53,5.87A22.92,22.92,0,0,1,45,57.07,90.11,90.11,0,0,1,58.1,51.58C64.87,49.47,71.94,49.17,74.12,52.63Z"/><path class="cls-1" d="M73.37,52.71a5,5,0,0,0-.68-.53,6.73,6.73,0,0,0-2.55-1c-2.64-.52-6.4-.15-12.26,1.81a74.9,74.9,0,0,0-12.57,5.26,28.37,28.37,0,0,1,.91,3.39,89.26,89.26,0,0,1,12.26-5.87C65.1,53.31,71.34,52.41,73.6,55a2.9,2.9,0,0,1,0,3.77h0C75.18,57.52,75.1,54.21,73.37,52.71Z"/><path class="cls-1" d="M56.3,40.22c5.56-.83,12,.68,14.44,2.78a5.92,5.92,0,0,1,1.5,1.66,4,4,0,0,0-1-1.88,5.18,5.18,0,0,0-.91-.9,11.82,11.82,0,0,0-1.13-.83,18.56,18.56,0,0,0-4.81-2.18,31.46,31.46,0,0,0-14.22-.38,48.18,48.18,0,0,0-14.14,5.34l2.26,2.26c.9-.45,2-1,3.23-1.51A62.84,62.84,0,0,1,56.3,40.22Z"/><path class="cls-1" d="M71.94,55.34a4.52,4.52,0,0,0-1.43-.3,6,6,0,0,0,.08,1.2h.22c.53.08,2.49.3,2,2.11a5.08,5.08,0,0,1-2.26,2.48v.08c.91-.45,2.79-1.58,3.16-2.79A2.48,2.48,0,0,0,71.94,55.34Z"/><path class="cls-1" d="M56,36.46c.9,0,1.88,0,2.78.08A22.36,22.36,0,0,0,46.67,33a22.05,22.05,0,0,0-12.94,4.14,21.45,21.45,0,0,1,11.66-3.46A21.21,21.21,0,0,1,56,36.46Z"/><path class="cls-1" d="M67,55.19A21.5,21.5,0,0,1,63.37,67H66a21.75,21.75,0,0,0,3.16-11.43V55A18.51,18.51,0,0,0,67,55.19Z"/></g></g></svg>