<svg xmlns="http://www.w3.org/2000/svg" xmlns:xlink="http://www.w3.org/1999/xlink" viewBox="0 0 200 100"><defs><style>.cls-1{fill:none;}.cls-2{clip-path:url(#clip-path);}.cls-3{fill:url(#linear-gradient);}.cls-4{clip-path:url(#clip-path-2);}.cls-5{fill:url(#linear-gradient-2);}.cls-6{clip-path:url(#clip-path-3);}.cls-7{fill:url(#linear-gradient-3);}.cls-8{clip-path:url(#clip-path-4);}.cls-9{clip-path:url(#clip-path-5);}.cls-10{clip-path:url(#clip-path-6);}.cls-11{clip-path:url(#clip-path-7);}.cls-12{fill:url(#linear-gradient-7);}</style><clipPath id="clip-path"><polygon class="cls-1" points="37.49 57 48.62 57 51.07 53.74 41.17 53.74 41.17 52.39 47.77 52.39 50.3 48.84 41.17 48.84 41.17 47.5 48.66 47.5 51.1 44.2 37.49 44.2 37.49 57"/></clipPath><linearGradient id="linear-gradient" x1="100.34" y1="62.14" x2="100.34" y2="38.67" gradientUnits="userSpaceOnUse"><stop offset="0" stop-color="#34473d" stop-opacity="0.7"/><stop offset="0.22" stop-color="#34473d" stop-opacity="0.75"/><stop offset="0.42" stop-color="#34473d" stop-opacity="0.91"/><stop offset="0.5" stop-color="#34473d"/><stop offset="0.59" stop-color="#34473d" stop-opacity="0.89"/><stop offset="0.78" stop-color="#34473d" stop-opacity="0.75"/><stop offset="1" stop-color="#34473d" stop-opacity="0.7"/></linearGradient><clipPath id="clip-path-2"><polygon class="cls-1" points="124 57 135.13 57 137.58 53.74 127.68 53.74 127.68 52.39 134.27 52.39 136.81 48.84 127.68 48.84 127.68 47.5 135.16 47.5 137.61 44.2 124 44.2 124 57"/></clipPath><linearGradient id="linear-gradient-2" x1="100.34" y1="62.14" x2="100.34" y2="38.67" gradientUnits="userSpaceOnUse"><stop offset="0" stop-color="#34473d" stop-opacity="0.7"/><stop offset="0.22" stop-color="#34473d" stop-opacity="0.75"/><stop offset="0.42" stop-color="#34473d" stop-opacity="0.91"/><stop offset="0.5" stop-color="#34473d"/><stop offset="0.59" stop-color="#34473d" stop-opacity="0.89"/><stop offset="0.78" stop-color="#34473d" stop-opacity="0.75"/><stop offset="1" stop-color="#34473d" stop-opacity="0.7"/></linearGradient><clipPath id="clip-path-3"><polygon class="cls-1" points="53 44.2 53 57 64.35 57 66.77 53.74 56.93 53.74 56.93 44.2 53 44.2"/></clipPath><linearGradient id="linear-gradient-3" x1="100.34" y1="62.14" x2="100.34" y2="38.67" gradientUnits="userSpaceOnUse"><stop offset="0" stop-color="#34473d" stop-opacity="0.7"/><stop offset="0.22" stop-color="#34473d" stop-opacity="0.75"/><stop offset="0.43" stop-color="#34473d" stop-opacity="0.91"/><stop offset="0.5" stop-color="#34473d"/><stop offset="0.59" stop-color="#34473d" stop-opacity="0.89"/><stop offset="0.78" stop-color="#34473d" stop-opacity="0.75"/><stop offset="1" stop-color="#34473d" stop-opacity="0.7"/></linearGradient><clipPath id="clip-path-4"><path class="cls-1" d="M95.65,45.33,87.31,57h4.85l5.67-7.94,3.35,4.68H96L93.71,57h14.64L100,45.33A2.67,2.67,0,0,0,95.65,45.33Z"/></clipPath><clipPath id="clip-path-5"><polygon class="cls-1" points="121.71 44.2 119.24 47.5 115.97 47.5 115.97 57 112.04 57 112.04 47.5 106.3 47.5 108.77 44.2 121.71 44.2"/></clipPath><clipPath id="clip-path-6"><path class="cls-1" d="M162.51,43a38.93,38.93,0,0,0-12.63,5.87l-4.62-4.67H140.5l6.62,6.7a49.28,49.28,0,0,0-6.39,6.1h4.77a18.15,18.15,0,0,1,3.22-4.49L153.16,57h4.77l-6.79-6.85A45.86,45.86,0,0,1,162.51,43Z"/></clipPath><clipPath id="clip-path-7"><path class="cls-1" d="M72.66,50.62a3.12,3.12,0,0,1,3.12-3.12h7l2.56-3.3H75.31a6.4,6.4,0,0,0,0,12.8h7.51l2.54-3.26H75.78A3.12,3.12,0,0,1,72.66,50.62Z"/></clipPath><linearGradient id="linear-gradient-7" x1="100.34" y1="62.14" x2="100.34" y2="38.67" xlink:href="#linear-gradient-3"/></defs><g id="DIANA"><g class="cls-2"><rect class="cls-3" x="36" y="38.67" width="128.66" height="23.47"/></g><g class="cls-4"><rect class="cls-5" x="36" y="38.67" width="128.66" height="23.47"/></g><g class="cls-6"><rect class="cls-7" x="36" y="38.67" width="128.66" height="23.47"/></g><g class="cls-8"><rect class="cls-5" x="36" y="38.67" width="128.66" height="23.47"/></g><g class="cls-9"><rect class="cls-7" x="36" y="38.67" width="128.66" height="23.47"/></g><g class="cls-10"><rect class="cls-5" x="36" y="38.67" width="128.66" height="23.47"/></g><g class="cls-11"><rect class="cls-12" x="36" y="38.67" width="128.66" height="23.47"/></g></g></svg>