<svg xmlns="http://www.w3.org/2000/svg" viewBox="0 0 200 100"><defs><style>.cls-1,.cls-2,.cls-3,.cls-4,.cls-5{fill:#34473d;}.cls-2{opacity:0.9;}.cls-3{opacity:0.8;}.cls-4{opacity:0.5;}.cls-5{opacity:0.7;}</style></defs><g id="DIANA"><path class="cls-1" d="M59.68,65.06H69V76H60.51A11.82,11.82,0,0,1,58,75.73a6.1,6.1,0,0,1-2.81-1.34A6.74,6.74,0,0,1,53,71.28a12.66,12.66,0,0,1-.68-3.75,7.36,7.36,0,0,1,0-.81c0-.26,0-.52,0-.78.19-2.94,1-5.11,2.4-6.49s3-2.08,5.8-2.08l8.44,0v3.22H60.51a4,4,0,0,0-3.37,1.67,7.88,7.88,0,0,0-1,4.54v.08a6.79,6.79,0,0,0,1.37,4.42,3.94,3.94,0,0,0,3,1.38l4.86,0V68.23H59.68Z"/><path class="cls-1" d="M71.08,76V57.34h3.56V76Z"/><path class="cls-1" d="M98.5,57.34c2.84,0,5,.72,6.37,2.11s2.2,3.55,2.39,6.49c0,.26,0,.52,0,.78s0,.53,0,.81a12.66,12.66,0,0,1-.68,3.75,6.81,6.81,0,0,1-2.18,3.11,6.23,6.23,0,0,1-2.74,1.32,16.18,16.18,0,0,1-3.08.29H90.33V57.34Zm-.08,3.16H93.88V72.74h4.78a7.11,7.11,0,0,0,1.67-.13,4.38,4.38,0,0,0,3.25-4.35c0-.26,0-1.3,0-1.56s0-1.12,0-1.67c-.22-2-1.12-4.53-4.9-4.53h-.24Z"/><path class="cls-1" d="M118.33,57.29l8,18.66H123.1a1.41,1.41,0,0,1-1.3-.88l-1.53-3.77h-7.56a1.19,1.19,0,0,0-1.1.73L110,76h-3.73l7.38-17.49a1.92,1.92,0,0,1,1.77-1.17Zm-5.15,10.89H119L116.09,61Z"/><path class="cls-1" d="M131.33,58.13l8.49,12.26v-13h3.57V76h-2.95a1.84,1.84,0,0,1-1.51-.79l-8.62-12.3V76h-3.45V57.34h3A1.85,1.85,0,0,1,131.33,58.13Z"/><path class="cls-1" d="M80.08,57.34V70.66a2.12,2.12,0,0,0,2.12,2.12H89V76H81.37a4.86,4.86,0,0,1-4.86-4.86V57.34Z"/><path class="cls-1" d="M144.36,59a1.69,1.69,0,1,1,3.38,0,1.69,1.69,0,0,1-3.38,0Zm3.09,0a1.4,1.4,0,1,0-2.8,0,1.4,1.4,0,1,0,2.8,0Zm-2-.93h.64c.36,0,.71.13.71.56a.51.51,0,0,1-.37.48l.46.75h-.35l-.36-.66h-.44v.66h-.29ZM146,59c.28,0,.47-.09.47-.32s-.11-.33-.44-.33h-.3V59Z"/><path class="cls-2" d="M96.13,36.49v1.79l-9.55,5.91a2.07,2.07,0,0,0,.78.8l10.82,6.35V37.7Z"/><path class="cls-3" d="M96.13,25.1l-8.77,5a2,2,0,0,0-.77.8l9.54,5.63Z"/><path class="cls-4" d="M100.12,38.85V37.06l9.55-5.91a2.16,2.16,0,0,0-.78-.81L98.07,24V37.64Z"/><path class="cls-5" d="M100.12,50.23l8.77-4.95a2,2,0,0,0,.77-.8l-9.54-5.63Z"/><path class="cls-1" d="M96.13,36.49l-9.54-5.63a2,2,0,0,0-.26,1V43.2a2.11,2.11,0,0,0,.25,1l9.55-5.91Z"/><path class="cls-1" d="M100.12,38.85l9.54,5.63a2,2,0,0,0,.26-1V32.14a2.11,2.11,0,0,0-.25-1l-9.55,5.91Z"/></g></svg>