<svg id="Real" xmlns="http://www.w3.org/2000/svg" viewBox="0 0 200 100"><defs><style>.cls-1{fill:#34473d;}.cls-1,.cls-2{fill-rule:evenodd;}.cls-2{fill:#fff;}</style></defs><title>LOGOS_cliente-nuevos</title><path class="cls-1" d="M129.4,58.42c-3-4-6-8.05-6-17.49,0-7.72-4.13-13.65-5.67-15.88-.39-.57-.7-.4-1-.2a51.87,51.87,0,0,1-20.9,7.61c-9,1-13.76,1.31-23.74,8.14a.66.66,0,0,0-.21,1.06c1.72,2.46,5.67,7.94,5.67,15.25,0,9.71,2.9,14,6,18.08a.69.69,0,0,0,1,.1c10.3-6.63,14.9-7.24,23.92-8.31,8.58-1,16.89-4.39,20.87-7.54a.65.65,0,0,0,.12-.82Z"/><path class="cls-1" d="M122.51,24.24a1.44,1.44,0,0,1-.43,1,1.46,1.46,0,0,1-2.49-1,1.46,1.46,0,1,1,2.92,0Zm-.35,0a1.13,1.13,0,0,0-.33-.81,1,1,0,0,0-.79-.34,1,1,0,0,0-.78.34,1.15,1.15,0,0,0,0,1.61,1,1,0,0,0,.78.35,1.05,1.05,0,0,0,.79-.35,1.13,1.13,0,0,0,.33-.8Zm-.93.76v-.28a.65.65,0,0,0-.06-.29c0-.08-.1-.12-.17-.12h-.11V25h-.37V23.45h.6a.61.61,0,0,1,.37.09.3.3,0,0,1,.12.25v.13a.31.31,0,0,1-.07.21.27.27,0,0,1-.17.1.46.46,0,0,1,.22.24.74.74,0,0,1,.06.28V25Zm0-1.08v-.06a.21.21,0,0,0,0-.12.16.16,0,0,0-.11-.05h-.23v.41h.23a.12.12,0,0,0,.11,0,.2.2,0,0,0,0-.14Z"/><path class="cls-2" d="M90.54,53.35c-.8-.11-.83-.32-.83-2V45.53c0-1.69,0-1.94.83-2l.49,0c.08-.06,0-.35,0-.4-.62,0-1.48,0-2,0s-1.22,0-1.86,0c-.08,0-.11.34,0,.4l.46,0c.81.09.84.34.84,2v1.85c0,.5,0,.52-.69.52H83.94c-.67,0-.69,0-.69-.52V45.53c0-1.69,0-1.94.83-2l.45,0c.08-.06,0-.35,0-.4-.59,0-1.25,0-1.79,0s-1.26,0-1.94,0c-.08,0-.11.34,0,.4l.36,0c.71.06.81.34.81,2v5.81c0,1.69,0,1.85-.8,2l-.43,0c-.08.1,0,.36,0,.4.54,0,1.39,0,2,0s1,0,1.75,0c.09,0,.11-.33,0-.4l-.4,0c-.77-.09-.84-.32-.84-2V49c0-.48,0-.52.69-.52H87.7c.66,0,.69,0,.69.52v2.37c0,1.69,0,1.88-.84,2l-.46,0c-.08.1,0,.36,0,.4.61,0,1.3,0,1.86,0s1.4,0,2.06,0a.36.36,0,0,0,0-.4l-.53,0Z"/><path class="cls-2" d="M107.24,53.26c-.7-.1-.74-.29-.74-1.7V48.2a2.16,2.16,0,0,0-2.27-2.42,5.27,5.27,0,0,0-2.72,1,.21.21,0,0,1-.22-.21,4.21,4.21,0,0,1,0-.54.21.21,0,0,0-.21-.13,13.09,13.09,0,0,1-2.33.71.27.27,0,0,0,0,.35l.17.12c.52.35.91.31.91,1.07v3.42c0,1.41,0,1.6-.74,1.7l-.31,0h0c-.06,0-.55.06-.75.06-.77,0-1-1-.91-1.89l.12-3.4c.06-1.46-.64-2.28-2.06-2.28s-3.69.85-3.69,2.4a.71.71,0,0,0,0,.12l1.56-.48c0-.12,0-.25,0-.4a1.3,1.3,0,0,1,1.27-1.07c1.22,0,1.46,1.17,1.44,1.89l0,.6c0,.29,0,.47-.33.56l-2.36.84c-1.27.45-1.65,1.2-1.65,2a1.81,1.81,0,0,0,.62,1.37,2.09,2.09,0,0,0,1.39.45,2.88,2.88,0,0,0,1.42-.49,3.49,3.49,0,0,1,.77-.39c.12,0,.24.16.32.27a1.6,1.6,0,0,0,1.29.61,3.31,3.31,0,0,0,1.42-.3.15.15,0,0,0,.08.08c.54,0,1.13,0,1.83,0s1.24,0,1.76,0a.33.33,0,0,0,0-.48l-.35-.06c-.7-.12-.74-.29-.74-1.7v-3a1.6,1.6,0,0,1,.3-1.17,2.11,2.11,0,0,1,1.65-.69c1.32,0,1.82.82,1.82,1.94v2.91c0,1.41,0,1.58-.73,1.7l-.37.06a.33.33,0,0,0,0,.48c.52,0,1.1,0,1.8,0s1.25,0,1.83,0a.34.34,0,0,0,0-.48l-.43-.06ZM95.68,51.73a1.16,1.16,0,0,1-.25.92,2.25,2.25,0,0,1-1.21.49A1.19,1.19,0,0,1,93,52c0-.76.57-1.44,1.74-1.83a3.57,3.57,0,0,1,.82-.19c.11,0,.19,0,.19.25l0,1.53Z"/><path class="cls-2" d="M112.18,53.26c-2.35,0-3.14-1.66-3.07-3.58h5.4v-.53c0-1.66-1.1-3.37-2.79-3.37-2.17,0-4,1.6-4,4.41a4.13,4.13,0,0,0,.83,2.54A3.53,3.53,0,0,0,111.44,54a6.23,6.23,0,0,0,3.2-.9l-.07-.5a4.38,4.38,0,0,1-2.39.64Zm-3.08-4v-.13a4.44,4.44,0,0,1,.3-1.41,2.47,2.47,0,0,1,2.1-1.37c1.14,0,1.65,1,1.53,2.19,0,.26,0,.5-.17.59s-.55.17-2,.17H109.1v0Z"/><path class="cls-2" d="M118.57,49.16c-.73-.4-1.8-.93-1.8-1.73a1.32,1.32,0,0,1,1.35-1.33c1.43,0,1.34.81,1.7,1.67a.37.37,0,0,0,.5-.06l0-1.58a3.87,3.87,0,0,0-1.84-.35c-2.19,0-2.83.8-2.83,2.22,0,1.08.86,1.76,2.06,2.41.77.41,2,1,2,1.87s-1,1.42-1.75,1.42c-1.19,0-1.88-1.18-2.24-2.26a.35.35,0,0,0-.47,0l.24,2a3.66,3.66,0,0,0,2.23.59c1.54,0,3.13-.65,3.13-2.14s-1.15-2.14-2.25-2.72Z"/></svg>