<svg id="Real" xmlns="http://www.w3.org/2000/svg" viewBox="0 0 200 100"><defs><style>.cls-1,.cls-2,.cls-3{fill:#34473d;fill-rule:evenodd;}.cls-1{opacity:0.7;}.cls-2{opacity:0.4;}</style></defs><title>LOGOS_cliente-nuevos</title><path class="cls-1" d="M77.1,40.3a9.72,9.72,0,0,0-13.79.1,9.69,9.69,0,0,0,0,13.69A9.25,9.25,0,0,0,70.18,57v3.11a12.36,12.36,0,0,1-9.11-3.8,12.88,12.88,0,0,1,0-18.27,13,13,0,0,1,22.07,9.16H79.93A9.46,9.46,0,0,0,77.1,40.3Z"/><polygon class="cls-2" points="86.65 60.04 86.65 53.51 89.72 53.51 89.72 69.73 86.65 69.73 86.65 62.72 79.83 62.72 79.83 69.73 76.61 69.73 76.61 53.51 79.83 53.51 79.83 60.04 86.65 60.04 86.65 60.04"/><path class="cls-2" d="M100.73,63.74c0,2.49-.88,3.7-2.58,3.7s-2.73-1.21-2.73-3.7.93-3.61,2.73-3.61,2.58,1.22,2.58,3.61Zm3.22-.19c0-3.95-1.85-5.95-5.61-5.95A5.68,5.68,0,0,0,94,59.4,6.55,6.55,0,0,0,92.25,64c0,4,1.85,6,5.61,6a5.65,5.65,0,0,0,4.38-1.81A6.63,6.63,0,0,0,104,63.55Z"/><polygon class="cls-2" points="106.48 52.19 109.5 52.19 109.5 69.73 106.48 69.73 106.48 52.19 106.48 52.19"/><path class="cls-2" d="M112,64.23c0-4.44,2-6.63,6.18-6.63l2.44.29a26.23,26.23,0,0,1-.29,2.73l-2.15-.39c-2,0-3,1.22-3,3.71,0,2.29,1,3.41,2.88,3.41a17.46,17.46,0,0,0,2.34-.54l.19,2.63a9.34,9.34,0,0,1-3.22.59c-3.6,0-5.4-2-5.4-5.8Z"/><path class="cls-2" d="M124.61,56.33a1.92,1.92,0,1,1,1.9-1.9,1.68,1.68,0,0,1-1.9,1.9ZM123.1,58h3V69.73h-3V58Z"/><path class="cls-2" d="M139.71,64v5.7h-3.07v-7.5c0-1.41-.49-2.1-1.41-2.1a2.3,2.3,0,0,0-1.9,1.08A5,5,0,0,0,132.5,64v5.7h-3.07V58h2.87l-.09,2a4,4,0,0,1,3.9-2.44A3,3,0,0,1,139.42,60a4.1,4.1,0,0,1,3.9-2.44c2.38,0,3.6,1.32,3.6,3.95v8.18h-3.07v-7.5c0-1.41-.48-2.1-1.41-2.1a2.21,2.21,0,0,0-1.8,1.08,4.16,4.16,0,0,0-.93,2.82Z"/><polygon class="cls-3" points="65.31 45.42 56.2 36.16 53.08 39.18 62.29 48.39 65.31 45.42 65.31 45.42"/><polygon class="cls-3" points="71.4 39.18 62.19 29.97 59.17 33.09 68.38 42.3 71.4 39.18 71.4 39.18"/></svg>