<svg xmlns="http://www.w3.org/2000/svg" viewBox="0 0 202.14 202.14"><defs><style>.cls-1{isolation:isolate;}.cls-2{fill:#fff;}.cls-3{fill:#b9c800;}.cls-4{fill:#8acdde;mix-blend-mode:multiply;}</style></defs><title>delpin-icon</title><g class="cls-1"><g id="iconos"><path id="icono_cyan" data-name="icono cyan" class="cls-2" d="M101.52,78.42A30.29,30.29,0,0,1,111,79.93a28.16,28.16,0,0,1,3.86-13.6c.29-.39.59-.77.89-1.15a45.91,45.91,0,1,0-15.45,89.54V139.23a30.42,30.42,0,0,1,1.23-60.81Z"/><path id="icono_verde" data-name="icono verde" class="cls-3" d="M83.14,109H38.6c0-34,28-61.57,62.47-61.57S163.54,75,163.54,109H119.89a.76.76,0,0,0,0-.15,18.16,18.16,0,0,0-1.93-8.15l18.28-17.31A6.94,6.94,0,1,0,126.7,73.3L107.52,91.48a18.36,18.36,0,0,0-24.39,17.36S83.14,108.94,83.14,109Zm18.38-7.47a7.32,7.32,0,1,0,7.32,7.32,7.33,7.33,0,0,0-7.32-7.32"/><path id="icono_cyan-2" data-name="icono cyan" class="cls-4" d="M101.52,78.42A30.29,30.29,0,0,1,111,79.93a28.16,28.16,0,0,1,3.86-13.6c.29-.39.59-.77.89-1.15a45.91,45.91,0,1,0-15.45,89.54V139.23a30.42,30.42,0,0,1,1.23-60.81Z"/></g></g></svg>