<svg id="Real" xmlns="http://www.w3.org/2000/svg" viewBox="0 0 200 100"><defs><style>.cls-1,.cls-2{fill:#34473d;}.cls-1{opacity:0.8;}</style></defs><title>LOGOS_cliente-nuevos</title><path class="cls-1" d="M49.57,42.74c4.55,0,8.31,3.22,8.31,7.26s-3.76,7.26-8.31,7.26S41.25,54,41.25,50s3.76-7.26,8.32-7.26m0,.51c-4.35,0-7.8,3-7.8,6.75s3.45,6.75,7.8,6.75,7.8-3,7.8-6.75-3.46-6.75-7.8-6.75"/><path class="cls-1" d="M51.37,45v2.87a4.64,4.64,0,0,1,1.08-.9h3.92l-2.74,2.68c-.44.48-.28.86.37.86h2.06v2.89H53.2c-1.12,0-1.51-.15-1.83-.43v2h-3.6V53a2.81,2.81,0,0,1-1.83.43H43.07V50.54h2.06c.65,0,.81-.38.38-.87L42.76,47h3.92a4.29,4.29,0,0,1,1.09.9V45Zm-1.8.6h-1.2v4.47a4.75,4.75,0,0,0-1.87-2.53H44.16l1.77,1.66c.88.94.42,1.93-.8,1.93H43.67v1.68h2.27a2.2,2.2,0,0,0,2.43-1.54v3.09h2.39V51.29a2.21,2.21,0,0,0,2.44,1.53h2.26V51.14H54c-1.18,0-1.61-1-.81-1.92L55,47.55H52.63a5.21,5.21,0,0,0-1.87,2.53V45.62Z"/><polygon class="cls-2" points="63.57 44.95 66.06 44.95 65.58 48.84 68.9 44.95 71.81 44.95 68.26 48.86 70.95 53.82 67.9 53.82 65.54 49.1 64.96 53.82 62.46 53.82 63.57 44.95"/><path class="cls-2" d="M73,45h2.36l-.21,1.64H72.8Zm-.31,2.67H75l-.77,6.17H71.93Z"/><path class="cls-2" d="M76.52,49.05c0-.14.1-1.21.12-1.4h2.29l-.11,1a2.56,2.56,0,0,1,2.24-1.16,1.73,1.73,0,0,1,1.8,1.14,2.76,2.76,0,0,1,2.31-1.15,1.87,1.87,0,0,1,1.82,1,3.75,3.75,0,0,1,.09,2l-.42,3.38H84.35l.43-3.49C84.86,49.71,85,49,84,49a1,1,0,0,0-.92.51,1.9,1.9,0,0,0-.23.88l-.44,3.46h-2.3l.43-3.51c.07-.56.17-1.34-.75-1.34s-1.06.65-1.15,1.34l-.44,3.51H75.92Z"/><path class="cls-2" d="M91.77,52.57c1.16,0,1.34-1.48,1.39-1.88.08-.63.16-1.86-.87-1.86s-1.39,1.41-1.45,1.87-.16,1.87.93,1.87M91.63,45l-.42,3.35a2.83,2.83,0,0,1,2.05-.8,2.2,2.2,0,0,1,2.13,1.28,3.55,3.55,0,0,1,.15,1.92,3.63,3.63,0,0,1-1.1,2.43,2.79,2.79,0,0,1-2,.82,2.08,2.08,0,0,1-1.92-1l-.19.91H88.13c.15-.7.26-1.5.26-1.54L89.31,45Z"/><path class="cls-2" d="M101,50c0-.35.06-1.29-1-1.29s-1.21,1-1.28,1.29ZM98.56,51.2c0,.33-.18,1.5,1,1.5a1.1,1.1,0,0,0,1.17-.9h2.15C102.51,53.35,101,54,99.39,54c-2.15,0-3.17-1.08-2.92-3.12a3.47,3.47,0,0,1,3.71-3.4c1.71,0,2.43.7,2.73,1.57a4.32,4.32,0,0,1,.07,2.2Z"/><path class="cls-2" d="M104.58,49l.1-1.32h2.25l-.13,1.28a2.26,2.26,0,0,1,2.34-1.32l-.24,2-.49,0a1.69,1.69,0,0,0-1.82,1.65l-.32,2.62H104Z"/><polygon class="cls-2" points="110.56 44.95 112.86 44.95 111.76 53.82 109.45 53.82 110.56 44.95"/><polygon class="cls-2" points="116.11 56.15 113.96 56.15 115.1 54.02 113.31 47.65 115.81 47.65 116.5 51.94 118.38 47.65 120.53 47.65 116.11 56.15"/><polygon class="cls-2" points="123.96 49.85 123.78 51.31 120.29 51.31 120.47 49.85 123.96 49.85"/><path class="cls-2" d="M131,47.74a1.14,1.14,0,0,0-1.29-1.23c-1.48,0-2.11,1.37-2.31,3-.07.54-.33,2.77,1.57,2.77A1.55,1.55,0,0,0,130.64,51h2.55c-.36,2.78-3.21,3-4.36,3a4.16,4.16,0,0,1-3.22-1.18,4.46,4.46,0,0,1-.73-3.36,5.69,5.69,0,0,1,1.54-3.38,4.67,4.67,0,0,1,3.53-1.3,3.83,3.83,0,0,1,3.1,1.08,2.49,2.49,0,0,1,.5,1.89Z"/><polygon class="cls-2" points="135.31 44.95 137.62 44.95 136.51 53.82 134.2 53.82 135.31 44.95"/><path class="cls-2" d="M140.36,51.82a.69.69,0,0,0,.74.83,1.13,1.13,0,0,0,1-.59,2.72,2.72,0,0,0,.32-1.15c-1,0-1.93,0-2,.91m1.75,2a4.19,4.19,0,0,1,0-.89,2.5,2.5,0,0,1-2.16,1c-1.51,0-2.07-.82-1.93-1.91.21-1.69,1.84-2.3,4.48-2.19.1-.66.09-1.28-.61-1.28a.92.92,0,0,0-.94.94h-2.21a2,2,0,0,1,.64-1.29,4,4,0,0,1,2.65-.78,3.32,3.32,0,0,1,2.29.71,2,2,0,0,1,.35,1.63l-.37,2.87a5.53,5.53,0,0,0,0,1.18Z"/><path class="cls-2" d="M146.37,49l.11-1.32h2.24l-.12,1.28a2.26,2.26,0,0,1,2.34-1.32l-.24,2-.49,0a1.69,1.69,0,0,0-1.82,1.65l-.32,2.62h-2.3Z"/><polygon class="cls-2" points="152.42 44.95 154.67 44.95 154 50.38 156.45 47.65 159 47.65 156.58 50.26 158.54 53.82 155.76 53.82 154 50.39 153.57 53.82 151.31 53.82 152.42 44.95"/></svg>