<svg id="Real" xmlns="http://www.w3.org/2000/svg" viewBox="0 0 200 100"><defs><style>.cls-1{fill:#34473d;}.cls-2{opacity:0.5;}</style></defs><title>LOGOS_cliente-nuevos</title><path class="cls-1" d="M77.13,49.86l5.1,5.1a.67.67,0,0,1,0,1c-.36.36-.74.24-1.07-.09l-3.46-3.46a3.92,3.92,0,0,1-.37-.48l-9.47,9.47c2.45,2,7.79,2.67,11.92-.31a10.75,10.75,0,1,0-16.75-6.45l4.75-4.79C69,51,70,52.07,71.05,53.12a.64.64,0,0,1,0,1A.66.66,0,0,1,70,54c-.67-.67-1.33-1.36-2-2.09-1.52,1.53-3,3-4.46,4.47-.94.94-1.18.89-1.58-.38a12.17,12.17,0,1,1,13.12,8.4,12,12,0,0,1-8.28-2c-1-.67-1.06-1-.21-1.89L76.7,50.44A5.83,5.83,0,0,0,77.13,49.86Z"/><g class="cls-2"><path class="cls-1" d="M71,51.33l2.19-2.2s.71.76,1.35,1.41a.63.63,0,0,0,1,.05.61.61,0,0,0,0-.93c-1-1-2.49-2.5-2.49-2.5L70,50.27a.72.72,0,0,0,.07,1A.73.73,0,0,0,71,51.33Z"/></g><path class="cls-1" d="M97.08,57.39c.35-.6,5.38-9.74,5.67-10a.44.44,0,0,1,.27-.09h2.49c.2,0,.29.06.33.28.2,1,1.91,9,2,9.43,0,.21,0,.35-.26.34h-2.48c-.24,0-.31-.1-.32-.32a2,2,0,0,0-.11-.65.52.52,0,0,0-.53-.38c-.94,0-1.88,0-2.82,0a.76.76,0,0,0-.82.48c-.09.24-.42.84-.54.85C99,57.4,98.09,57.39,97.08,57.39Zm6.21-5.73c-.15.34-.81,1.71-1.08,2.41h1.72c.33,0,.25-.22.16-.54-.15-.52-.28-1-.39-1.58S103.38,51.49,103.29,51.66Z"/><path class="cls-1" d="M118.34,57.2c.14-.87,1.39-8.58,1.83-9.16a1.33,1.33,0,0,1,1.07-.51h6.23c.23,0,.34,0,.24.33a10.07,10.07,0,0,0-.28,1.55.41.41,0,0,1-.48.4h-4.32c-.32,0-.46.12-.47.43a1.59,1.59,0,0,1-.06.37c-.11.36,0,.5.35.5h3.85c.39,0,.42.08.32.45s-.27,1.39-.39,1.72c0,.07-.23.11-.35.11-1.28,0-2.57,0-3.85,0-.25,0-.43,0-.45.33s-.14.54-.18.81.09.38.37.38h4.29c.46,0,.46,0,.37.51s-.22,1-.3,1.45c0,.3-.12.39-.41.39h-7.08Z"/><path class="cls-1" d="M90,57.39a.68.68,0,0,1-.76-.79c0-.45,1.52-8.89,1.63-9.15,0-.06.17-.1.26-.1h2c.35,0,.41.12.3.45s-1.06,5.9-1.2,6.38,0,.79.56.79h3.67c.45,0,.51.11.37.53-.08.22-.25,1.37-.35,1.7,0,.09-.22.17-.33.17C95.1,57.4,91,57.39,90,57.39Z"/><path class="cls-1" d="M138.64,51.62c0,3.57-4.08,6.59-7.5,5.59a4.21,4.21,0,0,1-2.94-5.41,6.62,6.62,0,0,1,6.15-4.53C136.85,47.3,139,49.33,138.64,51.62Zm-5.71,3.29a3.13,3.13,0,0,0,3-3,2.07,2.07,0,0,0-2-2.21,3.28,3.28,0,0,0-3.1,3A2.13,2.13,0,0,0,132.93,54.91Z"/><path class="cls-1" d="M118.13,49l-2.07,1.57c-2.29-1.17-3.93-.82-4.84,1a2.25,2.25,0,0,0,1,3.21,1.67,1.67,0,0,0,2.36-.85l-1.67-2,.29-.35h4.43c-.2,1.23-.39,2.42-.6,3.6a1.24,1.24,0,0,1-.23.51c-1.14,1.59-4.72,2.13-6.65,1a4.31,4.31,0,0,1-1.67-5.54C110.09,47.52,115.38,45.8,118.13,49Z"/></svg>