<svg xmlns="http://www.w3.org/2000/svg" id="Capa_1" data-name="Capa 1" viewBox="0 0 150 50.28"><defs><style>.cls-1{fill:#e2dfc7;}.cls-2{fill:#8acdde;}.cls-3{fill:#b9c800;}.cls-4{fill:#64a100;}</style></defs><title>delpin-logo-V-NTC</title><g id="Delpin-Logpo-H"><path id="Nombre" class="cls-1" d="M82.81,15.1a7.17,7.17,0,0,1,1.31.12V35.39a13.14,13.14,0,0,1-6.32,1.52,8,8,0,0,1-5.75-2.11A7.62,7.62,0,0,1,69.8,29a7.78,7.78,0,0,1,2.34-5.89,8,8,0,0,1,5.76-2.24,8.21,8.21,0,0,1,3.65.71V15.22A5.33,5.33,0,0,1,82.81,15.1Zm-5,19.42a8.77,8.77,0,0,0,3.75-.65V24.14a6.66,6.66,0,0,0-3.65-.88A5.25,5.25,0,0,0,74,24.81a5.56,5.56,0,0,0-1.53,4.1A5.69,5.69,0,0,0,73.91,33a5.2,5.2,0,0,0,3.89,1.52Zm23.7-7a17.66,17.66,0,0,1-.13,2.06H90.08a5.42,5.42,0,0,0,1.49,3.51A4.5,4.5,0,0,0,95,34.52a7,7,0,0,0,2.13-.31,6.77,6.77,0,0,0,1.37-.55,12,12,0,0,0,1-.71,2.6,2.6,0,0,1,1.42,1.76,9.16,9.16,0,0,1-6,2.2,7.25,7.25,0,0,1-5.47-2.19,8,8,0,0,1-2.11-5.81,8.22,8.22,0,0,1,2.11-5.8,6.84,6.84,0,0,1,5.25-2.3,6.65,6.65,0,0,1,4.85,1.91,6.51,6.51,0,0,1,2,4.84Zm-11.39-.1H98.8a4.8,4.8,0,0,0-1-3.05,3.65,3.65,0,0,0-3.06-1.28,4.3,4.3,0,0,0-3.16,1.25,5.13,5.13,0,0,0-1.47,3.12Zm16,9.12a7.07,7.07,0,0,1-1.3-.12V15.22a7.07,7.07,0,0,1,1.3-.12,5.85,5.85,0,0,1,1.32.12V36.46a6.11,6.11,0,0,1-1.35.12ZM118,20.81a8.07,8.07,0,0,1,5.76,2.12A7.61,7.61,0,0,1,126,28.78a7.72,7.72,0,0,1-7.33,8.09h-.52a11,11,0,0,1-3.87-.61v6.19a6.3,6.3,0,0,1-1.3.13,6,6,0,0,1-1.27-.13V23.13A9.55,9.55,0,0,1,118,20.81Zm0,13.65a5.12,5.12,0,0,0,3.91-1.54,5.75,5.75,0,0,0,1.45-4.13,5.47,5.47,0,0,0-1.47-4,5.22,5.22,0,0,0-3.89-1.5,6.88,6.88,0,0,0-3.75,1v9.29A7.31,7.31,0,0,0,118,34.46Zm12.7-15.85a1.86,1.86,0,0,1-1.32-.53,1.72,1.72,0,0,1-.55-1.3,1.78,1.78,0,0,1,.53-1.31,1.81,1.81,0,0,1,1.34-.53,1.73,1.73,0,0,1,1.27.53,1.8,1.8,0,0,1,.53,1.31,1.76,1.76,0,0,1-.53,1.3,1.74,1.74,0,0,1-1.29.53Zm0,18a7.37,7.37,0,0,1-1.32-.12V21.29a6.49,6.49,0,0,1,1.32-.13,5.68,5.68,0,0,1,1.3.13V36.46a5.85,5.85,0,0,1-1.32.12Zm12.51-15.77a6.83,6.83,0,0,1,5.08,1.76A6.06,6.06,0,0,1,150,27v9.45a5.85,5.85,0,0,1-1.32.12,7.07,7.07,0,0,1-1.3-.12V27.9a4.94,4.94,0,0,0-1.09-3.56,4.54,4.54,0,0,0-3.36-1.11,7.76,7.76,0,0,0-4.1,1.07V36.46a5.85,5.85,0,0,1-1.32.12,7,7,0,0,1-1.29-.12V23.13a9.81,9.81,0,0,1,3.07-1.65,11.76,11.76,0,0,1,3.9-.67Z"></path><g id="Sub-Marca"><path id="D" class="cls-2" d="M43.91,35.41H21.25a.71.71,0,0,1-.71-.71V.71A.71.71,0,0,1,21.25,0H43.91a17.69,17.69,0,0,1,17.7,17.7h0A17.69,17.69,0,0,1,43.91,35.41Z"></path><path id="G" class="cls-3" d="M40.37,50.28H17.71A17.69,17.69,0,0,1,0,32.59H0A17.71,17.71,0,0,1,17.71,14.87H40.37a.71.71,0,0,1,.71.71v34A.71.71,0,0,1,40.37,50.28Z"></path><path id="GD" class="cls-4" d="M40.37,14.87H20.54V34.7a.71.71,0,0,0,.71.71H41.08V15.58a.71.71,0,0,0-.71-.71Z"></path></g></g></svg>