<svg xmlns="http://www.w3.org/2000/svg" viewBox="0 0 150 50.28"><defs><style>.cls-1{fill:#34473d;}.cls-2{fill:#8acdde;}.cls-3{fill:#b9c800;}.cls-4{fill:#64a100;}</style></defs><title>delpin-logo-V-NT</title><g id="Capa_2" data-name="Capa 2"><g id="Delpin-Logpo-H"><path id="Nombre" class="cls-1" d="M82.81,15.1a6.71,6.71,0,0,1,1.31.12V35.39a13.07,13.07,0,0,1-6.32,1.52,8,8,0,0,1-5.75-2.11A7.63,7.63,0,0,1,69.8,29a7.8,7.8,0,0,1,2.34-5.89,8,8,0,0,1,5.76-2.24,8.22,8.22,0,0,1,3.65.71V15.22A5.86,5.86,0,0,1,82.81,15.1Zm-5,19.42a8.77,8.77,0,0,0,3.75-.65V24.14a6.67,6.67,0,0,0-3.65-.88A5.22,5.22,0,0,0,74,24.81a5.58,5.58,0,0,0-1.53,4.1A5.68,5.68,0,0,0,73.91,33,5.17,5.17,0,0,0,77.8,34.52Zm23.7-7a18,18,0,0,1-.13,2.06H90.08a5.42,5.42,0,0,0,1.49,3.51A4.53,4.53,0,0,0,95,34.52a6.85,6.85,0,0,0,2.13-.31,6.73,6.73,0,0,0,1.37-.55,11.77,11.77,0,0,0,1-.71,2.59,2.59,0,0,1,1.42,1.76,9.13,9.13,0,0,1-6,2.2,7.26,7.26,0,0,1-5.47-2.19,8,8,0,0,1-2.11-5.81,8.22,8.22,0,0,1,2.11-5.8,6.85,6.85,0,0,1,5.25-2.3,6.61,6.61,0,0,1,4.85,1.91A6.52,6.52,0,0,1,101.5,27.56Zm-11.39-.1h8.68a4.78,4.78,0,0,0-1-3.05,3.66,3.66,0,0,0-3.06-1.28,4.28,4.28,0,0,0-3.16,1.25A5.13,5.13,0,0,0,90.11,27.46Zm16,9.12a6.75,6.75,0,0,1-1.3-.12V15.22a6.75,6.75,0,0,1,1.3-.12,6.32,6.32,0,0,1,1.32.12V36.46A6.32,6.32,0,0,1,106.09,36.58ZM118,20.81a8.06,8.06,0,0,1,5.76,2.12A7.61,7.61,0,0,1,126,28.78a7.72,7.72,0,0,1-7.85,8.1,10.92,10.92,0,0,1-3.87-.61v6.19a6.14,6.14,0,0,1-1.3.13,6.43,6.43,0,0,1-1.27-.13l0-19.33A9.52,9.52,0,0,1,118,20.81Zm0,13.65a5.11,5.11,0,0,0,3.91-1.54,5.75,5.75,0,0,0,1.45-4.13,5.46,5.46,0,0,0-1.47-4A5.21,5.21,0,0,0,118,23.29a6.88,6.88,0,0,0-3.75,1l0,9.29A7.35,7.35,0,0,0,118,34.46Zm12.7-15.85a1.86,1.86,0,0,1-1.32-.53,1.71,1.71,0,0,1-.55-1.3,1.78,1.78,0,0,1,.53-1.31,1.82,1.82,0,0,1,1.34-.53,1.73,1.73,0,0,1,1.27.53,1.82,1.82,0,0,1,.53,1.31,1.76,1.76,0,0,1-.53,1.3A1.73,1.73,0,0,1,130.68,18.61Zm0,18a6.89,6.89,0,0,1-1.32-.12V21.29a6.16,6.16,0,0,1,1.32-.13,5.54,5.54,0,0,1,1.3.13V36.46A6.19,6.19,0,0,1,130.68,36.58Zm12.51-15.77a6.81,6.81,0,0,1,5.08,1.76A6.08,6.08,0,0,1,150,27v9.45a6.32,6.32,0,0,1-1.32.12,6.83,6.83,0,0,1-1.3-.12V27.9a4.93,4.93,0,0,0-1.09-3.56,4.54,4.54,0,0,0-3.36-1.11,7.84,7.84,0,0,0-4.1,1.07V36.46a6.32,6.32,0,0,1-1.32.12,6.73,6.73,0,0,1-1.29-.12V23.13a9.88,9.88,0,0,1,3.07-1.65A11.67,11.67,0,0,1,143.19,20.81Z"></path><g id="Sub-Marca"><path id="D" class="cls-2" d="M43.91,35.41H21.25a.71.71,0,0,1-.71-.71V.71A.71.71,0,0,1,21.25,0H43.91a17.7,17.7,0,0,1,17.7,17.71h0A17.7,17.7,0,0,1,43.91,35.41Z"></path><path id="G" class="cls-3" d="M40.37,50.28H17.71A17.7,17.7,0,0,1,0,32.58H0A17.71,17.71,0,0,1,17.71,14.87H40.37a.71.71,0,0,1,.71.71v34A.71.71,0,0,1,40.37,50.28Z"></path><path id="GD" class="cls-4" d="M40.37,14.87H20.54V34.7a.71.71,0,0,0,.71.71H41.08V15.58A.71.71,0,0,0,40.37,14.87Z"></path></g></g></g></svg>