<svg xmlns="http://www.w3.org/2000/svg" viewBox="0 0 200 100"><defs><style>.cls-1{fill:#34473d;}.cls-2{opacity:0.7;}</style></defs><g id="DIANA"><path class="cls-1" d="M76.2,41.72c0-6.17,5.16-11.21,12.45-11.1s10.83,6.54,11.59,6.93,2-.87,2.46-1.31a6.41,6.41,0,0,0,1.64-2.91c.17-1.14-2.49-2-3.76-2.39A5.85,5.85,0,0,1,99,30.29a.11.11,0,0,1,.06-.19c1.27,0,6.23-.17,7,.23a1.52,1.52,0,0,1,.58,2,17.73,17.73,0,0,0-2.41,3.74,9.07,9.07,0,0,1-3,3.57.93.93,0,0,1-1.26-.23c-5.93-8.1-13.19-7.78-18.54-3.44s-1.55,13.35,0,15.94a8.28,8.28,0,0,1,1.26,4.9S76.2,47.89,76.2,41.72Zm28.87-10.61a.48.48,0,0,0-.48.48.49.49,0,0,0,.48.48.48.48,0,0,0,.48-.48A.47.47,0,0,0,105.07,31.11Z"/><path class="cls-1" d="M103.74,28.64V20.32a.32.32,0,0,1,.58-.18l3.22,4.67a1.47,1.47,0,0,1-.28,2L104.51,29A.47.47,0,0,1,103.74,28.64Z"/><path class="cls-1" d="M106.37,40.06s5.95-7.5,10.49-6.24,5.48,6,5.29,9.9c-.15,3-2,7.91-2.52,9.12s.25,1.6.25,1.6a24.83,24.83,0,0,0,3.9-12.33c.45-7.59-3.84-10.56-6.73-10.52s-7.22,1.7-12.46,8Z"/><g class="cls-2"><polygon class="cls-1" points="95.13 39.54 89.71 41.52 91.56 53.8 96.35 53.74 95.13 39.54"/><polygon class="cls-1" points="98.67 68.86 96.39 54.07 91.62 54.12 93.73 64.95 98.67 68.86"/><path class="cls-1" d="M92.48,40.85s-.2-4.12.76-4.12S96.9,40,96.9,40s-1.7-4.1-3.87-4.15c0,0-1.81-.09-1.81,5.52Z"/><path class="cls-1" d="M90.21,41.85a8.09,8.09,0,0,0-5.27-2.31s-1.59.16-2.94,7.13c0,0-.81-6.09,1.83-8.32,0,0,4.1-1,8.75,3Z"/><polygon class="cls-1" points="112.6 43.72 107.78 45.17 107.46 54.44 111.92 54.44 112.6 43.72"/><polygon class="cls-1" points="106.12 68.86 110.73 64.68 111.89 54.77 107.44 54.77 106.12 68.86"/><path class="cls-1" d="M112,43.89s-2.41-3.2-3.63-3.16-2.36,1.65-2,5.32c0,0,.69-4.64,2-4.36s2.49,3.05,2.49,3.05Z"/><path class="cls-1" d="M111.38,41.67l1.26,1.58s2.89-4.41,3.65-4.11c0,0,3.19.71,3.54,5.27,0,0,.51-3.54-.76-4.63s-2.68-2.16-3.42-2S111.38,41.67,111.38,41.67Z"/><polygon class="cls-1" points="104.51 42.11 99.63 44.04 100.02 54.27 104.51 52.66 104.51 42.11"/><polygon class="cls-1" points="100.03 68.86 103.92 68.86 104.5 53.01 100.03 54.62 100.03 68.86"/><path class="cls-1" d="M103.37,43.72s-3.34-3.29-6.08-2.13c0,0-1.06,1.27.31,4.71,0,0-.36-4.32.45-4.19a6.22,6.22,0,0,1,3.75,2.06Z"/><path class="cls-1" d="M102.61,43.39s0-2.72.66-2.66,2.12,1.38,2.12,1.38-1-2.09-2.27-2.14-1.32,3.75-1.32,3.75Z"/><path class="cls-1" d="M72.7,80V73.62L69.9,77.85h-.23l-2.8-4.21V80H66.4v-7.4h.41l3,4.6,3-4.6h.4V80Z"/><path class="cls-1" d="M118.19,80V73.62l-2.79,4.23h-.24l-2.79-4.21V80h-.47v-7.4h.41l3,4.6,3-4.6h.4V80Z"/><path class="cls-1" d="M76.31,79.51a3.58,3.58,0,0,1-1.38-1.35,3.85,3.85,0,0,1,0-3.83A3.56,3.56,0,0,1,76.31,73a3.91,3.91,0,0,1,2-.49,4,4,0,0,1,2,.48,3.7,3.7,0,0,1,1.38,1.34,3.83,3.83,0,0,1,.5,1.93,3.77,3.77,0,0,1-.5,1.92,3.62,3.62,0,0,1-1.38,1.34,4.19,4.19,0,0,1-3.93,0ZM80,79.08a3.11,3.11,0,0,0,1.19-1.17,3.31,3.31,0,0,0,.43-1.66,3.35,3.35,0,0,0-.43-1.67A3.16,3.16,0,0,0,80,73.42a3.5,3.5,0,0,0-3.36,0,3.09,3.09,0,0,0-1.19,1.16A3.25,3.25,0,0,0,75,76.25a3.22,3.22,0,0,0,.44,1.66,3,3,0,0,0,1.19,1.17,3.57,3.57,0,0,0,3.36,0Z"/><path class="cls-1" d="M89.14,72.55V80H88.7l-4.76-6.43V80H83.4v-7.4h.46L88.6,79V72.55Z"/><path class="cls-1" d="M93,73H90.34v-.48H96.2V73H93.54V80H93Z"/><path class="cls-1" d="M102.51,79.46V80H97.4v-7.4h4.95V73H97.94V76h3.94v.48H97.94v3Z"/><path class="cls-1" d="M103.72,72.55h.54v6.91h4.26V80h-4.8Z"/><path class="cls-1" d="M109.63,72.55h.54V80h-.54Z"/><path class="cls-1" d="M125.49,77.87H121.2L120.26,80h-.58l3.4-7.4h.54L127,80h-.58Zm-.2-.46-2-4.27-1.93,4.27Z"/><path class="cls-1" d="M133,80l-1.77-2.48a4.74,4.74,0,0,1-.71.06h-2.12V80h-.54v-7.4h2.66a3.28,3.28,0,0,1,2.18.66,2.25,2.25,0,0,1,.8,1.83,2.39,2.39,0,0,1-.45,1.48,2.36,2.36,0,0,1-1.29.84L133.6,80Zm-2.48-2.9a2.7,2.7,0,0,0,1.8-.52,1.84,1.84,0,0,0,.63-1.49,1.82,1.82,0,0,0-.63-1.48,2.7,2.7,0,0,0-1.8-.53h-2.12v4Z"/></g></g></svg>