<svg xmlns="http://www.w3.org/2000/svg" viewBox="0 0 202.15 202.14"><defs><style>.cls-1{isolation:isolate;}.cls-2{fill:#fff;}.cls-3{fill:#b9c800;}.cls-4{fill:#8acdde;mix-blend-mode:multiply;}</style></defs><title>delpin-icon</title><g class="cls-1"><g id="iconos"><path id="icono_cyan" data-name="icono cyan" class="cls-2" d="M153.85,76h-38.1l35.32-55.63h-44.5L64.85,103.85H97.67L64.85,181.73Z"/><g id="icono_verde" data-name="icono verde"><path class="cls-3" d="M166,68.58v42.51a9,9,0,0,1-9,9H132.4v9h10.47a.71.71,0,0,1,.72.71v7.53a.71.71,0,0,1-.72.71H68.22a.71.71,0,0,1-.71-.71V129.7a.71.71,0,0,1,.71-.71H78.7v-9H58.56a4.48,4.48,0,0,1-4.47-4.47V95.43H54v7.68h-3.7a5,5,0,0,1-5-5V95.43H38a1.78,1.78,0,0,1-1.78-1.78V83.78A1.78,1.78,0,0,1,38,82h7.29V76.91a5,5,0,0,1,5-5H54V82h.13V64.1a4.48,4.48,0,0,1,4.47-4.47H157A9,9,0,0,1,166,68.58Z"/><path class="cls-2" d="M134.5,77.05H64.12V74.13H134.5Zm0,11.33H64.12v2.91H134.5Zm0,14.24H64.12v2.92H134.5Z"/></g><path id="icono_cyan-2" data-name="icono cyan" class="cls-4" d="M153.85,76h-38.1l35.32-55.63h-44.5L64.85,103.85H97.67L64.85,181.73Z"/></g></g></svg>