<svg xmlns="http://www.w3.org/2000/svg" viewBox="0 0 200 100"><defs><style>.cls-1{fill:#34473d;}.cls-2{opacity:0.6;}</style></defs><g id="DIANA"><path class="cls-1" d="M97.92,56.36a.21.21,0,0,1-.23.23H97a.2.2,0,0,1-.23-.23V44.82c0-.24,0-.38.07-.43a.85.85,0,0,1,.42-.06h2.94a4.29,4.29,0,0,1,2.85.87,3.28,3.28,0,0,1,1,2.62,3.65,3.65,0,0,1-.3,1.52,3.3,3.3,0,0,1-.85,1.13,3.79,3.79,0,0,1-1.29.68,4.63,4.63,0,0,1-1.59.2h-2.1Zm4.89-8.54A2.48,2.48,0,0,0,102.2,46a2.37,2.37,0,0,0-1.8-.64H97.92v4.94h1.34a12.17,12.17,0,0,0,1.43-.08,2.92,2.92,0,0,0,1.09-.35,1.93,1.93,0,0,0,.72-.75A3.08,3.08,0,0,0,102.81,47.82Z"/><path class="cls-1" d="M105.79,49a.19.19,0,0,1-.16,0,.09.09,0,0,1-.07-.1v-.63a.36.36,0,0,1,.23-.35,4.3,4.3,0,0,1,1.23-.44,7.87,7.87,0,0,1,1.43-.12,3.25,3.25,0,0,1,2.41.78,3.3,3.3,0,0,1,.76,2.38v4.14c0,.33,0,.63,0,.89s0,.51,0,.75a.21.21,0,0,1-.23.23h-.6a.21.21,0,0,1-.23-.23V55.09a2.59,2.59,0,0,1-1.17,1.3,3.49,3.49,0,0,1-1.77.46,3,3,0,0,1-2.45-1,2.24,2.24,0,0,1-.39-.77,2.93,2.93,0,0,1-.14-.87,3.13,3.13,0,0,1,.47-1.73,2.82,2.82,0,0,1,1.45-1.09,11.38,11.38,0,0,1,3.65-.43h.22v-.5a2.37,2.37,0,0,0-.47-1.58,2,2,0,0,0-1.58-.55,5.8,5.8,0,0,0-1.41.16A4.14,4.14,0,0,0,105.79,49Zm4.71,2.89h-.32a9.4,9.4,0,0,0-1.64.07,6.61,6.61,0,0,0-1.2.29,2.1,2.1,0,0,0-1,.74,1.94,1.94,0,0,0-.35,1.16,2.11,2.11,0,0,0,.14.77,1.11,1.11,0,0,0,.41.56,2.07,2.07,0,0,0,1.32.39,2.39,2.39,0,0,0,1.07-.23,2.45,2.45,0,0,0,.85-.66A3,3,0,0,0,110.3,54a5,5,0,0,0,.2-1.46Z"/><path class="cls-1" d="M121.44,56.36a.21.21,0,0,1-.23.23h-.66a.21.21,0,0,1-.24-.23V51.15a3.33,3.33,0,0,0-.54-2.15,1.9,1.9,0,0,0-1.54-.64,2.7,2.7,0,0,0-2,.74,2.92,2.92,0,0,0-.7,2.09v5.17a.21.21,0,0,1-.23.23h-.66a.21.21,0,0,1-.24-.23V48.64c0-.26,0-.52,0-.76a.15.15,0,0,1,.05-.17.28.28,0,0,1,.18-.06h.59a.2.2,0,0,1,.23.23v.91a2.91,2.91,0,0,1,1.12-1,4,4,0,0,1,1.79-.33,2.93,2.93,0,0,1,2.36.91,3.76,3.76,0,0,1,.8,2.56Z"/><path class="cls-1" d="M128.49,56.61a4.16,4.16,0,0,1-1.37.24,1.78,1.78,0,0,1-1.77-.87,5.62,5.62,0,0,1-.28-2.1V48.61h-1.55a.21.21,0,0,1-.23-.23v-.5a.21.21,0,0,1,.23-.23h1.55V45.42c0-.17.07-.25.22-.25H126c.15,0,.22.08.22.25v2.23H128a.2.2,0,0,1,.23.23v.5a.2.2,0,0,1-.23.23H126.2v5.83c0,1,.39,1.47,1.19,1.47a3.06,3.06,0,0,0,1-.2.19.19,0,0,1,.15,0,.15.15,0,0,1,.08.14l0,.43A.29.29,0,0,1,128.49,56.61Z"/><path class="cls-1" d="M130.66,49a.19.19,0,0,1-.16,0,.09.09,0,0,1-.07-.1v-.63a.36.36,0,0,1,.23-.35,4.3,4.3,0,0,1,1.23-.44,7.87,7.87,0,0,1,1.43-.12,3.23,3.23,0,0,1,2.41.78,3.3,3.3,0,0,1,.76,2.38v4.14c0,.33,0,.63,0,.89s0,.51.05.75a.21.21,0,0,1-.23.23h-.6a.21.21,0,0,1-.23-.23V55.09a2.62,2.62,0,0,1-1.16,1.3,3.55,3.55,0,0,1-1.78.46,3,3,0,0,1-2.45-1,2.24,2.24,0,0,1-.39-.77,2.93,2.93,0,0,1-.14-.87,3.05,3.05,0,0,1,.48-1.73,2.76,2.76,0,0,1,1.44-1.09,11.38,11.38,0,0,1,3.65-.43h.22v-.5a2.37,2.37,0,0,0-.47-1.58,2,2,0,0,0-1.58-.55,5.86,5.86,0,0,0-1.41.16A4.25,4.25,0,0,0,130.66,49Zm4.71,2.89h-.32a9.4,9.4,0,0,0-1.64.07,6.61,6.61,0,0,0-1.2.29,2.1,2.1,0,0,0-1,.74,1.94,1.94,0,0,0-.35,1.16A2.11,2.11,0,0,0,131,55a1.11,1.11,0,0,0,.41.56,2.07,2.07,0,0,0,1.32.39,2.39,2.39,0,0,0,1.07-.23,2.45,2.45,0,0,0,.85-.66,3,3,0,0,0,.56-1.07,5,5,0,0,0,.2-1.46Z"/><path class="cls-1" d="M140.19,56.59h-.72a.2.2,0,0,1-.23-.23V43.68a.2.2,0,0,1,.23-.23h.72a.21.21,0,0,1,.24.23V56.36A.21.21,0,0,1,140.19,56.59Z"/><path class="cls-1" d="M143.75,52.44a4.48,4.48,0,0,0,.19,1.47,2.82,2.82,0,0,0,.6,1.06,2.54,2.54,0,0,0,1,.66,3.06,3.06,0,0,0,1.23.23,6.07,6.07,0,0,0,1.24-.12,3.71,3.71,0,0,0,1.08-.41q.21-.09.21.12v.74a.27.27,0,0,1-.18.24,6.43,6.43,0,0,1-1.14.32,7.5,7.5,0,0,1-1.29.1,3.85,3.85,0,0,1-3.07-1.18,5.2,5.2,0,0,1-1-3.56,5.2,5.2,0,0,1,1-3.39,3.41,3.41,0,0,1,2.75-1.3,3.64,3.64,0,0,1,1.61.33,3,3,0,0,1,1.15,1,5.22,5.22,0,0,1,.85,3.14c0,.14,0,.25,0,.33a.34.34,0,0,1-.06.17.25.25,0,0,1-.17,0h-5.94Zm4.95-.94a5,5,0,0,0-.13-1.21,3,3,0,0,0-.41-.95,2,2,0,0,0-1.77-1,2.3,2.3,0,0,0-1.93,1,4.29,4.29,0,0,0-.5,1,3.81,3.81,0,0,0-.21,1.12Z"/><path class="cls-1" d="M159.91,52.13a5.58,5.58,0,0,1-.28,1.81,5.43,5.43,0,0,1-.75,1.46,3.9,3.9,0,0,1-1.38,1.07,4.09,4.09,0,0,1-1.82.38,4.21,4.21,0,0,1-1.84-.38,3.9,3.9,0,0,1-1.38-1.07,5.14,5.14,0,0,1-.74-1.46,5.87,5.87,0,0,1-.27-1.81,5.07,5.07,0,0,1,1-3.27,3.89,3.89,0,0,1,3.22-1.44,4.56,4.56,0,0,1,1.83.35,3.59,3.59,0,0,1,1.37,1.09A5.1,5.1,0,0,1,159.91,52.13Zm-1.22,0a5,5,0,0,0-.21-1.46,4.44,4.44,0,0,0-.57-1.2,2.73,2.73,0,0,0-2.23-1.06,2.83,2.83,0,0,0-1.25.27,3,3,0,0,0-1,.79,4,4,0,0,0-.59,1.2,5.22,5.22,0,0,0,0,2.93,3.79,3.79,0,0,0,.59,1.19,2.88,2.88,0,0,0,3.48.79,3.05,3.05,0,0,0,1-.79,4.24,4.24,0,0,0,.57-1.19A4.93,4.93,0,0,0,158.69,52.13Z"/><path class="cls-1" d="M169.18,56.36a.21.21,0,0,1-.23.23h-.66a.2.2,0,0,1-.23-.23V51.15a3.33,3.33,0,0,0-.55-2.15,1.9,1.9,0,0,0-1.54-.64,2.7,2.7,0,0,0-2,.74,2.92,2.92,0,0,0-.7,2.09v5.17a.21.21,0,0,1-.23.23h-.66a.2.2,0,0,1-.23-.23V49.75c0-.47,0-.84,0-1.11s0-.52,0-.76a.17.17,0,0,1,.06-.17.24.24,0,0,1,.17-.06h.59a.2.2,0,0,1,.23.23v.91a3,3,0,0,1,1.12-1,4,4,0,0,1,1.79-.33,3,3,0,0,1,2.37.91,3.75,3.75,0,0,1,.79,2.56Z"/><g class="cls-2"><rect class="cls-1" x="52.16" y="26" width="1.28" height="17.45"/><rect class="cls-1" x="56.55" y="26" width="1.28" height="10.7"/><rect class="cls-1" x="41.49" y="31.87" width="2.25" height="17.45" transform="translate(-16.22 41.84) rotate(-44.82)"/><rect class="cls-1" x="42.23" y="29.75" width="2.25" height="10.7" transform="translate(-12.14 40.76) rotate(-44.82)"/><rect class="cls-1" x="30.82" y="50.58" width="17.45" height="2.89"/><rect class="cls-1" x="30.82" y="46.19" width="10.7" height="2.89"/><rect class="cls-1" x="36.73" y="60.55" width="17.45" height="3.37" transform="translate(-30.69 50.36) rotate(-45)"/><rect class="cls-1" x="34.61" y="59.83" width="10.7" height="3.37" transform="translate(-31.79 46.27) rotate(-45)"/><rect class="cls-1" x="55.48" y="56.55" width="2.73" height="17.45"/><rect class="cls-1" x="51.09" y="63.3" width="2.73" height="10.7"/><rect class="cls-1" x="66.11" y="50.41" width="2.25" height="17.45" transform="translate(-21.99 66.61) rotate(-46.12)"/><rect class="cls-1" x="65.5" y="59.29" width="2.25" height="10.7" transform="translate(-26.15 67.85) rotate(-46.12)"/><rect class="cls-1" x="61.37" y="47.17" width="17.45" height="1.6"/><rect class="cls-1" x="68.12" y="51.57" width="10.7" height="1.6"/><rect class="cls-1" x="55.47" y="37.29" width="17.45" height="0.96" transform="translate(-7.9 56.45) rotate(-45)"/><rect class="cls-1" x="64.34" y="38.01" width="10.7" height="0.96" transform="translate(-6.8 60.55) rotate(-45)"/></g></g></svg>