<svg xmlns="http://www.w3.org/2000/svg" xmlns:xlink="http://www.w3.org/1999/xlink" viewBox="0 0 200 100"><defs><style>.cls-1,.cls-8{fill:none;}.cls-2{fill:#34473d;}.cls-3{clip-path:url(#clip-path);}.cls-4{fill:url(#linear-gradient);}.cls-5{fill:#aeb5b1;}.cls-6{fill:#85918b;}.cls-7{fill:#5d6c64;}.cls-8{stroke:#34473d;stroke-miterlimit:10;stroke-width:0.75px;}.cls-9{opacity:0.6;}</style><clipPath id="clip-path"><ellipse class="cls-1" cx="56.12" cy="47.02" rx="29.75" ry="15.49"/></clipPath><linearGradient id="linear-gradient" x1="55.16" y1="26.5" x2="55.16" y2="53.5" gradientUnits="userSpaceOnUse"><stop offset="0" stop-color="#aeb5b1"/><stop offset="0.72" stop-color="#cacfcc" stop-opacity="0.65"/><stop offset="1" stop-color="#d6dad8" stop-opacity="0.5"/></linearGradient></defs><g id="DIANA"><path class="cls-2" d="M43.15,68.94V65.53H44a2.06,2.06,0,0,1,1,.22,1.53,1.53,0,0,1,.6.61,1.87,1.87,0,0,1,.2.88,1.93,1.93,0,0,1-.2.88,1.51,1.51,0,0,1-.6.6,2,2,0,0,1-1,.22Zm.8-3.1h-.44v2.79H44a1.61,1.61,0,0,0,.76-.17,1.12,1.12,0,0,0,.46-.48,1.58,1.58,0,0,0,.16-.74,1.55,1.55,0,0,0-.16-.74,1.14,1.14,0,0,0-.46-.49A1.61,1.61,0,0,0,44,65.84Z"/><path class="cls-2" d="M48.25,68.94h-2V65.53h1.89l0,.31H46.67V67h1.21v.31H46.67v1.34h1.58Z"/><path class="cls-2" d="M48.42,68.74l0-.37a1.73,1.73,0,0,0,1,.33,1,1,0,0,0,.61-.17.57.57,0,0,0,.22-.48.47.47,0,0,0-.07-.27.52.52,0,0,0-.24-.22,3,3,0,0,0-.49-.22,3.2,3.2,0,0,1-.56-.28,1,1,0,0,1-.3-.31.75.75,0,0,1-.09-.37.87.87,0,0,1,.14-.48.93.93,0,0,1,.39-.31,1.34,1.34,0,0,1,.58-.11,1.78,1.78,0,0,1,.47,0,1.94,1.94,0,0,1,.42.17l-.11.33a1.48,1.48,0,0,0-.35-.19,1.42,1.42,0,0,0-.42-.06.92.92,0,0,0-.55.15.46.46,0,0,0-.21.42.44.44,0,0,0,.08.25.71.71,0,0,0,.26.2,2.38,2.38,0,0,0,.47.21,2.66,2.66,0,0,1,.59.3.78.78,0,0,1,.28.33.92.92,0,0,1,.08.38.9.9,0,0,1-.32.71,1.3,1.3,0,0,1-.88.27,2.48,2.48,0,0,1-.54-.06A2.18,2.18,0,0,1,48.42,68.74Z"/><path class="cls-2" d="M51.19,68.94V65.53H52a2.09,2.09,0,0,1,1,.22,1.44,1.44,0,0,1,.59.61,1.76,1.76,0,0,1,.21.88,1.82,1.82,0,0,1-.21.88,1.42,1.42,0,0,1-.59.6,2,2,0,0,1-1,.22Zm.81-3.1h-.44v2.79H52a1.61,1.61,0,0,0,.76-.17,1.12,1.12,0,0,0,.46-.48,1.58,1.58,0,0,0,.16-.74,1.55,1.55,0,0,0-.16-.74,1.14,1.14,0,0,0-.46-.49A1.61,1.61,0,0,0,52,65.84Z"/><path class="cls-2" d="M56.29,68.94H54.35V65.53h1.89l0,.31H54.72V67h1.2v.31h-1.2v1.34h1.57Z"/><path class="cls-2" d="M61.07,68.94H59v-.31h.87v-2.7l-.8.45,0-.34.91-.51h.27v3.1h.82Z"/><path class="cls-2" d="M62.79,65.48a1.33,1.33,0,0,1,.54.1,1,1,0,0,1,.37.29.73.73,0,0,1,.13.43c0,.34-.22.62-.68.82.55.2.83.51.83.91a.9.9,0,0,1-.16.5,1.09,1.09,0,0,1-.42.34,1.38,1.38,0,0,1-.62.13,1.48,1.48,0,0,1-.61-.12,1,1,0,0,1-.41-.33.81.81,0,0,1-.15-.48.83.83,0,0,1,.2-.55,1.45,1.45,0,0,1,.59-.39c-.44-.18-.66-.45-.66-.8a.74.74,0,0,1,.14-.44.85.85,0,0,1,.37-.3A1.19,1.19,0,0,1,62.79,65.48Zm0,3.22a1.08,1.08,0,0,0,.42-.08.85.85,0,0,0,.29-.24.57.57,0,0,0,.1-.34.59.59,0,0,0-.19-.44,2,2,0,0,0-.66-.34c-.5.18-.75.45-.75.8a.55.55,0,0,0,.22.46A.88.88,0,0,0,62.78,68.7Zm0-2.94a.78.78,0,0,0-.49.16.48.48,0,0,0-.19.4.54.54,0,0,0,.17.39,1.87,1.87,0,0,0,.56.3c.42-.17.63-.4.63-.68a.5.5,0,0,0-.19-.41A.78.78,0,0,0,62.79,65.76Z"/><path class="cls-2" d="M64.54,68.79l0-.37a1.07,1.07,0,0,0,.36.2,1.24,1.24,0,0,0,.37.06,1,1,0,0,0,.46-.11,1.08,1.08,0,0,0,.32-.32,1.93,1.93,0,0,0,.19-.46,3.08,3.08,0,0,0,.08-.53,1,1,0,0,1-.37.35,1.19,1.19,0,0,1-.53.13,1.1,1.1,0,0,1-.55-.14,1.06,1.06,0,0,1-.38-.38,1.22,1.22,0,0,1-.13-.59,1.18,1.18,0,0,1,.14-.6,1.05,1.05,0,0,1,.4-.41,1.15,1.15,0,0,1,.59-.14,1.06,1.06,0,0,1,.65.19,1.29,1.29,0,0,1,.41.55,2.33,2.33,0,0,1,.14.83,2.71,2.71,0,0,1-.19,1.1,1.37,1.37,0,0,1-.5.64,1.26,1.26,0,0,1-.71.21,1.84,1.84,0,0,1-.41,0A1.38,1.38,0,0,1,64.54,68.79Zm.21-2.18a.84.84,0,0,0,.21.6.71.71,0,0,0,.55.22.92.92,0,0,0,.38-.08.89.89,0,0,0,.3-.24h0a.7.7,0,0,0,.12-.59,1.1,1.1,0,0,0-.22-.46.68.68,0,0,0-.57-.27A.73.73,0,0,0,65,66,.88.88,0,0,0,64.75,66.61Z"/><path class="cls-2" d="M68.37,69a1,1,0,0,1-.9-.46,2.9,2.9,0,0,1,0-2.61,1,1,0,0,1,.9-.45,1,1,0,0,1,.91.45,2.37,2.37,0,0,1,.3,1.31,2.29,2.29,0,0,1-.31,1.3A1,1,0,0,1,68.37,69Zm0-.3a.7.7,0,0,0,.64-.37,2.26,2.26,0,0,0,.21-1.09c0-1-.28-1.46-.85-1.46s-.85.49-.85,1.46a2.26,2.26,0,0,0,.21,1.09A.71.71,0,0,0,68.37,68.7Z"/><g class="cls-3"><rect class="cls-4" x="22.32" y="30.83" width="65.68" height="21.15"/><rect class="cls-5" x="26.23" y="51.95" width="60.83" height="12.93"/><polygon class="cls-2" points="57.24 51.95 64.41 63.77 65.09 63.77 58.29 51.95 57.24 51.95"/><polygon class="cls-2" points="54.68 51.95 47.51 63.77 46.83 63.77 53.64 51.95 54.68 51.95"/><polygon class="cls-2" points="62.74 58.03 63.27 58.95 48.65 58.95 49.18 58.03 62.74 58.03"/><polygon class="cls-2" points="50.17 56.32 61.76 56.32 61.33 55.59 50.59 55.59 50.17 56.32"/><polygon class="cls-2" points="60.26 53.72 59.94 53.17 51.98 53.17 51.67 53.72 60.26 53.72"/><path class="cls-6" d="M56.32,38.6l-.61-.51-1.29.27L42.36,49.62,33.2,43.11l-8.91,5.44,1.94,3.37h27c.25-3.28,3.64-4.46,3.72-9.13A13,13,0,0,0,56.32,38.6Z"/><path class="cls-7" d="M87.06,48l-7-5.1H78.71l-9.6,6.49L56.32,38.6a13,13,0,0,1,.58,4.19c-.08,4.67-3.47,5.85-3.72,9.13H87Z"/><path class="cls-2" d="M44,50.71c-.68-.1-10.26-6.79-10.26-6.79a1.18,1.18,0,0,0-1.3,0l-7.33,4.5-.35-.54L32,43.13a2,2,0,0,1,2.33,0s9.44,7.21,9.73,7.53Z"/><path class="cls-2" d="M42.51,49.65,54.4,38.82a1.31,1.31,0,0,1,1.74,0L69,49.4l.2-.15L56.35,38a1.8,1.8,0,0,0-2.45.07L42.26,49.48Z"/><path class="cls-2" d="M67.81,50.29c-.17-.24,10.26-7.49,10.26-7.49a2.12,2.12,0,0,1,2.46,0L87,47.32l-.23.83-6.36-4.64a1.84,1.84,0,0,0-2.09,0S68,50.57,67.81,50.29Z"/><line class="cls-8" x1="27.81" y1="51.79" x2="84.56" y2="51.79"/><path class="cls-6" d="M66.48,54.87s0,.28-.67.28a.93.93,0,0,1-.79-.3s-.17-6.31.27-11.53c0,0,.08-.45.46-.45s.46.46.46.46S66.62,48.51,66.48,54.87Z"/><path class="cls-5" d="M65.29,43.32s.15-.42.35-.26.29,3.14.29,5.95c0,2.07-.05,3.87-.07,4.68a1.22,1.22,0,0,1-.46.92c-.15.11-.3.17-.38,0S64.81,45.41,65.29,43.32Z"/><path class="cls-2" d="M65.81,55.24a1,1,0,0,1-.87-.34v0c0-.06-.17-6.38.26-11.54a.62.62,0,0,1,.56-.53c.35,0,.52.35.56.53h0s.41,5.26.26,11.55a.23.23,0,0,1-.08.18A.92.92,0,0,1,65.81,55.24Zm-.7-.42a1,1,0,0,0,.7.23c.46,0,.57-.13.57-.18h0c.14-6.18-.24-11.31-.26-11.53,0,0-.1-.37-.37-.37s-.37.36-.37.37C65,48.29,65.1,54.32,65.11,54.82Z"/><path class="cls-6" d="M74.54,60.54s0,.47-1.13.47a1.56,1.56,0,0,1-1.33-.51s-.29-10.67.45-19.48c0,0,.15-.76.78-.76s.79.77.79.77S74.79,49.79,74.54,60.54Z"/><path class="cls-5" d="M72.53,41s.27-.71.6-.45.49,5.31.49,10.07S73.41,61,73.41,61s-1,0-1.33-.51C72.08,60.5,71.73,44.55,72.53,41Z"/><path class="cls-2" d="M73.41,61.17A1.68,1.68,0,0,1,72,60.59l0,0v0c0-.11-.28-10.78.45-19.5a1,1,0,0,1,.94-.91c.6,0,.88.59,1,.9v0c0,.09.69,8.88.44,19.52a.43.43,0,0,1-.14.31A1.6,1.6,0,0,1,73.41,61.17Zm-1.17-.72a1.51,1.51,0,0,0,1.17.4c.78,0,1-.22,1-.31h0c.24-10.45-.41-19.12-.44-19.49,0-.08-.17-.63-.63-.63s-.62.61-.62.63C72,49.42,72.22,59.62,72.24,60.45Z"/><path class="cls-2" d="M73.18,40.46s2.22,1.78,2.73,6.62a18.42,18.42,0,0,0,.91-4.34s1.44.6,2.45,3.18a15.15,15.15,0,0,0-.16-3.35,5.58,5.58,0,0,0-2.42-3,14.94,14.94,0,0,1,4.83,3.53,9.08,9.08,0,0,0-1-3.16,10.72,10.72,0,0,0-1.53-1.9,4.53,4.53,0,0,1,1.81.22L79.18,35.1l-4.09-1.26-.51.36a16,16,0,0,0-1.33,2.49s-.44-1.91-1.81-2.06a8.94,8.94,0,0,0-4.77.92s3.65-.32,4.64,1.19a5.54,5.54,0,0,0-2.71-.48,12.41,12.41,0,0,0-4.15,2.46A10,10,0,0,1,69,38.24a3.7,3.7,0,0,0-3,2.93c-.75,2.75,2.86,2,2.86,2s1.16.68,1.2,1.55a10.6,10.6,0,0,0,.54,2.36S71,41.81,73.18,40.46Z"/><path class="cls-2" d="M65.69,43.43s1.24.63,1.55,3.7a11.79,11.79,0,0,0,.43-2.67,4.32,4.32,0,0,1,1.84,2.36s0-2.44-1-3.39A1.75,1.75,0,0,1,70.06,45l.48-1.25-3.21-2.12,1-3.16a2.1,2.1,0,0,0-1.81,1.12,11.84,11.84,0,0,0-.8,1.81s-.14-1.7-1.58-1.7a4.79,4.79,0,0,0-2.58.85s1.94-.47,2.92.59c0,0-1.86-.57-2.92.37a2.21,2.21,0,0,0-.58.89,4.08,4.08,0,0,1,1.32-.31,2.11,2.11,0,0,0-.86,1.52L64,45.7s.57-.43,1,.31C65,46,64.94,43.91,65.69,43.43Z"/><path class="cls-6" d="M61.75,52.26s0,.16-.41.16a.56.56,0,0,1-.48-.18s-.1-3.83.16-7c0,0,.06-.27.28-.27s.29.28.29.28S61.83,48.4,61.75,52.26Z"/><path class="cls-5" d="M61,45.25s.1-.25.22-.16a19.41,19.41,0,0,1,.18,3.61c0,1.28,0,2.35-.06,2.81a.67.67,0,0,1-.29.53.38.38,0,0,1-.21.07A61.53,61.53,0,0,1,61,45.25Z"/><path class="cls-2" d="M61.34,52.48a.63.63,0,0,1-.52-.2v0a69.37,69.37,0,0,1,.16-7c0-.12.12-.33.33-.33a.37.37,0,0,1,.34.32h0s.25,3.19.16,7a.15.15,0,0,1,0,.11A.59.59,0,0,1,61.34,52.48Zm-.42-.26a.52.52,0,0,0,.42.15c.28,0,.35-.08.35-.11h0c.08-3.75-.15-6.87-.16-7S61.47,45,61.3,45s-.22.21-.22.22C60.83,48.27,60.91,51.92,60.92,52.22Z"/><path class="cls-2" d="M61.32,45.39a3.51,3.51,0,0,1,1,2.16,5.62,5.62,0,0,0,.14-1.67,2.38,2.38,0,0,1,.87,1.25s.2-1.4-.39-1.91a2.77,2.77,0,0,1,1.12,1.43s.05-1.87-.53-2.25-1.75-1.21-1.75-1.21a.92.92,0,0,0-.87.66s-.24-.58-1.78-.39c0,0,1.08.33,1.08.56,0,0-1.52-.15-1.91.79a4.32,4.32,0,0,1,1.26-.14s-.72.12-1.09,1.5a2.23,2.23,0,0,1,1.19-.8A4.52,4.52,0,0,0,59,47.55s.51-1.46.94-1.55a6.73,6.73,0,0,0,.37,1.79S60.71,45.54,61.32,45.39Z"/><path class="cls-6" d="M39.68,60.54s0,.47-1.13.47a1.56,1.56,0,0,1-1.33-.51s-.29-10.67.45-19.48c0,0,.15-.76.78-.76s.79.77.79.77S39.93,49.79,39.68,60.54Z"/><path class="cls-5" d="M37.67,41s.27-.71.6-.45.49,5.31.49,10.07S38.55,61,38.55,61s-1,0-1.33-.51C37.22,60.5,36.87,44.55,37.67,41Z"/><path class="cls-2" d="M38.55,61.17a1.68,1.68,0,0,1-1.46-.58l0,0v0c0-.11-.28-10.78.45-19.5a1,1,0,0,1,.94-.91c.6,0,.88.59.95.9v0c0,.09.69,8.88.44,19.52a.43.43,0,0,1-.14.31A1.6,1.6,0,0,1,38.55,61.17Zm-1.17-.72a1.51,1.51,0,0,0,1.17.4c.78,0,1-.22,1-.31h0c.24-10.45-.41-19.12-.44-19.49,0-.08-.17-.63-.63-.63s-.62.61-.62.63C37.13,49.42,37.36,59.62,37.38,60.45Z"/><path class="cls-2" d="M38.58,40.46s-2.22,1.78-2.73,6.62a18.42,18.42,0,0,1-.91-4.34s-1.44.6-2.45,3.18a14.77,14.77,0,0,1,.17-3.35,5.53,5.53,0,0,1,2.41-3,14.94,14.94,0,0,0-4.83,3.53A9.08,9.08,0,0,1,31.29,40a10.72,10.72,0,0,1,1.53-1.9,4.53,4.53,0,0,0-1.81.22l1.57-3.21,4.09-1.26.51.36a16,16,0,0,1,1.33,2.49s.45-1.91,1.81-2.06a8.94,8.94,0,0,1,4.77.92s-3.65-.32-4.64,1.19a5.54,5.54,0,0,1,2.71-.48,12.41,12.41,0,0,1,4.15,2.46,10,10,0,0,0-4.58-.48,3.7,3.7,0,0,1,3.05,2.93c.75,2.75-2.86,2-2.86,2s-1.16.68-1.2,1.55a10.6,10.6,0,0,1-.54,2.36S40.73,41.81,38.58,40.46Z"/><path class="cls-6" d="M46.74,54.87s0,.28-.67.28a.92.92,0,0,1-.78-.3s-.18-6.31.26-11.53c0,0,.09-.45.46-.45s.47.46.47.46S46.89,48.51,46.74,54.87Z"/><path class="cls-5" d="M45.55,43.32s.16-.42.36-.26.29,3.14.29,5.95-.13,6.14-.13,6.14-.57,0-.78-.3C45.29,54.85,45.08,45.41,45.55,43.32Z"/><path class="cls-2" d="M46.07,55.24a1,1,0,0,1-.86-.34l0,0v0c0-.06-.17-6.38.27-11.54a.6.6,0,0,1,.55-.53.63.63,0,0,1,.56.53h0s.41,5.26.27,11.55a.26.26,0,0,1-.09.18A.89.89,0,0,1,46.07,55.24Zm-.69-.42a.94.94,0,0,0,.69.23c.46,0,.57-.13.58-.18h0c.14-6.18-.25-11.31-.27-11.53,0,0-.09-.37-.37-.37s-.36.36-.37.37C45.23,48.29,45.37,54.32,45.38,54.82Z"/><path class="cls-2" d="M46.07,43.43s-1.23.63-1.55,3.7a11.79,11.79,0,0,1-.43-2.67,4.32,4.32,0,0,0-1.84,2.36s0-2.44,1-3.39A1.76,1.76,0,0,0,41.7,45l-.48-1.25,3.21-2.12-1-3.16a2.1,2.1,0,0,1,1.81,1.12,11.84,11.84,0,0,1,.8,1.81s.14-1.7,1.58-1.7a4.85,4.85,0,0,1,2.59.85s-2-.47-2.93.59c0,0,1.86-.57,2.93.37a2.25,2.25,0,0,1,.57.89,4.08,4.08,0,0,0-1.32-.31,2.08,2.08,0,0,1,.86,1.52L47.76,45.7s-.57-.43-1,.31C46.79,46,46.82,43.91,46.07,43.43Z"/><path class="cls-6" d="M50.9,52.26s0,.16-.41.16a.55.55,0,0,1-.47-.18s-.11-3.83.16-7c0,0,0-.27.28-.27s.28.28.28.28S51,48.4,50.9,52.26Z"/><path class="cls-5" d="M50.18,45.25s.09-.25.21-.16a19.41,19.41,0,0,1,.18,3.61c0,1.71-.08,3.72-.08,3.72s-.34,0-.47-.18A61.35,61.35,0,0,1,50.18,45.25Z"/><path class="cls-2" d="M50.49,52.48a.63.63,0,0,1-.52-.2v0s-.1-3.86.16-7a.37.37,0,0,1,.34-.33c.21,0,.31.21.34.32h0s.24,3.19.16,7a.22.22,0,0,1-.05.11A.64.64,0,0,1,50.49,52.48Zm-.42-.26a.52.52,0,0,0,.42.15c.28,0,.35-.08.35-.11h0c.09-3.75-.15-6.87-.16-7s-.06-.22-.22-.22-.22.21-.23.22C50,48.27,50.06,51.92,50.07,52.22Z"/><path class="cls-2" d="M50.44,45.39a3.51,3.51,0,0,0-1,2.16,5.62,5.62,0,0,1-.14-1.67,2.38,2.38,0,0,0-.87,1.25s-.19-1.4.39-1.91a2.77,2.77,0,0,0-1.12,1.43s0-1.87.54-2.25,1.74-1.21,1.74-1.21a.91.91,0,0,1,.87.66s.24-.58,1.79-.39c0,0-1.09.33-1.09.56,0,0,1.52-.15,1.91.79a4.32,4.32,0,0,0-1.26-.14s.73.12,1.09,1.5a2.23,2.23,0,0,0-1.19-.8,4.52,4.52,0,0,1,.68,2.18s-.51-1.46-.94-1.55a7,7,0,0,1-.36,1.79S51.05,45.54,50.44,45.39Z"/></g><path class="cls-2" d="M56.12,63.05c-8,0-15.59-1.63-21.28-4.6s-9-7.08-9-11.43,3.2-8.4,9-11.42S48.09,31,56.12,31,71.7,32.63,77.4,35.6s9,7.08,9,11.42-3.19,8.41-9,11.43S64.15,63.05,56.12,63.05Zm0-31C40,32.06,26.9,38.77,26.9,47S40,62,56.12,62s29.21-6.71,29.21-15S72.23,32.06,56.12,32.06Z"/><path class="cls-2" d="M134.75,46.65l-.08-.55a3.67,3.67,0,0,0,1.56.39c.78,0,1.16-.3,1.16-.81s-.3-.75-1.22-1c-1.08-.33-1.46-.73-1.46-1.46s.55-1.19,1.55-1.19a3.75,3.75,0,0,1,1.42.27l.08.55a3.76,3.76,0,0,0-1.49-.37c-.64,0-1.05.27-1.05.71s.25.7,1.15,1c1.1.34,1.52.72,1.52,1.5S137.33,47,136.26,47A4.3,4.3,0,0,1,134.75,46.65Z"/><path class="cls-2" d="M141,45.67h-2.17l-.43,1.15h-.52l1.81-4.69h.5L142,46.82h-.54Zm-.17-.44-.92-2.49L139,45.23Z"/><path class="cls-2" d="M146,42.13v4.69h-.73l-2.44-4.2v4.2h-.46V42.13h.71l2.46,4.23V42.13Z"/><path class="cls-2" d="M151.11,45.67h-2.17l-.44,1.15H148l1.81-4.69h.5l1.77,4.69h-.54Zm-.17-.44L150,42.74l-.93,2.49Z"/><path class="cls-2" d="M156.07,42.13v4.69h-.73l-2.44-4.2v4.2h-.46V42.13h.71l2.46,4.23V42.13Z"/><path class="cls-2" d="M158.49,42.58v4.24H158V42.58h-1.46l.06-.45h3.29l.07.45Z"/><path class="cls-2" d="M159.87,44.47c0-1.52.86-2.47,2-2.47s2,1,2,2.47-.86,2.49-2,2.49S159.87,46,159.87,44.47Zm3.57,0c0-1.3-.67-2-1.53-2s-1.54.7-1.54,2,.67,2,1.54,2S163.44,45.78,163.44,44.47Z"/><path class="cls-2" d="M168.17,42.13v4.69h-.72L165,42.62v4.2h-.46V42.13h.71l2.46,4.23V42.13Z"/><path class="cls-2" d="M169,42.13h.49v4.69H169Z"/><path class="cls-2" d="M170.08,44.47c0-1.52.86-2.47,2-2.47s2,1,2,2.47-.87,2.49-2,2.49S170.08,46,170.08,44.47Zm3.57,0c0-1.3-.67-2-1.53-2s-1.53.7-1.53,2,.66,2,1.53,2S173.65,45.78,173.65,44.47Z"/><path class="cls-2" d="M90.51,46.56l.16.27.69,1.22a4.61,4.61,0,0,0,4.19,2.59c2,0,3.28-.9,3.28-2.69a2.29,2.29,0,0,0-.23-1.21,1.77,1.77,0,0,0-.77-.69,3.93,3.93,0,0,0-.66-.23l-1-.25-1.77-.45-.93-.26q-.39-.12-.69-.24a4.56,4.56,0,0,1-.54-.25,2.66,2.66,0,0,1-.45-.29,1.92,1.92,0,0,1-.8-1,6.06,6.06,0,0,1-.24-1.9A3.68,3.68,0,0,1,92,38.11a5.26,5.26,0,0,1,3.58-1h.86l.59,0,1,.07c.54,0,1,.06,1.27.06a4.57,4.57,0,0,0,.73,0,1.87,1.87,0,0,0,.49-.15V41l-.28-.45c-.08-.13-.14-.24-.21-.34l-.2-.28-.28-.32a4.66,4.66,0,0,0-3.76-1.59c-1.7,0-2.83.78-2.83,2.34a1.8,1.8,0,0,0,1,2A4.29,4.29,0,0,0,95,42.8l3.07.67a4.11,4.11,0,0,1,2.26,1.26A3.47,3.47,0,0,1,101,47.1c0,2.94-1.62,4.41-5.2,4.41a9.94,9.94,0,0,1-1.09,0q-.56,0-1.38-.15l-1.13-.14-.63,0a3.28,3.28,0,0,0-.49,0l-.49.09Z"/><path class="cls-2" d="M102.47,51a.86.86,0,0,0,.21-.24,1.44,1.44,0,0,0,.27-.67c0-.21,0-.48.08-.82s0-.65,0-.94V40.42c0-.3,0-.63,0-1s0-.61-.08-.8a1.52,1.52,0,0,0-.23-.62,3.71,3.71,0,0,0-.6-.59h10.23l0,3a4.55,4.55,0,0,0-2-1.65,6.81,6.81,0,0,0-2.84-.59h-.39l-.73,0-.43,0a.76.76,0,0,0-.26.12.33.33,0,0,0-.15.16,1.25,1.25,0,0,0-.09.29c0,.13,0,.29,0,.49s0,.45,0,.76v3.21h.21a5.24,5.24,0,0,0,.55,0h.49c.52,0,1,0,1.39-.05a5.24,5.24,0,0,0,1.1-.2,4.75,4.75,0,0,0,.93-.37,5.38,5.38,0,0,0,.89-.58v3l-.1-.07-.59-.31-.51-.2c-.14,0-.32-.09-.53-.14a4.88,4.88,0,0,0-.7-.11l-.76-.08-.73,0h-.25l-1.16,0h-.23v3.84s0,.1,0,.23,0,.3,0,.52a3.26,3.26,0,0,0,.1.74,1.06,1.06,0,0,0,.28.44,1.44,1.44,0,0,0,.48.28,5.38,5.38,0,0,0,.82.16l.55.05h.47a4.68,4.68,0,0,0,2.78-.87,6,6,0,0,0,.89-.81,14.57,14.57,0,0,0,1-1.27l.12-.18-.44,3.89H102.12C102.29,51.13,102.4,51,102.47,51Z"/><path class="cls-2" d="M124.46,48.34A14.56,14.56,0,0,0,126,50.08a8.83,8.83,0,0,0,1.57,1.18h-4l-4.09-5.66-.47-.66a1.35,1.35,0,0,0-.37-.36,2.9,2.9,0,0,0-.81-.1h-.4V48.3c0,.28,0,.59,0,.94s.06.63.09.82a1.46,1.46,0,0,0,.23.63,3.28,3.28,0,0,0,.62.57H114l.38-.29a1,1,0,0,0,.2-.24,1.69,1.69,0,0,0,.27-.67c0-.21,0-.48.08-.83s0-.65,0-.93V40.42q0-.44,0-1c0-.36,0-.63-.08-.82a1.48,1.48,0,0,0-.24-.63,2.88,2.88,0,0,0-.61-.58h6.27a11,11,0,0,1,2,.16,3.13,3.13,0,0,1,1.27.51,2.41,2.41,0,0,1,.82,1.13,4.5,4.5,0,0,1,.3,1.69,3.22,3.22,0,0,1-.91,2.53,3.29,3.29,0,0,1-1.09.65,4.74,4.74,0,0,1-1.38.3Zm-4.78-4.69a3.09,3.09,0,0,0,2.18-.61,2.82,2.82,0,0,0,.64-2.1,4,4,0,0,0-.16-1.25,2,2,0,0,0-.53-.83,1.45,1.45,0,0,0-.39-.3,2.24,2.24,0,0,0-.55-.17,7,7,0,0,0-.8-.1c-.31,0-.68,0-1.13,0a3.19,3.19,0,0,0-1.25.15.33.33,0,0,0-.17.22,2.27,2.27,0,0,0,0,.57v4.45Z"/><g class="cls-9"><rect class="cls-2" x="130.68" y="37.43" width="0.89" height="13.83"/></g></g></svg>