<svg id="Real" xmlns="http://www.w3.org/2000/svg" viewBox="0 0 200 100"><defs><style>.cls-1,.cls-3{fill:#34473d;}.cls-2{fill:#fff;}.cls-3{opacity:0.5;}</style></defs><title>LOGOS_cliente-nuevos</title><path class="cls-1" d="M94.78,45.73h.58c1.13,0,2.25,0,3.38,0a.73.73,0,0,1,.8.51c1.27,2.92,2.57,5.82,3.87,8.73.3.68.6,1.36,1,2a14.78,14.78,0,0,0,.09-2.2v-9h2.88V59.9a33.19,33.19,0,0,1-4.8.05c-1.59-3.55-3.18-7.13-4.78-10.7l-.12,0V60H94.81C94.7,59.56,94.66,46.63,94.78,45.73Z"/><path class="cls-1" d="M84.73,48.3V60H81.86V45.76l.58,0c1.94,0,3.89,0,5.84,0a6.47,6.47,0,0,1,1.45.18,3.75,3.75,0,0,1,2.87,3.36,5.3,5.3,0,0,1-.12,2.06,3.65,3.65,0,0,1-2.11,2.48L90,54s0,0-.07.09L93.45,60H90.18l-4.81-8c.21,0,.35-.05.49-.05.64,0,1.27,0,1.91,0a1.77,1.77,0,0,0,1.81-2.27,1.6,1.6,0,0,0-1.16-1.31,2.36,2.36,0,0,0-.45-.08c-.24,0-.48,0-.73,0Z"/><path class="cls-1" d="M122.26,52.89a11.36,11.36,0,0,1-.62,3.43,5.64,5.64,0,0,1-5,3.78A7.65,7.65,0,0,1,113.9,60a5.6,5.6,0,0,1-4.17-3.73,9.86,9.86,0,0,1,0-6.67,5.66,5.66,0,0,1,4.82-3.86,7.41,7.41,0,0,1,3.18.17A5.66,5.66,0,0,1,122,50.5C122.12,51.28,122.16,52.09,122.26,52.89Zm-3,0a6.68,6.68,0,0,0-.53-2.8,3.06,3.06,0,0,0-2.1-1.8,3.27,3.27,0,0,0-4.12,2.25,7.58,7.58,0,0,0-.25,3.6,6.89,6.89,0,0,0,.52,1.71,2.77,2.77,0,0,0,1.65,1.51,3.33,3.33,0,0,0,4.44-2A7.78,7.78,0,0,0,119.24,52.88Z"/><path class="cls-1" d="M133.12,45.75H136c0,.44-3.94,12.81-4.52,14.2H127q-2.26-7-4.56-14.13c.09,0,.14-.08.19-.08h2.71q1.92,5.85,3.83,11.71h.11Q131.2,51.62,133.12,45.75Z"/><path class="cls-1" d="M147.55,60h-2.94L140.8,48.3h-.13L136.88,60H134q2.28-7.12,4.58-14.19H143Z"/><path class="cls-1" d="M61.22,46.52V45.09c0-.62,0-.62-.63-.78l-7.46-1.89-.68-.18v-2.4l13.76,2.38v3.46Z"/><path class="cls-1" d="M61.07,46.63V60H58.22V47.13Z"/><path class="cls-1" d="M79.41,57.47V60H67.48v-2.5C67.91,57.38,78.72,57.36,79.41,57.47Z"/><path class="cls-1" d="M79.4,45.81v2.43c-.45.11-11.24.14-11.94,0,0-.8,0-1.61,0-2.41C67.88,45.71,78.75,45.68,79.4,45.81Z"/><path class="cls-1" d="M79.39,51.6v2.51H67.46c0-.83,0-1.66,0-2.51Z"/><path class="cls-1" d="M58.11,44.41c0,.87,0,1.61,0,2.36a.31.31,0,0,1-.28.35l-3.89.66a1.34,1.34,0,0,1-.1-.33c0-.52,0-1.05,0-1.57a.37.37,0,0,1,.28-.43Z"/><path class="cls-2" d="M66.21,45.68l-5,.84v-2Z"/><path class="cls-2" d="M58.11,44.41c0,.87,0,1.61,0,2.36a.31.31,0,0,1-.28.35l-3.89.66a1.34,1.34,0,0,1-.1-.33c0-.52,0-1.05,0-1.57a.37.37,0,0,1,.28-.43Z"/><path class="cls-3" d="M61.22,44.57l5,1.11-5,.84"/><path class="cls-3" d="M58.11,44.41c0,.87,0,1.61,0,2.36a.31.31,0,0,1-.28.35l-3.89.66a1.34,1.34,0,0,1-.1-.33c0-.52,0-1.05,0-1.57a.37.37,0,0,1,.28-.43Z"/></svg>