<svg xmlns="http://www.w3.org/2000/svg" viewBox="0 0 202.15 202.14"><defs><style>.cls-1{isolation:isolate;}.cls-2{fill:#b9c800;}.cls-2,.cls-3{mix-blend-mode:multiply;}.cls-3{fill:#8acdde;}</style></defs><title>delpin-icon</title><g class="cls-1"><g id="Capa_1" data-name="Capa 1"><polygon class="cls-2" points="176.32 49.13 176.32 113.78 167.5 113.78 167.5 104.96 34.65 104.96 34.65 113.78 25.83 113.78 25.83 49.13 34.65 49.13 34.65 57.95 167.5 57.95 167.5 49.13 176.32 49.13"/><path class="cls-3" d="M68.25,113.78V105c.08-1.19,17.57.12,19.16.42,19,3.59,16.32,24.27,16.32,38.81H94.91V153h64.65v-8.82h-8.82V124.51c-.4-20.37-8.59-41.11-24.74-54.08C108.82,56.63,89,58,68.25,58V49.13H59.43v64.65Z"/></g></g></svg>