<svg xmlns="http://www.w3.org/2000/svg" viewBox="0 0 202.15 202.14"><defs><style>.cls-1{isolation:isolate;}.cls-2{fill:#fff;}.cls-3{fill:#b9c800;}.cls-4{fill:#8acdde;mix-blend-mode:multiply;}</style></defs><title>delpin-icon</title><g class="cls-1"><g id="iconos"><path id="icono_cyan" data-name="icono cyan" class="cls-2" d="M175.35,93.85a35,35,0,0,0-19.6-26.62,33.62,33.62,0,0,0-22.43-2.67,24.05,24.05,0,0,0,1.3-18.47,25.08,25.08,0,0,0-20-16.92A25.55,25.55,0,0,0,111,29l-.25,0a25.73,25.73,0,0,0-4.51.45c-.45.09-.87.25-1.31.36a24.77,24.77,0,0,0-2.85.88c-.64.25-1.26.54-1.88.84s-1.2.62-1.79,1a24.83,24.83,0,0,0-2.12,1.38c-.26.2-.51.42-.76.63a24.71,24.71,0,0,0-6.64,8.16A34.8,34.8,0,1,0,61.3,98.53a34,34,0,0,0,5.47-.48,24.76,24.76,0,0,0-2.45,3.76c-.16.29-.33.57-.48.87-.31.64-.6,1.27-.85,1.94a24.9,24.9,0,0,0-1,3.31c-.09.37-.15.73-.21,1.1a23.51,23.51,0,0,0-.43,4.23v.13a25.36,25.36,0,0,0,.55,5.34,24.82,24.82,0,0,0,34,17.58,71.18,71.18,0,0,1,10.14,36.63v.17h19.89v-.17a71.18,71.18,0,0,1,10.14-36.63l1.88-3.12c.95.07,1.91.14,2.89.14a34.82,34.82,0,0,0,34.5-39.48Z"/><g id="icono_verde" data-name="icono verde"><path class="cls-3" d="M166.53,84.7V75.93H153.38V48.58a95.93,95.93,0,0,0-75.3,0V151.65a96.71,96.71,0,0,0,23.51,6.64v14.93h8.78v-14c2.09.11,4.24.17,6.46.14,1.46,0,2.87-.08,4.27-.15v14h8.78V158.28a96.41,96.41,0,0,0,23.5-6.63V104.21h13.15V95.44H153.38V84.7Z"/><path class="cls-2" d="M115.72,66.27a1.5,1.5,0,1,1-1.83-.25,1.49,1.49,0,0,1,1.83.25v0Zm11.71.6A12.37,12.37,0,1,1,115.06,54.5,12.37,12.37,0,0,1,127.43,66.87Zm-5.32-6a1.5,1.5,0,0,0-2.53-.66l-3,3a4.31,4.31,0,0,0-1.93-.45,4.5,4.5,0,1,0,4.5,4.5,4.31,4.31,0,0,0-.45-1.93l3-3A1.5,1.5,0,0,0,122.11,60.92Z"/></g><path id="icono_cyan-2" data-name="icono cyan" class="cls-4" d="M175.35,93.85a35,35,0,0,0-19.6-26.62,33.62,33.62,0,0,0-22.43-2.67,24.05,24.05,0,0,0,1.3-18.47,25.08,25.08,0,0,0-20-16.92A25.55,25.55,0,0,0,111,29l-.25,0a25.73,25.73,0,0,0-4.51.45c-.45.09-.87.25-1.31.36a24.77,24.77,0,0,0-2.85.88c-.64.25-1.26.54-1.88.84s-1.2.62-1.79,1a24.83,24.83,0,0,0-2.12,1.38c-.26.2-.51.42-.76.63a24.71,24.71,0,0,0-6.64,8.16A34.8,34.8,0,1,0,61.3,98.53a34,34,0,0,0,5.47-.48,24.76,24.76,0,0,0-2.45,3.76c-.16.29-.33.57-.48.87-.31.64-.6,1.27-.85,1.94a24.9,24.9,0,0,0-1,3.31c-.09.37-.15.73-.21,1.1a23.51,23.51,0,0,0-.43,4.23v.13a25.36,25.36,0,0,0,.55,5.34,24.82,24.82,0,0,0,34,17.58,71.18,71.18,0,0,1,10.14,36.63v.17h19.89v-.17a71.18,71.18,0,0,1,10.14-36.63l1.88-3.12c.95.07,1.91.14,2.89.14a34.82,34.82,0,0,0,34.5-39.48Z"/></g></g></svg>